M48
; DRILL file {KiCad 7.0.7} date Wed Jan 17 08:31:40 2024
; FORMAT={-:-/ absolute / inch / decimal}
; #@! TF.CreationDate,2024-01-17T08:31:40-03:00
; #@! TF.GenerationSoftware,Kicad,Pcbnew,7.0.7
; #@! TF.FileFunction,Plated,1,2,PTH
FMAT,2
INCH
; #@! TA.AperFunction,Plated,PTH,ViaDrill
T1C0.0118
; #@! TA.AperFunction,Plated,PTH,ComponentDrill
T2C0.0295
; #@! TA.AperFunction,Plated,PTH,ComponentDrill
T3C0.0315
; #@! TA.AperFunction,Plated,PTH,ComponentDrill
T4C0.0374
; #@! TA.AperFunction,Plated,PTH,ComponentDrill
T5C0.0394
; #@! TA.AperFunction,Plated,PTH,ComponentDrill
T6C0.0433
%
G90
G05
T1
X6.1433Y-3.9039
X6.1433Y-3.9539
X6.1433Y-4.011
X6.1433Y-4.0626
X6.4161Y-3.8646
X6.5252Y-3.8626
X6.7276Y-5.498
X6.7406Y-4.8988
X6.7862Y-4.8988
X6.8063Y-5.498
X6.8409Y-4.8988
X6.8913Y-4.8988
X6.9055Y-5.498
X6.974Y-5.498
X6.9965Y-3.8764
X6.9992Y-4.7031
X7.0547Y-3.9323
X7.1055Y-4.7008
X7.152Y-4.5354
X7.2067Y-4.7008
X7.2138Y-4.5354
X7.2634Y-3.8791
X7.2874Y-3.6925
X7.289Y-4.5354
X7.313Y-3.952
X7.3165Y-3.8776
X7.337Y-3.6925
X7.3461Y-4.5354
X7.3783Y-3.952
X7.3787Y-3.8776
X7.3882Y-4.0311
X7.4429Y-3.8776
X7.5425Y-4.9886
X7.5441Y-5.0437
X7.5461Y-5.0949
X7.6091Y-3.6925
X7.6319Y-4.5354
X7.6555Y-3.6921
X7.6803Y-4.5354
X7.7323Y-4.5354
X7.787Y-4.5354
X7.9043Y-3.4689
X8.1307Y-3.4791
X8.2224Y-5.0665
X8.3299Y-4.7756
X8.3941Y-3.7382
X8.3941Y-3.7791
X8.3941Y-3.8272
X8.3941Y-3.8728
X8.3953Y-3.9531
X8.3972Y-4.0421
X8.4394Y-4.7756
X8.478Y-4.7756
X8.5165Y-4.7756
X8.5697Y-4.952
X8.5713Y-5.0071
X8.5732Y-5.0583
X8.6331Y-4.7756
X8.9028Y-4.024
X8.9028Y-4.0685
X8.9028Y-4.1059
X8.9028Y-4.1469
T2
X7.9139Y-5.3312
X7.9139Y-5.4099
T3
X6.4646Y-3.9929
X6.4646Y-4.3929
X6.7638Y-3.989
X6.7638Y-4.389
X6.8245Y-5.1631
X6.8245Y-5.2615
X7.0989Y-5.3005
X7.0989Y-5.3989
T4
X6.1969Y-3.5433
X6.2953Y-3.5433
X6.3937Y-3.5433
X6.4921Y-3.5433
X6.5906Y-3.5433
X6.8661Y-3.5433
X6.9646Y-3.5433
X7.063Y-3.5433
X7.1614Y-3.5433
X7.2598Y-3.5433
X7.5591Y-3.5433
X7.6575Y-3.5433
X7.7559Y-3.5433
X7.8543Y-3.5433
X7.9528Y-3.5433
X8.5894Y-3.6925
X8.5894Y-3.7909
X8.5894Y-3.8894
X8.5894Y-3.9878
X8.5894Y-4.0862
T5
X6.226Y-5.139
X6.226Y-5.239
X6.226Y-5.339
X6.3654Y-4.7909
X6.3661Y-3.7913
X6.4654Y-4.7909
X6.4661Y-3.7913
X6.5654Y-4.7909
X6.5661Y-3.7913
X6.6654Y-4.7909
X6.6661Y-3.7913
X6.7654Y-4.7909
X6.7661Y-3.7913
X6.8654Y-4.7909
X6.8661Y-3.7913
X6.9654Y-4.7909
X6.9661Y-3.7913
X7.0654Y-4.7909
X7.0661Y-3.7913
X7.1654Y-4.7909
X7.1661Y-3.7913
X7.2654Y-4.7909
X7.2661Y-3.7913
X7.3421Y-5.2449
X7.3421Y-5.3449
X7.3421Y-5.4449
X7.3654Y-4.7909
X7.3661Y-3.7913
X7.4654Y-4.7909
X7.4661Y-3.7913
X7.5654Y-4.7909
X7.5661Y-3.7913
X7.6421Y-5.2449
X7.6421Y-5.3449
X7.6421Y-5.4449
X7.6654Y-4.7909
X7.6661Y-3.7913
X7.7654Y-4.7909
X7.7661Y-3.7913
X8.2783Y-3.4957
X8.285Y-4.6693
X8.285Y-5.1663
X8.3425Y-5.3937
X8.3783Y-3.4957
X8.385Y-4.6693
X8.385Y-5.1663
X8.4409Y-5.3937
X8.4783Y-3.4957
X8.485Y-4.6693
X8.485Y-5.1663
X8.5744Y-4.3594
X8.5744Y-4.4579
X8.5783Y-3.4957
X8.585Y-4.6693
X8.585Y-5.1663
X8.6783Y-3.4957
X8.685Y-4.6693
X8.685Y-5.1663
X8.7783Y-3.4957
X8.785Y-4.6693
X8.785Y-5.1663
X8.8346Y-5.4291
X8.8783Y-3.4957
X8.885Y-4.6693
X8.885Y-5.1663
X8.9331Y-5.4291
X8.9783Y-3.4957
X8.985Y-4.6693
X8.985Y-5.1663
T6
X6.4877Y-5.2155
X6.4877Y-5.3155
X6.4877Y-5.4155
T0
M30
