G04 #@! TF.GenerationSoftware,KiCad,Pcbnew,7.0.10*
G04 #@! TF.CreationDate,2024-01-17T23:16:48-03:00*
G04 #@! TF.ProjectId,ligeirinho,6c696765-6972-4696-9e68-6f2e6b696361,rev?*
G04 #@! TF.SameCoordinates,Original*
G04 #@! TF.FileFunction,Profile,NP*
%FSLAX46Y46*%
G04 Gerber Fmt 4.6, Leading zero omitted, Abs format (unit mm)*
G04 Created by KiCad (PCBNEW 7.0.10) date 2024-01-17 23:16:48*
%MOMM*%
%LPD*%
G01*
G04 APERTURE LIST*
G04 #@! TA.AperFunction,Profile*
%ADD10C,0.100000*%
G04 #@! TD*
G04 #@! TA.AperFunction,Profile*
%ADD11C,0.050000*%
G04 #@! TD*
G04 #@! TA.AperFunction,Profile*
%ADD12C,0.200000*%
G04 #@! TD*
G04 #@! TA.AperFunction,Profile*
%ADD13C,0.150000*%
G04 #@! TD*
G04 APERTURE END LIST*
D10*
X92390000Y-112785000D02*
G75*
G03*
X88390000Y-112785000I-2000000J0D01*
G01*
X88390000Y-112785000D02*
G75*
G03*
X92390000Y-112785000I2000000J0D01*
G01*
X70390000Y-112785000D02*
G75*
G03*
X66390000Y-112785000I-2000000J0D01*
G01*
X66390000Y-112785000D02*
G75*
G03*
X70390000Y-112785000I2000000J0D01*
G01*
X92390000Y-136785000D02*
G75*
G03*
X88390000Y-136785000I-2000000J0D01*
G01*
X88390000Y-136785000D02*
G75*
G03*
X92390000Y-136785000I2000000J0D01*
G01*
X128790000Y-112685000D02*
G75*
G03*
X124790000Y-112685000I-2000000J0D01*
G01*
X124790000Y-112685000D02*
G75*
G03*
X128790000Y-112685000I2000000J0D01*
G01*
X106790000Y-112685000D02*
G75*
G03*
X102790000Y-112685000I-2000000J0D01*
G01*
X102790000Y-112685000D02*
G75*
G03*
X106790000Y-112685000I2000000J0D01*
G01*
X128790000Y-136685000D02*
G75*
G03*
X124790000Y-136685000I-2000000J0D01*
G01*
X124790000Y-136685000D02*
G75*
G03*
X128790000Y-136685000I2000000J0D01*
G01*
D11*
X30000000Y-40000000D02*
X130000000Y-40000000D01*
X130000000Y-140000000D01*
X30000000Y-140000000D01*
X30000000Y-40000000D01*
D10*
X35166000Y-112785000D02*
G75*
G03*
X31166000Y-112785000I-2000000J0D01*
G01*
X31166000Y-112785000D02*
G75*
G03*
X35166000Y-112785000I2000000J0D01*
G01*
X57166000Y-136785000D02*
G75*
G03*
X53166000Y-136785000I-2000000J0D01*
G01*
X53166000Y-136785000D02*
G75*
G03*
X57166000Y-136785000I2000000J0D01*
G01*
X57166000Y-112785000D02*
G75*
G03*
X53166000Y-112785000I-2000000J0D01*
G01*
X53166000Y-112785000D02*
G75*
G03*
X57166000Y-112785000I2000000J0D01*
G01*
D12*
X36795000Y-67655000D02*
G75*
G03*
X32795000Y-67655000I-2000000J0D01*
G01*
X32795000Y-67655000D02*
G75*
G03*
X36795000Y-67655000I2000000J0D01*
G01*
X104665000Y-53525000D02*
G75*
G03*
X100665000Y-53525000I-2000000J0D01*
G01*
X100665000Y-53525000D02*
G75*
G03*
X104665000Y-53525000I2000000J0D01*
G01*
X104665000Y-81305000D02*
G75*
G03*
X100665000Y-81305000I-2000000J0D01*
G01*
X100665000Y-81305000D02*
G75*
G03*
X104665000Y-81305000I2000000J0D01*
G01*
D13*
X76024000Y-124325000D02*
X85224000Y-124325000D01*
X76024000Y-137785000D02*
X76024000Y-124325000D01*
X85224000Y-124325000D02*
X85224000Y-137785000D01*
X85224000Y-137785000D02*
X76024000Y-137785000D01*
X112424000Y-124225000D02*
X121624000Y-124225000D01*
X112424000Y-137685000D02*
X112424000Y-124225000D01*
X121624000Y-124225000D02*
X121624000Y-137685000D01*
X121624000Y-137685000D02*
X112424000Y-137685000D01*
X40800000Y-124325000D02*
X50000000Y-124325000D01*
X40800000Y-137785000D02*
X40800000Y-124325000D01*
X50000000Y-124325000D02*
X50000000Y-137785000D01*
X50000000Y-137785000D02*
X40800000Y-137785000D01*
M02*
