G04 #@! TF.GenerationSoftware,KiCad,Pcbnew,7.0.10*
G04 #@! TF.CreationDate,2024-01-17T23:16:48-03:00*
G04 #@! TF.ProjectId,ligeirinho,6c696765-6972-4696-9e68-6f2e6b696361,rev?*
G04 #@! TF.SameCoordinates,Original*
G04 #@! TF.FileFunction,Soldermask,Top*
G04 #@! TF.FilePolarity,Negative*
%FSLAX46Y46*%
G04 Gerber Fmt 4.6, Leading zero omitted, Abs format (unit mm)*
G04 Created by KiCad (PCBNEW 7.0.10) date 2024-01-17 23:16:48*
%MOMM*%
%LPD*%
G01*
G04 APERTURE LIST*
G04 Aperture macros list*
%AMRoundRect*
0 Rectangle with rounded corners*
0 $1 Rounding radius*
0 $2 $3 $4 $5 $6 $7 $8 $9 X,Y pos of 4 corners*
0 Add a 4 corners polygon primitive as box body*
4,1,4,$2,$3,$4,$5,$6,$7,$8,$9,$2,$3,0*
0 Add four circle primitives for the rounded corners*
1,1,$1+$1,$2,$3*
1,1,$1+$1,$4,$5*
1,1,$1+$1,$6,$7*
1,1,$1+$1,$8,$9*
0 Add four rect primitives between the rounded corners*
20,1,$1+$1,$2,$3,$4,$5,0*
20,1,$1+$1,$4,$5,$6,$7,0*
20,1,$1+$1,$6,$7,$8,$9,0*
20,1,$1+$1,$8,$9,$2,$3,0*%
G04 Aperture macros list end*
%ADD10RoundRect,0.225000X-0.250000X0.225000X-0.250000X-0.225000X0.250000X-0.225000X0.250000X0.225000X0*%
%ADD11RoundRect,0.225000X-0.225000X-0.250000X0.225000X-0.250000X0.225000X0.250000X-0.225000X0.250000X0*%
%ADD12C,1.200000*%
%ADD13RoundRect,0.250000X-0.725000X0.600000X-0.725000X-0.600000X0.725000X-0.600000X0.725000X0.600000X0*%
%ADD14O,1.950000X1.700000*%
%ADD15RoundRect,0.250000X0.600000X0.750000X-0.600000X0.750000X-0.600000X-0.750000X0.600000X-0.750000X0*%
%ADD16O,1.700000X2.000000*%
%ADD17R,1.400000X1.400000*%
%ADD18C,1.400000*%
%ADD19R,0.600000X0.500000*%
%ADD20O,1.600000X1.600000*%
%ADD21C,1.600000*%
%ADD22O,1.700000X1.700000*%
%ADD23R,1.700000X1.700000*%
%ADD24O,1.200000X1.750000*%
%ADD25RoundRect,0.250000X-0.350000X-0.625000X0.350000X-0.625000X0.350000X0.625000X-0.350000X0.625000X0*%
%ADD26O,2.000000X1.905000*%
%ADD27R,2.000000X1.905000*%
%ADD28R,2.000000X1.500000*%
%ADD29R,2.000000X3.800000*%
%ADD30O,1.700000X1.950000*%
%ADD31RoundRect,0.250000X0.600000X0.725000X-0.600000X0.725000X-0.600000X-0.725000X0.600000X-0.725000X0*%
%ADD32R,1.600000X1.600000*%
%ADD33RoundRect,0.250000X-0.475000X0.337500X-0.475000X-0.337500X0.475000X-0.337500X0.475000X0.337500X0*%
%ADD34O,2.100000X1.900000*%
%ADD35R,2.100000X1.900000*%
%ADD36RoundRect,0.250000X-0.337500X-0.475000X0.337500X-0.475000X0.337500X0.475000X-0.337500X0.475000X0*%
%ADD37O,2.000000X1.700000*%
%ADD38RoundRect,0.250000X0.750000X-0.600000X0.750000X0.600000X-0.750000X0.600000X-0.750000X-0.600000X0*%
%ADD39RoundRect,0.250000X0.725000X-0.600000X0.725000X0.600000X-0.725000X0.600000X-0.725000X-0.600000X0*%
%ADD40RoundRect,0.250000X-0.600000X-0.750000X0.600000X-0.750000X0.600000X0.750000X-0.600000X0.750000X0*%
G04 APERTURE END LIST*
D10*
X78510000Y-119095000D03*
X78510000Y-120645000D03*
D11*
X89296000Y-129578000D03*
X90846000Y-129578000D03*
D10*
X76770000Y-119095000D03*
X76770000Y-120645000D03*
D11*
X90638000Y-131987000D03*
X92188000Y-131987000D03*
D12*
X67644000Y-124675000D03*
D13*
X69644000Y-126275000D03*
D14*
X69644000Y-128775000D03*
X69644000Y-131275000D03*
X69644000Y-133775000D03*
X69644000Y-136275000D03*
D11*
X89302000Y-125335000D03*
X90852000Y-125335000D03*
X90625000Y-133745000D03*
X92175000Y-133745000D03*
D15*
X80640000Y-115466000D03*
D16*
X78140000Y-115466000D03*
D11*
X89296000Y-127878000D03*
X90846000Y-127878000D03*
D17*
X74324000Y-124825000D03*
D18*
X74324000Y-126605000D03*
X74324000Y-128385000D03*
X74324000Y-130165000D03*
X74324000Y-131945000D03*
X74324000Y-133725000D03*
X74324000Y-135505000D03*
X74324000Y-137285000D03*
X86924000Y-137285000D03*
X86924000Y-135505000D03*
X86924000Y-133725000D03*
X86924000Y-131945000D03*
X86924000Y-130165000D03*
X86924000Y-128385000D03*
X86924000Y-126605000D03*
X86924000Y-124825000D03*
D11*
X79849000Y-122090000D03*
X81399000Y-122090000D03*
D19*
X73860000Y-122135000D03*
X73860000Y-121135000D03*
X72560000Y-121635000D03*
D11*
X89302000Y-123600000D03*
X90852000Y-123600000D03*
D10*
X114910000Y-118995000D03*
X114910000Y-120545000D03*
D11*
X125696000Y-129478000D03*
X127246000Y-129478000D03*
D10*
X113170000Y-118995000D03*
X113170000Y-120545000D03*
D11*
X127038000Y-131887000D03*
X128588000Y-131887000D03*
D12*
X104044000Y-124575000D03*
D13*
X106044000Y-126175000D03*
D14*
X106044000Y-128675000D03*
X106044000Y-131175000D03*
X106044000Y-133675000D03*
X106044000Y-136175000D03*
D11*
X125702000Y-125235000D03*
X127252000Y-125235000D03*
X127025000Y-133645000D03*
X128575000Y-133645000D03*
D15*
X117040000Y-115366000D03*
D16*
X114540000Y-115366000D03*
D11*
X125696000Y-127778000D03*
X127246000Y-127778000D03*
D17*
X110724000Y-124725000D03*
D18*
X110724000Y-126505000D03*
X110724000Y-128285000D03*
X110724000Y-130065000D03*
X110724000Y-131845000D03*
X110724000Y-133625000D03*
X110724000Y-135405000D03*
X110724000Y-137185000D03*
X123324000Y-137185000D03*
X123324000Y-135405000D03*
X123324000Y-133625000D03*
X123324000Y-131845000D03*
X123324000Y-130065000D03*
X123324000Y-128285000D03*
X123324000Y-126505000D03*
X123324000Y-124725000D03*
D11*
X116249000Y-121990000D03*
X117799000Y-121990000D03*
D19*
X110260000Y-122035000D03*
X110260000Y-121035000D03*
X108960000Y-121535000D03*
D11*
X125702000Y-123500000D03*
X127252000Y-123500000D03*
X54072000Y-129578000D03*
X55622000Y-129578000D03*
D10*
X43286000Y-119095000D03*
X43286000Y-120645000D03*
D19*
X38636000Y-122135000D03*
X38636000Y-121135000D03*
X37336000Y-121635000D03*
D11*
X54072000Y-127878000D03*
X55622000Y-127878000D03*
X44625000Y-122090000D03*
X46175000Y-122090000D03*
X54078000Y-123600000D03*
X55628000Y-123600000D03*
D17*
X39100000Y-124825000D03*
D18*
X39100000Y-126605000D03*
X39100000Y-128385000D03*
X39100000Y-130165000D03*
X39100000Y-131945000D03*
X39100000Y-133725000D03*
X39100000Y-135505000D03*
X39100000Y-137285000D03*
X51700000Y-137285000D03*
X51700000Y-135505000D03*
X51700000Y-133725000D03*
X51700000Y-131945000D03*
X51700000Y-130165000D03*
X51700000Y-128385000D03*
X51700000Y-126605000D03*
X51700000Y-124825000D03*
D10*
X41546000Y-119095000D03*
X41546000Y-120645000D03*
D11*
X55414000Y-131987000D03*
X56964000Y-131987000D03*
D15*
X45416000Y-115466000D03*
D16*
X42916000Y-115466000D03*
D12*
X32420000Y-124675000D03*
D13*
X34420000Y-126275000D03*
D14*
X34420000Y-128775000D03*
X34420000Y-131275000D03*
X34420000Y-133775000D03*
X34420000Y-136275000D03*
D11*
X54078000Y-125335000D03*
X55628000Y-125335000D03*
X55401000Y-133745000D03*
X56951000Y-133745000D03*
D20*
X40365000Y-65985000D03*
D21*
X40365000Y-55825000D03*
D22*
X104385000Y-73005000D03*
X101845000Y-73005000D03*
X99305000Y-73005000D03*
X96765000Y-73005000D03*
X94225000Y-73005000D03*
X91685000Y-73005000D03*
X89145000Y-73005000D03*
D23*
X86605000Y-73005000D03*
D22*
X33615000Y-80255000D03*
X33615000Y-82795000D03*
D23*
X33615000Y-85335000D03*
D24*
X49565000Y-92055000D03*
D25*
X47565000Y-92055000D03*
D22*
X86435000Y-43195000D03*
X88975000Y-43195000D03*
X91515000Y-43195000D03*
X94055000Y-43195000D03*
X96595000Y-43195000D03*
X99135000Y-43195000D03*
X101675000Y-43195000D03*
D23*
X104215000Y-43195000D03*
D26*
X65465000Y-85855000D03*
X65465000Y-88395000D03*
D27*
X65465000Y-90935000D03*
D28*
X74125000Y-85115000D03*
D29*
X80425000Y-82815000D03*
D28*
X74125000Y-82815000D03*
X74125000Y-80515000D03*
D30*
X68165000Y-44405000D03*
X70665000Y-44405000D03*
X73165000Y-44405000D03*
X75665000Y-44405000D03*
D31*
X78165000Y-44405000D03*
D12*
X79765000Y-42405000D03*
D21*
X58065000Y-82505000D03*
D32*
X58065000Y-85005000D03*
D21*
X72665000Y-92172621D03*
D32*
X72665000Y-89672621D03*
D30*
X50565000Y-44405000D03*
X53065000Y-44405000D03*
X55565000Y-44405000D03*
X58065000Y-44405000D03*
D31*
X60565000Y-44405000D03*
D12*
X62165000Y-42405000D03*
D20*
X47965000Y-65885000D03*
D21*
X47965000Y-55725000D03*
D33*
X83065000Y-84942500D03*
X83065000Y-82867500D03*
D22*
X73425000Y-50705000D03*
X70885000Y-50705000D03*
X68345000Y-50705000D03*
X65805000Y-50705000D03*
X63265000Y-50705000D03*
X60725000Y-50705000D03*
X58185000Y-50705000D03*
X55645000Y-50705000D03*
X53105000Y-50705000D03*
X50565000Y-50705000D03*
X48025000Y-50705000D03*
X45485000Y-50705000D03*
X42945000Y-50705000D03*
X40405000Y-50705000D03*
D23*
X37865000Y-50705000D03*
D22*
X73405000Y-76095000D03*
X70865000Y-76095000D03*
X68325000Y-76095000D03*
X65785000Y-76095000D03*
X63245000Y-76095000D03*
X60705000Y-76095000D03*
X58165000Y-76095000D03*
X55625000Y-76095000D03*
X53085000Y-76095000D03*
X50545000Y-76095000D03*
X48005000Y-76095000D03*
X45465000Y-76095000D03*
X42925000Y-76095000D03*
X40385000Y-76095000D03*
D23*
X37845000Y-76095000D03*
D22*
X104385000Y-85630000D03*
X101845000Y-85630000D03*
X99305000Y-85630000D03*
X96765000Y-85630000D03*
X94225000Y-85630000D03*
X91685000Y-85630000D03*
X89145000Y-85630000D03*
D23*
X86605000Y-85630000D03*
D34*
X44627500Y-84127500D03*
X52247500Y-84127500D03*
X44627500Y-86667500D03*
X52247500Y-81587500D03*
X44627500Y-81587500D03*
D35*
X52247500Y-86667500D03*
D30*
X33565000Y-44405000D03*
X36065000Y-44405000D03*
X38565000Y-44405000D03*
X41065000Y-44405000D03*
D31*
X43565000Y-44405000D03*
D12*
X45165000Y-42405000D03*
D36*
X79252500Y-88255000D03*
X77177500Y-88255000D03*
D37*
X93955000Y-65135000D03*
D38*
X93955000Y-67635000D03*
D14*
X94335000Y-48195000D03*
X94335000Y-50695000D03*
X94335000Y-53195000D03*
X94335000Y-55695000D03*
D39*
X94335000Y-58195000D03*
D16*
X103065000Y-92305000D03*
D40*
X100565000Y-92305000D03*
D12*
X98965000Y-90305000D03*
D16*
X88065000Y-91405000D03*
D15*
X90565000Y-91405000D03*
D12*
X92165000Y-93405000D03*
M02*
