M48
; DRILL file {KiCad 7.0.10} date Wed Jan 17 23:18:15 2024
; FORMAT={-:-/ absolute / metric / decimal}
; #@! TF.CreationDate,2024-01-17T23:18:15-03:00
; #@! TF.GenerationSoftware,Kicad,Pcbnew,7.0.10
; #@! TF.FileFunction,Plated,1,2,PTH
FMAT,2
METRIC
; #@! TA.AperFunction,Plated,PTH,ViaDrill
T1C0.300
; #@! TA.AperFunction,Plated,PTH,ViaDrill
T2C0.400
; #@! TA.AperFunction,Plated,PTH,ComponentDrill
T3C0.750
; #@! TA.AperFunction,Plated,PTH,ComponentDrill
T4C0.800
; #@! TA.AperFunction,Plated,PTH,ComponentDrill
T5C0.950
; #@! TA.AperFunction,Plated,PTH,ComponentDrill
T6C1.000
; #@! TA.AperFunction,Plated,PTH,ComponentDrill
T7C1.100
%
G90
G05
T1
X32.115Y-90.455
X32.165Y-93.655
X32.205Y-53.565
X32.205Y-54.835
X32.205Y-56.285
X32.205Y-57.595
X34.865Y-90.405
X34.915Y-93.655
X37.305Y-46.365
X38.115Y-90.455
X38.365Y-93.555
X39.135Y-52.565
X41.165Y-93.505
X41.365Y-90.505
X41.615Y-49.005
X41.905Y-52.515
X42.465Y-58.705
X44.045Y-58.705
X45.295Y-46.515
X45.675Y-58.705
X46.815Y-49.055
X48.805Y-42.625
X51.865Y-48.905
X53.875Y-52.865
X53.945Y-73.865
X53.965Y-90.205
X54.005Y-93.505
X55.355Y-54.285
X55.794Y-93.505
X55.865Y-90.255
X56.645Y-73.805
X57.825Y-69.605
X58.415Y-90.255
X58.476Y-93.505
X59.215Y-73.805
X59.395Y-69.605
X59.765Y-48.105
X60.065Y-90.205
X60.265Y-93.505
X60.515Y-52.485
X61.305Y-69.605
X61.865Y-52.445
X61.915Y-54.785
X62.525Y-48.195
X62.755Y-69.605
X63.445Y-52.445
X63.575Y-54.785
X63.825Y-56.795
X64.625Y-42.655
X65.075Y-52.445
X66.065Y-81.255
X67.465Y-81.255
X68.015Y-84.055
X68.765Y-81.255
X69.435Y-48.195
X70.015Y-69.605
X71.245Y-69.605
X72.565Y-69.605
X73.775Y-42.515
X73.955Y-69.605
X76.565Y-49.205
X76.935Y-42.515
X77.715Y-91.305
X80.865Y-87.305
X82.685Y-42.775
X83.165Y-79.855
X87.745Y-75.705
X90.525Y-75.705
X90.755Y-89.435
X91.505Y-75.705
X92.485Y-75.705
X92.505Y-48.325
X92.505Y-49.365
X92.505Y-50.585
X92.505Y-51.745
X92.625Y-54.775
X92.675Y-57.035
X95.445Y-75.705
X95.515Y-90.205
X95.565Y-92.255
X95.665Y-94.205
X96.285Y-83.625
X96.365Y-52.935
X96.365Y-54.065
X96.365Y-55.015
X96.365Y-56.055
X97.265Y-83.625
X98.245Y-83.625
X101.185Y-87.815
X102.275Y-90.285
X102.295Y-56.615
X102.295Y-57.745
X102.295Y-58.695
X102.295Y-59.735
T2
X32.526Y-115.775
X32.526Y-117.865
X32.526Y-119.785
X32.526Y-126.405
X32.526Y-128.635
X32.526Y-131.275
X32.526Y-133.795
X32.526Y-136.255
X39.68Y-122.219
X47.966Y-119.465
X49.816Y-119.465
X51.566Y-119.495
X54.085Y-131.942
X57.276Y-115.945
X57.276Y-118.035
X57.276Y-119.955
X67.75Y-115.775
X67.75Y-117.865
X67.75Y-119.785
X67.75Y-126.405
X67.75Y-128.635
X67.75Y-131.275
X67.75Y-133.795
X67.75Y-136.255
X74.904Y-122.219
X83.19Y-119.465
X85.04Y-119.465
X86.79Y-119.495
X89.309Y-131.942
X92.5Y-115.945
X92.5Y-118.035
X92.5Y-119.955
X104.15Y-115.675
X104.15Y-117.765
X104.15Y-119.685
X104.15Y-126.305
X104.15Y-128.535
X104.15Y-131.175
X104.15Y-133.695
X104.15Y-136.155
X111.304Y-122.119
X119.59Y-119.365
X121.44Y-119.365
X123.19Y-119.395
X125.709Y-131.842
X128.9Y-115.845
X128.9Y-117.935
X128.9Y-119.855
T3
X47.565Y-92.055
X49.565Y-92.055
T4
X39.1Y-124.825
X39.1Y-126.605
X39.1Y-128.385
X39.1Y-130.165
X39.1Y-131.945
X39.1Y-133.725
X39.1Y-135.505
X39.1Y-137.285
X40.365Y-55.825
X40.365Y-65.985
X47.965Y-55.725
X47.965Y-65.885
X51.7Y-124.825
X51.7Y-126.605
X51.7Y-128.385
X51.7Y-130.165
X51.7Y-131.945
X51.7Y-133.725
X51.7Y-135.505
X51.7Y-137.285
X58.065Y-82.505
X58.065Y-85.005
X72.665Y-89.673
X72.665Y-92.173
X74.324Y-124.825
X74.324Y-126.605
X74.324Y-128.385
X74.324Y-130.165
X74.324Y-131.945
X74.324Y-133.725
X74.324Y-135.505
X74.324Y-137.285
X86.924Y-124.825
X86.924Y-126.605
X86.924Y-128.385
X86.924Y-130.165
X86.924Y-131.945
X86.924Y-133.725
X86.924Y-135.505
X86.924Y-137.285
X110.724Y-124.725
X110.724Y-126.505
X110.724Y-128.285
X110.724Y-130.065
X110.724Y-131.845
X110.724Y-133.625
X110.724Y-135.405
X110.724Y-137.185
X123.324Y-124.725
X123.324Y-126.505
X123.324Y-128.285
X123.324Y-130.065
X123.324Y-131.845
X123.324Y-133.625
X123.324Y-135.405
X123.324Y-137.185
T5
X33.565Y-44.405
X34.42Y-126.275
X34.42Y-128.775
X34.42Y-131.275
X34.42Y-133.775
X34.42Y-136.275
X36.065Y-44.405
X38.565Y-44.405
X41.065Y-44.405
X43.565Y-44.405
X50.565Y-44.405
X53.065Y-44.405
X55.565Y-44.405
X58.065Y-44.405
X60.565Y-44.405
X68.165Y-44.405
X69.644Y-126.275
X69.644Y-128.775
X69.644Y-131.275
X69.644Y-133.775
X69.644Y-136.275
X70.665Y-44.405
X73.165Y-44.405
X75.665Y-44.405
X78.165Y-44.405
X94.335Y-48.195
X94.335Y-50.695
X94.335Y-53.195
X94.335Y-55.695
X94.335Y-58.195
X106.044Y-126.175
X106.044Y-128.675
X106.044Y-131.175
X106.044Y-133.675
X106.044Y-136.175
T6
X33.615Y-80.255
X33.615Y-82.795
X33.615Y-85.335
X37.845Y-76.095
X37.865Y-50.705
X40.385Y-76.095
X40.405Y-50.705
X42.916Y-115.466
X42.925Y-76.095
X42.945Y-50.705
X44.627Y-81.587
X44.627Y-84.127
X44.627Y-86.667
X45.416Y-115.466
X45.465Y-76.095
X45.485Y-50.705
X48.005Y-76.095
X48.025Y-50.705
X50.545Y-76.095
X50.565Y-50.705
X52.247Y-81.587
X52.247Y-84.127
X52.247Y-86.667
X53.085Y-76.095
X53.105Y-50.705
X55.625Y-76.095
X55.645Y-50.705
X58.165Y-76.095
X58.185Y-50.705
X60.705Y-76.095
X60.725Y-50.705
X63.245Y-76.095
X63.265Y-50.705
X65.785Y-76.095
X65.805Y-50.705
X68.325Y-76.095
X68.345Y-50.705
X70.865Y-76.095
X70.885Y-50.705
X73.405Y-76.095
X73.425Y-50.705
X78.14Y-115.466
X80.64Y-115.466
X86.435Y-43.195
X86.605Y-73.005
X86.605Y-85.63
X88.065Y-91.405
X88.975Y-43.195
X89.145Y-73.005
X89.145Y-85.63
X90.565Y-91.405
X91.515Y-43.195
X91.685Y-73.005
X91.685Y-85.63
X93.955Y-65.135
X93.955Y-67.635
X94.055Y-43.195
X94.225Y-73.005
X94.225Y-85.63
X96.595Y-43.195
X96.765Y-73.005
X96.765Y-85.63
X99.135Y-43.195
X99.305Y-73.005
X99.305Y-85.63
X100.565Y-92.305
X101.675Y-43.195
X101.845Y-73.005
X101.845Y-85.63
X103.065Y-92.305
X104.215Y-43.195
X104.385Y-73.005
X104.385Y-85.63
X114.54Y-115.366
X117.04Y-115.366
T7
X65.465Y-85.855
X65.465Y-88.395
X65.465Y-90.935
M30
