%TF.GenerationSoftware,KiCad,Pcbnew,7.0.10*%
%TF.CreationDate,2024-01-17T23:18:36-03:00*%
%TF.ProjectId,ligeirinho,6c696765-6972-4696-9e68-6f2e6b696361,rev?*%
%TF.SameCoordinates,Original*%
%TF.FileFunction,Drillmap*%
%TF.FilePolarity,Positive*%
%FSLAX45Y45*%
G04 Gerber Fmt 4.5, Leading zero omitted, Abs format (unit mm)*
G04 Created by KiCad (PCBNEW 7.0.10) date 2024-01-17 23:18:36*
%MOMM*%
%LPD*%
G01*
G04 APERTURE LIST*
%ADD10C,0.100000*%
%ADD11C,0.050000*%
%ADD12C,0.200000*%
%ADD13C,0.150000*%
%ADD14C,0.110000*%
G04 APERTURE END LIST*
D10*
X9239000Y-11278500D02*
G75*
G03*
X8839000Y-11278500I-200000J0D01*
G01*
X8839000Y-11278500D02*
G75*
G03*
X9239000Y-11278500I200000J0D01*
G01*
X7039000Y-11278500D02*
G75*
G03*
X6639000Y-11278500I-200000J0D01*
G01*
X6639000Y-11278500D02*
G75*
G03*
X7039000Y-11278500I200000J0D01*
G01*
X9239000Y-13678500D02*
G75*
G03*
X8839000Y-13678500I-200000J0D01*
G01*
X8839000Y-13678500D02*
G75*
G03*
X9239000Y-13678500I200000J0D01*
G01*
X12879000Y-11268500D02*
G75*
G03*
X12479000Y-11268500I-200000J0D01*
G01*
X12479000Y-11268500D02*
G75*
G03*
X12879000Y-11268500I200000J0D01*
G01*
X10679000Y-11268500D02*
G75*
G03*
X10279000Y-11268500I-200000J0D01*
G01*
X10279000Y-11268500D02*
G75*
G03*
X10679000Y-11268500I200000J0D01*
G01*
X12879000Y-13668500D02*
G75*
G03*
X12479000Y-13668500I-200000J0D01*
G01*
X12479000Y-13668500D02*
G75*
G03*
X12879000Y-13668500I200000J0D01*
G01*
D11*
X3000000Y-4000000D02*
X13000000Y-4000000D01*
X13000000Y-14000000D01*
X3000000Y-14000000D01*
X3000000Y-4000000D01*
D10*
X3516600Y-11278500D02*
G75*
G03*
X3116600Y-11278500I-200000J0D01*
G01*
X3116600Y-11278500D02*
G75*
G03*
X3516600Y-11278500I200000J0D01*
G01*
X5716600Y-13678500D02*
G75*
G03*
X5316600Y-13678500I-200000J0D01*
G01*
X5316600Y-13678500D02*
G75*
G03*
X5716600Y-13678500I200000J0D01*
G01*
X5716600Y-11278500D02*
G75*
G03*
X5316600Y-11278500I-200000J0D01*
G01*
X5316600Y-11278500D02*
G75*
G03*
X5716600Y-11278500I200000J0D01*
G01*
D12*
X3679500Y-6765500D02*
G75*
G03*
X3279500Y-6765500I-200000J0D01*
G01*
X3279500Y-6765500D02*
G75*
G03*
X3679500Y-6765500I200000J0D01*
G01*
X10466500Y-5352500D02*
G75*
G03*
X10066500Y-5352500I-200000J0D01*
G01*
X10066500Y-5352500D02*
G75*
G03*
X10466500Y-5352500I200000J0D01*
G01*
X10466500Y-8130500D02*
G75*
G03*
X10066500Y-8130500I-200000J0D01*
G01*
X10066500Y-8130500D02*
G75*
G03*
X10466500Y-8130500I200000J0D01*
G01*
D13*
X7602400Y-12432500D02*
X8522400Y-12432500D01*
X7602400Y-13778500D02*
X7602400Y-12432500D01*
X8522400Y-12432500D02*
X8522400Y-13778500D01*
X8522400Y-13778500D02*
X7602400Y-13778500D01*
X11242400Y-12422500D02*
X12162400Y-12422500D01*
X11242400Y-13768500D02*
X11242400Y-12422500D01*
X12162400Y-12422500D02*
X12162400Y-13768500D01*
X12162400Y-13768500D02*
X11242400Y-13768500D01*
X4080000Y-12432500D02*
X5000000Y-12432500D01*
X4080000Y-13778500D02*
X4080000Y-12432500D01*
X5000000Y-12432500D02*
X5000000Y-13778500D01*
X5000000Y-13778500D02*
X4080000Y-13778500D01*
D12*
D10*
X3196500Y-9030500D02*
X3226500Y-9060500D01*
X3226500Y-9030500D02*
X3196500Y-9060500D01*
X3201500Y-9350500D02*
X3231500Y-9380500D01*
X3231500Y-9350500D02*
X3201500Y-9380500D01*
X3205500Y-5341500D02*
X3235500Y-5371500D01*
X3235500Y-5341500D02*
X3205500Y-5371500D01*
X3205500Y-5468500D02*
X3235500Y-5498500D01*
X3235500Y-5468500D02*
X3205500Y-5498500D01*
X3205500Y-5613500D02*
X3235500Y-5643500D01*
X3235500Y-5613500D02*
X3205500Y-5643500D01*
X3205500Y-5744500D02*
X3235500Y-5774500D01*
X3235500Y-5744500D02*
X3205500Y-5774500D01*
X3471500Y-9025500D02*
X3501500Y-9055500D01*
X3501500Y-9025500D02*
X3471500Y-9055500D01*
X3476500Y-9350500D02*
X3506500Y-9380500D01*
X3506500Y-9350500D02*
X3476500Y-9380500D01*
X3715500Y-4621500D02*
X3745500Y-4651500D01*
X3745500Y-4621500D02*
X3715500Y-4651500D01*
X3796500Y-9030500D02*
X3826500Y-9060500D01*
X3826500Y-9030500D02*
X3796500Y-9060500D01*
X3821500Y-9340500D02*
X3851500Y-9370500D01*
X3851500Y-9340500D02*
X3821500Y-9370500D01*
X3898500Y-5241500D02*
X3928500Y-5271500D01*
X3928500Y-5241500D02*
X3898500Y-5271500D01*
X4101500Y-9335500D02*
X4131500Y-9365500D01*
X4131500Y-9335500D02*
X4101500Y-9365500D01*
X4121500Y-9035500D02*
X4151500Y-9065500D01*
X4151500Y-9035500D02*
X4121500Y-9065500D01*
X4146500Y-4885500D02*
X4176500Y-4915500D01*
X4176500Y-4885500D02*
X4146500Y-4915500D01*
X4175500Y-5236500D02*
X4205500Y-5266500D01*
X4205500Y-5236500D02*
X4175500Y-5266500D01*
X4231500Y-5855500D02*
X4261500Y-5885500D01*
X4261500Y-5855500D02*
X4231500Y-5885500D01*
X4389500Y-5855500D02*
X4419500Y-5885500D01*
X4419500Y-5855500D02*
X4389500Y-5885500D01*
X4514500Y-4636500D02*
X4544500Y-4666500D01*
X4544500Y-4636500D02*
X4514500Y-4666500D01*
X4552500Y-5855500D02*
X4582500Y-5885500D01*
X4582500Y-5855500D02*
X4552500Y-5885500D01*
X4666500Y-4890500D02*
X4696500Y-4920500D01*
X4696500Y-4890500D02*
X4666500Y-4920500D01*
X4865500Y-4247500D02*
X4895500Y-4277500D01*
X4895500Y-4247500D02*
X4865500Y-4277500D01*
X5171500Y-4875500D02*
X5201500Y-4905500D01*
X5201500Y-4875500D02*
X5171500Y-4905500D01*
X5372500Y-5271500D02*
X5402500Y-5301500D01*
X5402500Y-5271500D02*
X5372500Y-5301500D01*
X5379500Y-7371500D02*
X5409500Y-7401500D01*
X5409500Y-7371500D02*
X5379500Y-7401500D01*
X5381500Y-9005500D02*
X5411500Y-9035500D01*
X5411500Y-9005500D02*
X5381500Y-9035500D01*
X5385500Y-9335500D02*
X5415500Y-9365500D01*
X5415500Y-9335500D02*
X5385500Y-9365500D01*
X5520500Y-5413500D02*
X5550500Y-5443500D01*
X5550500Y-5413500D02*
X5520500Y-5443500D01*
X5564357Y-9335500D02*
X5594357Y-9365500D01*
X5594357Y-9335500D02*
X5564357Y-9365500D01*
X5571500Y-9010500D02*
X5601500Y-9040500D01*
X5601500Y-9010500D02*
X5571500Y-9040500D01*
X5649500Y-7365500D02*
X5679500Y-7395500D01*
X5679500Y-7365500D02*
X5649500Y-7395500D01*
X5767500Y-6945500D02*
X5797500Y-6975500D01*
X5797500Y-6945500D02*
X5767500Y-6975500D01*
X5826500Y-9010500D02*
X5856500Y-9040500D01*
X5856500Y-9010500D02*
X5826500Y-9040500D01*
X5832642Y-9335500D02*
X5862642Y-9365500D01*
X5862642Y-9335500D02*
X5832642Y-9365500D01*
X5906500Y-7365500D02*
X5936500Y-7395500D01*
X5936500Y-7365500D02*
X5906500Y-7395500D01*
X5924500Y-6945500D02*
X5954500Y-6975500D01*
X5954500Y-6945500D02*
X5924500Y-6975500D01*
X5961500Y-4795500D02*
X5991500Y-4825500D01*
X5991500Y-4795500D02*
X5961500Y-4825500D01*
X5991500Y-9005500D02*
X6021500Y-9035500D01*
X6021500Y-9005500D02*
X5991500Y-9035500D01*
X6011500Y-9335500D02*
X6041500Y-9365500D01*
X6041500Y-9335500D02*
X6011500Y-9365500D01*
X6036500Y-5233500D02*
X6066500Y-5263500D01*
X6066500Y-5233500D02*
X6036500Y-5263500D01*
X6115500Y-6945500D02*
X6145500Y-6975500D01*
X6145500Y-6945500D02*
X6115500Y-6975500D01*
X6171500Y-5229500D02*
X6201500Y-5259500D01*
X6201500Y-5229500D02*
X6171500Y-5259500D01*
X6176500Y-5463500D02*
X6206500Y-5493500D01*
X6206500Y-5463500D02*
X6176500Y-5493500D01*
X6237500Y-4804500D02*
X6267500Y-4834500D01*
X6267500Y-4804500D02*
X6237500Y-4834500D01*
X6260500Y-6945500D02*
X6290500Y-6975500D01*
X6290500Y-6945500D02*
X6260500Y-6975500D01*
X6329500Y-5229500D02*
X6359500Y-5259500D01*
X6359500Y-5229500D02*
X6329500Y-5259500D01*
X6342500Y-5463500D02*
X6372500Y-5493500D01*
X6372500Y-5463500D02*
X6342500Y-5493500D01*
X6367500Y-5664500D02*
X6397500Y-5694500D01*
X6397500Y-5664500D02*
X6367500Y-5694500D01*
X6447500Y-4250500D02*
X6477500Y-4280500D01*
X6477500Y-4250500D02*
X6447500Y-4280500D01*
X6492500Y-5229500D02*
X6522500Y-5259500D01*
X6522500Y-5229500D02*
X6492500Y-5259500D01*
X6591500Y-8110500D02*
X6621500Y-8140500D01*
X6621500Y-8110500D02*
X6591500Y-8140500D01*
X6731500Y-8110500D02*
X6761500Y-8140500D01*
X6761500Y-8110500D02*
X6731500Y-8140500D01*
X6786500Y-8390500D02*
X6816500Y-8420500D01*
X6816500Y-8390500D02*
X6786500Y-8420500D01*
X6861500Y-8110500D02*
X6891500Y-8140500D01*
X6891500Y-8110500D02*
X6861500Y-8140500D01*
X6928500Y-4804500D02*
X6958500Y-4834500D01*
X6958500Y-4804500D02*
X6928500Y-4834500D01*
X6986500Y-6945500D02*
X7016500Y-6975500D01*
X7016500Y-6945500D02*
X6986500Y-6975500D01*
X7109500Y-6945500D02*
X7139500Y-6975500D01*
X7139500Y-6945500D02*
X7109500Y-6975500D01*
X7241500Y-6945500D02*
X7271500Y-6975500D01*
X7271500Y-6945500D02*
X7241500Y-6975500D01*
X7362500Y-4236500D02*
X7392500Y-4266500D01*
X7392500Y-4236500D02*
X7362500Y-4266500D01*
X7380500Y-6945500D02*
X7410500Y-6975500D01*
X7410500Y-6945500D02*
X7380500Y-6975500D01*
X7641500Y-4905500D02*
X7671500Y-4935500D01*
X7671500Y-4905500D02*
X7641500Y-4935500D01*
X7678500Y-4236500D02*
X7708500Y-4266500D01*
X7708500Y-4236500D02*
X7678500Y-4266500D01*
X7756500Y-9115500D02*
X7786500Y-9145500D01*
X7786500Y-9115500D02*
X7756500Y-9145500D01*
X8071500Y-8715500D02*
X8101500Y-8745500D01*
X8101500Y-8715500D02*
X8071500Y-8745500D01*
X8253500Y-4262500D02*
X8283500Y-4292500D01*
X8283500Y-4262500D02*
X8253500Y-4292500D01*
X8301500Y-7970500D02*
X8331500Y-8000500D01*
X8331500Y-7970500D02*
X8301500Y-8000500D01*
X8759500Y-7555500D02*
X8789500Y-7585500D01*
X8789500Y-7555500D02*
X8759500Y-7585500D01*
X9037500Y-7555500D02*
X9067500Y-7585500D01*
X9067500Y-7555500D02*
X9037500Y-7585500D01*
X9060500Y-8928500D02*
X9090500Y-8958500D01*
X9090500Y-8928500D02*
X9060500Y-8958500D01*
X9135500Y-7555500D02*
X9165500Y-7585500D01*
X9165500Y-7555500D02*
X9135500Y-7585500D01*
X9233500Y-7555500D02*
X9263500Y-7585500D01*
X9263500Y-7555500D02*
X9233500Y-7585500D01*
X9235500Y-4817500D02*
X9265500Y-4847500D01*
X9265500Y-4817500D02*
X9235500Y-4847500D01*
X9235500Y-4921500D02*
X9265500Y-4951500D01*
X9265500Y-4921500D02*
X9235500Y-4951500D01*
X9235500Y-5043500D02*
X9265500Y-5073500D01*
X9265500Y-5043500D02*
X9235500Y-5073500D01*
X9235500Y-5159500D02*
X9265500Y-5189500D01*
X9265500Y-5159500D02*
X9235500Y-5189500D01*
X9247500Y-5462500D02*
X9277500Y-5492500D01*
X9277500Y-5462500D02*
X9247500Y-5492500D01*
X9252500Y-5688500D02*
X9282500Y-5718500D01*
X9282500Y-5688500D02*
X9252500Y-5718500D01*
X9529500Y-7555500D02*
X9559500Y-7585500D01*
X9559500Y-7555500D02*
X9529500Y-7585500D01*
X9536500Y-9005500D02*
X9566500Y-9035500D01*
X9566500Y-9005500D02*
X9536500Y-9035500D01*
X9541500Y-9210500D02*
X9571500Y-9240500D01*
X9571500Y-9210500D02*
X9541500Y-9240500D01*
X9551500Y-9405500D02*
X9581500Y-9435500D01*
X9581500Y-9405500D02*
X9551500Y-9435500D01*
X9613500Y-8347500D02*
X9643500Y-8377500D01*
X9643500Y-8347500D02*
X9613500Y-8377500D01*
X9621500Y-5278500D02*
X9651500Y-5308500D01*
X9651500Y-5278500D02*
X9621500Y-5308500D01*
X9621500Y-5391500D02*
X9651500Y-5421500D01*
X9651500Y-5391500D02*
X9621500Y-5421500D01*
X9621500Y-5486500D02*
X9651500Y-5516500D01*
X9651500Y-5486500D02*
X9621500Y-5516500D01*
X9621500Y-5590500D02*
X9651500Y-5620500D01*
X9651500Y-5590500D02*
X9621500Y-5620500D01*
X9711500Y-8347500D02*
X9741500Y-8377500D01*
X9741500Y-8347500D02*
X9711500Y-8377500D01*
X9809500Y-8347500D02*
X9839500Y-8377500D01*
X9839500Y-8347500D02*
X9809500Y-8377500D01*
X10103500Y-8766500D02*
X10133500Y-8796500D01*
X10133500Y-8766500D02*
X10103500Y-8796500D01*
X10212500Y-9013500D02*
X10242500Y-9043500D01*
X10242500Y-9013500D02*
X10212500Y-9043500D01*
X10214500Y-5646500D02*
X10244500Y-5676500D01*
X10244500Y-5646500D02*
X10214500Y-5676500D01*
X10214500Y-5759500D02*
X10244500Y-5789500D01*
X10244500Y-5759500D02*
X10214500Y-5789500D01*
X10214500Y-5854500D02*
X10244500Y-5884500D01*
X10244500Y-5854500D02*
X10214500Y-5884500D01*
X10214500Y-5958500D02*
X10244500Y-5988500D01*
X10244500Y-5958500D02*
X10214500Y-5988500D01*
X3272600Y-11577500D02*
G75*
G03*
X3232600Y-11577500I-20000J0D01*
G01*
X3232600Y-11577500D02*
G75*
G03*
X3272600Y-11577500I20000J0D01*
G01*
X3272600Y-11786500D02*
G75*
G03*
X3232600Y-11786500I-20000J0D01*
G01*
X3232600Y-11786500D02*
G75*
G03*
X3272600Y-11786500I20000J0D01*
G01*
X3272600Y-11978500D02*
G75*
G03*
X3232600Y-11978500I-20000J0D01*
G01*
X3232600Y-11978500D02*
G75*
G03*
X3272600Y-11978500I20000J0D01*
G01*
X3272600Y-12640500D02*
G75*
G03*
X3232600Y-12640500I-20000J0D01*
G01*
X3232600Y-12640500D02*
G75*
G03*
X3272600Y-12640500I20000J0D01*
G01*
X3272600Y-12863500D02*
G75*
G03*
X3232600Y-12863500I-20000J0D01*
G01*
X3232600Y-12863500D02*
G75*
G03*
X3272600Y-12863500I20000J0D01*
G01*
X3272600Y-13127500D02*
G75*
G03*
X3232600Y-13127500I-20000J0D01*
G01*
X3232600Y-13127500D02*
G75*
G03*
X3272600Y-13127500I20000J0D01*
G01*
X3272600Y-13379500D02*
G75*
G03*
X3232600Y-13379500I-20000J0D01*
G01*
X3232600Y-13379500D02*
G75*
G03*
X3272600Y-13379500I20000J0D01*
G01*
X3272600Y-13625500D02*
G75*
G03*
X3232600Y-13625500I-20000J0D01*
G01*
X3232600Y-13625500D02*
G75*
G03*
X3272600Y-13625500I20000J0D01*
G01*
X3988000Y-12221950D02*
G75*
G03*
X3948000Y-12221950I-20000J0D01*
G01*
X3948000Y-12221950D02*
G75*
G03*
X3988000Y-12221950I20000J0D01*
G01*
X4816600Y-11946500D02*
G75*
G03*
X4776600Y-11946500I-20000J0D01*
G01*
X4776600Y-11946500D02*
G75*
G03*
X4816600Y-11946500I20000J0D01*
G01*
X5001600Y-11946500D02*
G75*
G03*
X4961600Y-11946500I-20000J0D01*
G01*
X4961600Y-11946500D02*
G75*
G03*
X5001600Y-11946500I20000J0D01*
G01*
X5176600Y-11949500D02*
G75*
G03*
X5136600Y-11949500I-20000J0D01*
G01*
X5136600Y-11949500D02*
G75*
G03*
X5176600Y-11949500I20000J0D01*
G01*
X5428500Y-13194200D02*
G75*
G03*
X5388500Y-13194200I-20000J0D01*
G01*
X5388500Y-13194200D02*
G75*
G03*
X5428500Y-13194200I20000J0D01*
G01*
X5747600Y-11594500D02*
G75*
G03*
X5707600Y-11594500I-20000J0D01*
G01*
X5707600Y-11594500D02*
G75*
G03*
X5747600Y-11594500I20000J0D01*
G01*
X5747600Y-11803500D02*
G75*
G03*
X5707600Y-11803500I-20000J0D01*
G01*
X5707600Y-11803500D02*
G75*
G03*
X5747600Y-11803500I20000J0D01*
G01*
X5747600Y-11995500D02*
G75*
G03*
X5707600Y-11995500I-20000J0D01*
G01*
X5707600Y-11995500D02*
G75*
G03*
X5747600Y-11995500I20000J0D01*
G01*
X6795000Y-11577500D02*
G75*
G03*
X6755000Y-11577500I-20000J0D01*
G01*
X6755000Y-11577500D02*
G75*
G03*
X6795000Y-11577500I20000J0D01*
G01*
X6795000Y-11786500D02*
G75*
G03*
X6755000Y-11786500I-20000J0D01*
G01*
X6755000Y-11786500D02*
G75*
G03*
X6795000Y-11786500I20000J0D01*
G01*
X6795000Y-11978500D02*
G75*
G03*
X6755000Y-11978500I-20000J0D01*
G01*
X6755000Y-11978500D02*
G75*
G03*
X6795000Y-11978500I20000J0D01*
G01*
X6795000Y-12640500D02*
G75*
G03*
X6755000Y-12640500I-20000J0D01*
G01*
X6755000Y-12640500D02*
G75*
G03*
X6795000Y-12640500I20000J0D01*
G01*
X6795000Y-12863500D02*
G75*
G03*
X6755000Y-12863500I-20000J0D01*
G01*
X6755000Y-12863500D02*
G75*
G03*
X6795000Y-12863500I20000J0D01*
G01*
X6795000Y-13127500D02*
G75*
G03*
X6755000Y-13127500I-20000J0D01*
G01*
X6755000Y-13127500D02*
G75*
G03*
X6795000Y-13127500I20000J0D01*
G01*
X6795000Y-13379500D02*
G75*
G03*
X6755000Y-13379500I-20000J0D01*
G01*
X6755000Y-13379500D02*
G75*
G03*
X6795000Y-13379500I20000J0D01*
G01*
X6795000Y-13625500D02*
G75*
G03*
X6755000Y-13625500I-20000J0D01*
G01*
X6755000Y-13625500D02*
G75*
G03*
X6795000Y-13625500I20000J0D01*
G01*
X7510400Y-12221950D02*
G75*
G03*
X7470400Y-12221950I-20000J0D01*
G01*
X7470400Y-12221950D02*
G75*
G03*
X7510400Y-12221950I20000J0D01*
G01*
X8339000Y-11946500D02*
G75*
G03*
X8299000Y-11946500I-20000J0D01*
G01*
X8299000Y-11946500D02*
G75*
G03*
X8339000Y-11946500I20000J0D01*
G01*
X8524000Y-11946500D02*
G75*
G03*
X8484000Y-11946500I-20000J0D01*
G01*
X8484000Y-11946500D02*
G75*
G03*
X8524000Y-11946500I20000J0D01*
G01*
X8699000Y-11949500D02*
G75*
G03*
X8659000Y-11949500I-20000J0D01*
G01*
X8659000Y-11949500D02*
G75*
G03*
X8699000Y-11949500I20000J0D01*
G01*
X8950900Y-13194200D02*
G75*
G03*
X8910900Y-13194200I-20000J0D01*
G01*
X8910900Y-13194200D02*
G75*
G03*
X8950900Y-13194200I20000J0D01*
G01*
X9270000Y-11594500D02*
G75*
G03*
X9230000Y-11594500I-20000J0D01*
G01*
X9230000Y-11594500D02*
G75*
G03*
X9270000Y-11594500I20000J0D01*
G01*
X9270000Y-11803500D02*
G75*
G03*
X9230000Y-11803500I-20000J0D01*
G01*
X9230000Y-11803500D02*
G75*
G03*
X9270000Y-11803500I20000J0D01*
G01*
X9270000Y-11995500D02*
G75*
G03*
X9230000Y-11995500I-20000J0D01*
G01*
X9230000Y-11995500D02*
G75*
G03*
X9270000Y-11995500I20000J0D01*
G01*
X10435000Y-11567500D02*
G75*
G03*
X10395000Y-11567500I-20000J0D01*
G01*
X10395000Y-11567500D02*
G75*
G03*
X10435000Y-11567500I20000J0D01*
G01*
X10435000Y-11776500D02*
G75*
G03*
X10395000Y-11776500I-20000J0D01*
G01*
X10395000Y-11776500D02*
G75*
G03*
X10435000Y-11776500I20000J0D01*
G01*
X10435000Y-11968500D02*
G75*
G03*
X10395000Y-11968500I-20000J0D01*
G01*
X10395000Y-11968500D02*
G75*
G03*
X10435000Y-11968500I20000J0D01*
G01*
X10435000Y-12630500D02*
G75*
G03*
X10395000Y-12630500I-20000J0D01*
G01*
X10395000Y-12630500D02*
G75*
G03*
X10435000Y-12630500I20000J0D01*
G01*
X10435000Y-12853500D02*
G75*
G03*
X10395000Y-12853500I-20000J0D01*
G01*
X10395000Y-12853500D02*
G75*
G03*
X10435000Y-12853500I20000J0D01*
G01*
X10435000Y-13117500D02*
G75*
G03*
X10395000Y-13117500I-20000J0D01*
G01*
X10395000Y-13117500D02*
G75*
G03*
X10435000Y-13117500I20000J0D01*
G01*
X10435000Y-13369500D02*
G75*
G03*
X10395000Y-13369500I-20000J0D01*
G01*
X10395000Y-13369500D02*
G75*
G03*
X10435000Y-13369500I20000J0D01*
G01*
X10435000Y-13615500D02*
G75*
G03*
X10395000Y-13615500I-20000J0D01*
G01*
X10395000Y-13615500D02*
G75*
G03*
X10435000Y-13615500I20000J0D01*
G01*
X11150400Y-12211950D02*
G75*
G03*
X11110400Y-12211950I-20000J0D01*
G01*
X11110400Y-12211950D02*
G75*
G03*
X11150400Y-12211950I20000J0D01*
G01*
X11979000Y-11936500D02*
G75*
G03*
X11939000Y-11936500I-20000J0D01*
G01*
X11939000Y-11936500D02*
G75*
G03*
X11979000Y-11936500I20000J0D01*
G01*
X12164000Y-11936500D02*
G75*
G03*
X12124000Y-11936500I-20000J0D01*
G01*
X12124000Y-11936500D02*
G75*
G03*
X12164000Y-11936500I20000J0D01*
G01*
X12339000Y-11939500D02*
G75*
G03*
X12299000Y-11939500I-20000J0D01*
G01*
X12299000Y-11939500D02*
G75*
G03*
X12339000Y-11939500I20000J0D01*
G01*
X12590900Y-13184200D02*
G75*
G03*
X12550900Y-13184200I-20000J0D01*
G01*
X12550900Y-13184200D02*
G75*
G03*
X12590900Y-13184200I20000J0D01*
G01*
X12910000Y-11584500D02*
G75*
G03*
X12870000Y-11584500I-20000J0D01*
G01*
X12870000Y-11584500D02*
G75*
G03*
X12910000Y-11584500I20000J0D01*
G01*
X12910000Y-11793500D02*
G75*
G03*
X12870000Y-11793500I-20000J0D01*
G01*
X12870000Y-11793500D02*
G75*
G03*
X12910000Y-11793500I20000J0D01*
G01*
X12910000Y-11985500D02*
G75*
G03*
X12870000Y-11985500I-20000J0D01*
G01*
X12870000Y-11985500D02*
G75*
G03*
X12910000Y-11985500I20000J0D01*
G01*
X4756500Y-9168000D02*
X4756500Y-9243000D01*
X4719000Y-9205500D02*
X4794000Y-9205500D01*
X4956500Y-9168000D02*
X4956500Y-9243000D01*
X4919000Y-9205500D02*
X4994000Y-9205500D01*
X3938284Y-12510784D02*
X3938284Y-12454215D01*
X3881715Y-12454215D01*
X3881715Y-12510784D01*
X3938284Y-12510784D01*
X3938284Y-12688784D02*
X3938284Y-12632215D01*
X3881715Y-12632215D01*
X3881715Y-12688784D01*
X3938284Y-12688784D01*
X3938284Y-12866784D02*
X3938284Y-12810215D01*
X3881715Y-12810215D01*
X3881715Y-12866784D01*
X3938284Y-12866784D01*
X3938284Y-13044784D02*
X3938284Y-12988215D01*
X3881715Y-12988215D01*
X3881715Y-13044784D01*
X3938284Y-13044784D01*
X3938284Y-13222784D02*
X3938284Y-13166215D01*
X3881715Y-13166215D01*
X3881715Y-13222784D01*
X3938284Y-13222784D01*
X3938284Y-13400784D02*
X3938284Y-13344215D01*
X3881715Y-13344215D01*
X3881715Y-13400784D01*
X3938284Y-13400784D01*
X3938284Y-13578784D02*
X3938284Y-13522215D01*
X3881715Y-13522215D01*
X3881715Y-13578784D01*
X3938284Y-13578784D01*
X3938284Y-13756784D02*
X3938284Y-13700215D01*
X3881715Y-13700215D01*
X3881715Y-13756784D01*
X3938284Y-13756784D01*
X4064784Y-5610784D02*
X4064784Y-5554216D01*
X4008215Y-5554216D01*
X4008215Y-5610784D01*
X4064784Y-5610784D01*
X4064784Y-6626784D02*
X4064784Y-6570215D01*
X4008215Y-6570215D01*
X4008215Y-6626784D01*
X4064784Y-6626784D01*
X4824785Y-5600784D02*
X4824785Y-5544216D01*
X4768216Y-5544216D01*
X4768216Y-5600784D01*
X4824785Y-5600784D01*
X4824785Y-6616784D02*
X4824785Y-6560215D01*
X4768216Y-6560215D01*
X4768216Y-6616784D01*
X4824785Y-6616784D01*
X5198285Y-12510784D02*
X5198285Y-12454215D01*
X5141716Y-12454215D01*
X5141716Y-12510784D01*
X5198285Y-12510784D01*
X5198285Y-12688784D02*
X5198285Y-12632215D01*
X5141716Y-12632215D01*
X5141716Y-12688784D01*
X5198285Y-12688784D01*
X5198285Y-12866784D02*
X5198285Y-12810215D01*
X5141716Y-12810215D01*
X5141716Y-12866784D01*
X5198285Y-12866784D01*
X5198285Y-13044784D02*
X5198285Y-12988215D01*
X5141716Y-12988215D01*
X5141716Y-13044784D01*
X5198285Y-13044784D01*
X5198285Y-13222784D02*
X5198285Y-13166215D01*
X5141716Y-13166215D01*
X5141716Y-13222784D01*
X5198285Y-13222784D01*
X5198285Y-13400784D02*
X5198285Y-13344215D01*
X5141716Y-13344215D01*
X5141716Y-13400784D01*
X5198285Y-13400784D01*
X5198285Y-13578784D02*
X5198285Y-13522215D01*
X5141716Y-13522215D01*
X5141716Y-13578784D01*
X5198285Y-13578784D01*
X5198285Y-13756784D02*
X5198285Y-13700215D01*
X5141716Y-13700215D01*
X5141716Y-13756784D01*
X5198285Y-13756784D01*
X5834784Y-8278784D02*
X5834784Y-8222215D01*
X5778215Y-8222215D01*
X5778215Y-8278784D01*
X5834784Y-8278784D01*
X5834784Y-8528785D02*
X5834784Y-8472216D01*
X5778215Y-8472216D01*
X5778215Y-8528785D01*
X5834784Y-8528785D01*
X7294784Y-8995547D02*
X7294784Y-8938978D01*
X7238215Y-8938978D01*
X7238215Y-8995547D01*
X7294784Y-8995547D01*
X7294784Y-9245547D02*
X7294784Y-9188978D01*
X7238215Y-9188978D01*
X7238215Y-9245547D01*
X7294784Y-9245547D01*
X7460684Y-12510784D02*
X7460684Y-12454215D01*
X7404115Y-12454215D01*
X7404115Y-12510784D01*
X7460684Y-12510784D01*
X7460684Y-12688784D02*
X7460684Y-12632215D01*
X7404115Y-12632215D01*
X7404115Y-12688784D01*
X7460684Y-12688784D01*
X7460684Y-12866784D02*
X7460684Y-12810215D01*
X7404115Y-12810215D01*
X7404115Y-12866784D01*
X7460684Y-12866784D01*
X7460684Y-13044784D02*
X7460684Y-12988215D01*
X7404115Y-12988215D01*
X7404115Y-13044784D01*
X7460684Y-13044784D01*
X7460684Y-13222784D02*
X7460684Y-13166215D01*
X7404115Y-13166215D01*
X7404115Y-13222784D01*
X7460684Y-13222784D01*
X7460684Y-13400784D02*
X7460684Y-13344215D01*
X7404115Y-13344215D01*
X7404115Y-13400784D01*
X7460684Y-13400784D01*
X7460684Y-13578784D02*
X7460684Y-13522215D01*
X7404115Y-13522215D01*
X7404115Y-13578784D01*
X7460684Y-13578784D01*
X7460684Y-13756784D02*
X7460684Y-13700215D01*
X7404115Y-13700215D01*
X7404115Y-13756784D01*
X7460684Y-13756784D01*
X8720685Y-12510784D02*
X8720685Y-12454215D01*
X8664116Y-12454215D01*
X8664116Y-12510784D01*
X8720685Y-12510784D01*
X8720685Y-12688784D02*
X8720685Y-12632215D01*
X8664116Y-12632215D01*
X8664116Y-12688784D01*
X8720685Y-12688784D01*
X8720685Y-12866784D02*
X8720685Y-12810215D01*
X8664116Y-12810215D01*
X8664116Y-12866784D01*
X8720685Y-12866784D01*
X8720685Y-13044784D02*
X8720685Y-12988215D01*
X8664116Y-12988215D01*
X8664116Y-13044784D01*
X8720685Y-13044784D01*
X8720685Y-13222784D02*
X8720685Y-13166215D01*
X8664116Y-13166215D01*
X8664116Y-13222784D01*
X8720685Y-13222784D01*
X8720685Y-13400784D02*
X8720685Y-13344215D01*
X8664116Y-13344215D01*
X8664116Y-13400784D01*
X8720685Y-13400784D01*
X8720685Y-13578784D02*
X8720685Y-13522215D01*
X8664116Y-13522215D01*
X8664116Y-13578784D01*
X8720685Y-13578784D01*
X8720685Y-13756784D02*
X8720685Y-13700215D01*
X8664116Y-13700215D01*
X8664116Y-13756784D01*
X8720685Y-13756784D01*
X11100685Y-12500784D02*
X11100685Y-12444215D01*
X11044116Y-12444215D01*
X11044116Y-12500784D01*
X11100685Y-12500784D01*
X11100685Y-12678784D02*
X11100685Y-12622215D01*
X11044116Y-12622215D01*
X11044116Y-12678784D01*
X11100685Y-12678784D01*
X11100685Y-12856784D02*
X11100685Y-12800215D01*
X11044116Y-12800215D01*
X11044116Y-12856784D01*
X11100685Y-12856784D01*
X11100685Y-13034784D02*
X11100685Y-12978215D01*
X11044116Y-12978215D01*
X11044116Y-13034784D01*
X11100685Y-13034784D01*
X11100685Y-13212784D02*
X11100685Y-13156215D01*
X11044116Y-13156215D01*
X11044116Y-13212784D01*
X11100685Y-13212784D01*
X11100685Y-13390784D02*
X11100685Y-13334215D01*
X11044116Y-13334215D01*
X11044116Y-13390784D01*
X11100685Y-13390784D01*
X11100685Y-13568784D02*
X11100685Y-13512215D01*
X11044116Y-13512215D01*
X11044116Y-13568784D01*
X11100685Y-13568784D01*
X11100685Y-13746784D02*
X11100685Y-13690215D01*
X11044116Y-13690215D01*
X11044116Y-13746784D01*
X11100685Y-13746784D01*
X12360684Y-12500784D02*
X12360684Y-12444215D01*
X12304115Y-12444215D01*
X12304115Y-12500784D01*
X12360684Y-12500784D01*
X12360684Y-12678784D02*
X12360684Y-12622215D01*
X12304115Y-12622215D01*
X12304115Y-12678784D01*
X12360684Y-12678784D01*
X12360684Y-12856784D02*
X12360684Y-12800215D01*
X12304115Y-12800215D01*
X12304115Y-12856784D01*
X12360684Y-12856784D01*
X12360684Y-13034784D02*
X12360684Y-12978215D01*
X12304115Y-12978215D01*
X12304115Y-13034784D01*
X12360684Y-13034784D01*
X12360684Y-13212784D02*
X12360684Y-13156215D01*
X12304115Y-13156215D01*
X12304115Y-13212784D01*
X12360684Y-13212784D01*
X12360684Y-13390784D02*
X12360684Y-13334215D01*
X12304115Y-13334215D01*
X12304115Y-13390784D01*
X12360684Y-13390784D01*
X12360684Y-13568784D02*
X12360684Y-13512215D01*
X12304115Y-13512215D01*
X12304115Y-13568784D01*
X12360684Y-13568784D01*
X12360684Y-13746784D02*
X12360684Y-13690215D01*
X12304115Y-13690215D01*
X12304115Y-13746784D01*
X12360684Y-13746784D01*
X3356500Y-4488000D02*
X3404000Y-4440500D01*
X3356500Y-4393000D01*
X3309000Y-4440500D01*
X3356500Y-4488000D01*
X3442000Y-12675000D02*
X3489500Y-12627500D01*
X3442000Y-12580000D01*
X3394500Y-12627500D01*
X3442000Y-12675000D01*
X3442000Y-12925000D02*
X3489500Y-12877500D01*
X3442000Y-12830000D01*
X3394500Y-12877500D01*
X3442000Y-12925000D01*
X3442000Y-13175000D02*
X3489500Y-13127500D01*
X3442000Y-13080000D01*
X3394500Y-13127500D01*
X3442000Y-13175000D01*
X3442000Y-13425000D02*
X3489500Y-13377500D01*
X3442000Y-13330000D01*
X3394500Y-13377500D01*
X3442000Y-13425000D01*
X3442000Y-13675000D02*
X3489500Y-13627500D01*
X3442000Y-13580000D01*
X3394500Y-13627500D01*
X3442000Y-13675000D01*
X3606500Y-4488000D02*
X3654000Y-4440500D01*
X3606500Y-4393000D01*
X3559000Y-4440500D01*
X3606500Y-4488000D01*
X3856500Y-4488000D02*
X3904000Y-4440500D01*
X3856500Y-4393000D01*
X3809000Y-4440500D01*
X3856500Y-4488000D01*
X4106500Y-4488000D02*
X4154000Y-4440500D01*
X4106500Y-4393000D01*
X4059000Y-4440500D01*
X4106500Y-4488000D01*
X4356500Y-4488000D02*
X4404000Y-4440500D01*
X4356500Y-4393000D01*
X4309000Y-4440500D01*
X4356500Y-4488000D01*
X5056500Y-4488000D02*
X5104000Y-4440500D01*
X5056500Y-4393000D01*
X5009000Y-4440500D01*
X5056500Y-4488000D01*
X5306500Y-4488000D02*
X5354000Y-4440500D01*
X5306500Y-4393000D01*
X5259000Y-4440500D01*
X5306500Y-4488000D01*
X5556500Y-4488000D02*
X5604000Y-4440500D01*
X5556500Y-4393000D01*
X5509000Y-4440500D01*
X5556500Y-4488000D01*
X5806500Y-4488000D02*
X5854000Y-4440500D01*
X5806500Y-4393000D01*
X5759000Y-4440500D01*
X5806500Y-4488000D01*
X6056500Y-4488000D02*
X6104000Y-4440500D01*
X6056500Y-4393000D01*
X6009000Y-4440500D01*
X6056500Y-4488000D01*
X6816500Y-4488000D02*
X6864000Y-4440500D01*
X6816500Y-4393000D01*
X6769000Y-4440500D01*
X6816500Y-4488000D01*
X6964400Y-12675000D02*
X7011900Y-12627500D01*
X6964400Y-12580000D01*
X6916900Y-12627500D01*
X6964400Y-12675000D01*
X6964400Y-12925000D02*
X7011900Y-12877500D01*
X6964400Y-12830000D01*
X6916900Y-12877500D01*
X6964400Y-12925000D01*
X6964400Y-13175000D02*
X7011900Y-13127500D01*
X6964400Y-13080000D01*
X6916900Y-13127500D01*
X6964400Y-13175000D01*
X6964400Y-13425000D02*
X7011900Y-13377500D01*
X6964400Y-13330000D01*
X6916900Y-13377500D01*
X6964400Y-13425000D01*
X6964400Y-13675000D02*
X7011900Y-13627500D01*
X6964400Y-13580000D01*
X6916900Y-13627500D01*
X6964400Y-13675000D01*
X7066500Y-4488000D02*
X7114000Y-4440500D01*
X7066500Y-4393000D01*
X7019000Y-4440500D01*
X7066500Y-4488000D01*
X7316500Y-4488000D02*
X7364000Y-4440500D01*
X7316500Y-4393000D01*
X7269000Y-4440500D01*
X7316500Y-4488000D01*
X7566500Y-4488000D02*
X7614000Y-4440500D01*
X7566500Y-4393000D01*
X7519000Y-4440500D01*
X7566500Y-4488000D01*
X7816500Y-4488000D02*
X7864000Y-4440500D01*
X7816500Y-4393000D01*
X7769000Y-4440500D01*
X7816500Y-4488000D01*
X9433500Y-4867000D02*
X9481000Y-4819500D01*
X9433500Y-4772000D01*
X9386000Y-4819500D01*
X9433500Y-4867000D01*
X9433500Y-5117000D02*
X9481000Y-5069500D01*
X9433500Y-5022000D01*
X9386000Y-5069500D01*
X9433500Y-5117000D01*
X9433500Y-5367000D02*
X9481000Y-5319500D01*
X9433500Y-5272000D01*
X9386000Y-5319500D01*
X9433500Y-5367000D01*
X9433500Y-5617000D02*
X9481000Y-5569500D01*
X9433500Y-5522000D01*
X9386000Y-5569500D01*
X9433500Y-5617000D01*
X9433500Y-5867000D02*
X9481000Y-5819500D01*
X9433500Y-5772000D01*
X9386000Y-5819500D01*
X9433500Y-5867000D01*
X10604400Y-12665000D02*
X10651900Y-12617500D01*
X10604400Y-12570000D01*
X10556900Y-12617500D01*
X10604400Y-12665000D01*
X10604400Y-12915000D02*
X10651900Y-12867500D01*
X10604400Y-12820000D01*
X10556900Y-12867500D01*
X10604400Y-12915000D01*
X10604400Y-13165000D02*
X10651900Y-13117500D01*
X10604400Y-13070000D01*
X10556900Y-13117500D01*
X10604400Y-13165000D01*
X10604400Y-13415000D02*
X10651900Y-13367500D01*
X10604400Y-13320000D01*
X10556900Y-13367500D01*
X10604400Y-13415000D01*
X10604400Y-13665000D02*
X10651900Y-13617500D01*
X10604400Y-13570000D01*
X10556900Y-13617500D01*
X10604400Y-13665000D01*
X3311500Y-7975500D02*
X3411500Y-8075500D01*
X3411500Y-7975500D02*
X3311500Y-8075500D01*
X3411500Y-8025500D02*
G75*
G03*
X3311500Y-8025500I-50000J0D01*
G01*
X3311500Y-8025500D02*
G75*
G03*
X3411500Y-8025500I50000J0D01*
G01*
X3311500Y-8229500D02*
X3411500Y-8329500D01*
X3411500Y-8229500D02*
X3311500Y-8329500D01*
X3411500Y-8279500D02*
G75*
G03*
X3311500Y-8279500I-50000J0D01*
G01*
X3311500Y-8279500D02*
G75*
G03*
X3411500Y-8279500I50000J0D01*
G01*
X3311500Y-8483500D02*
X3411500Y-8583500D01*
X3411500Y-8483500D02*
X3311500Y-8583500D01*
X3411500Y-8533500D02*
G75*
G03*
X3311500Y-8533500I-50000J0D01*
G01*
X3311500Y-8533500D02*
G75*
G03*
X3411500Y-8533500I50000J0D01*
G01*
X3734500Y-7559500D02*
X3834500Y-7659500D01*
X3834500Y-7559500D02*
X3734500Y-7659500D01*
X3834500Y-7609500D02*
G75*
G03*
X3734500Y-7609500I-50000J0D01*
G01*
X3734500Y-7609500D02*
G75*
G03*
X3834500Y-7609500I50000J0D01*
G01*
X3736500Y-5020500D02*
X3836500Y-5120500D01*
X3836500Y-5020500D02*
X3736500Y-5120500D01*
X3836500Y-5070500D02*
G75*
G03*
X3736500Y-5070500I-50000J0D01*
G01*
X3736500Y-5070500D02*
G75*
G03*
X3836500Y-5070500I50000J0D01*
G01*
X3988500Y-7559500D02*
X4088500Y-7659500D01*
X4088500Y-7559500D02*
X3988500Y-7659500D01*
X4088500Y-7609500D02*
G75*
G03*
X3988500Y-7609500I-50000J0D01*
G01*
X3988500Y-7609500D02*
G75*
G03*
X4088500Y-7609500I50000J0D01*
G01*
X3990500Y-5020500D02*
X4090500Y-5120500D01*
X4090500Y-5020500D02*
X3990500Y-5120500D01*
X4090500Y-5070500D02*
G75*
G03*
X3990500Y-5070500I-50000J0D01*
G01*
X3990500Y-5070500D02*
G75*
G03*
X4090500Y-5070500I50000J0D01*
G01*
X4241600Y-11496600D02*
X4341600Y-11596600D01*
X4341600Y-11496600D02*
X4241600Y-11596600D01*
X4341600Y-11546600D02*
G75*
G03*
X4241600Y-11546600I-50000J0D01*
G01*
X4241600Y-11546600D02*
G75*
G03*
X4341600Y-11546600I50000J0D01*
G01*
X4242500Y-7559500D02*
X4342500Y-7659500D01*
X4342500Y-7559500D02*
X4242500Y-7659500D01*
X4342500Y-7609500D02*
G75*
G03*
X4242500Y-7609500I-50000J0D01*
G01*
X4242500Y-7609500D02*
G75*
G03*
X4342500Y-7609500I50000J0D01*
G01*
X4244500Y-5020500D02*
X4344500Y-5120500D01*
X4344500Y-5020500D02*
X4244500Y-5120500D01*
X4344500Y-5070500D02*
G75*
G03*
X4244500Y-5070500I-50000J0D01*
G01*
X4244500Y-5070500D02*
G75*
G03*
X4344500Y-5070500I50000J0D01*
G01*
X4412750Y-8108750D02*
X4512750Y-8208750D01*
X4512750Y-8108750D02*
X4412750Y-8208750D01*
X4512750Y-8158750D02*
G75*
G03*
X4412750Y-8158750I-50000J0D01*
G01*
X4412750Y-8158750D02*
G75*
G03*
X4512750Y-8158750I50000J0D01*
G01*
X4412750Y-8362750D02*
X4512750Y-8462750D01*
X4512750Y-8362750D02*
X4412750Y-8462750D01*
X4512750Y-8412750D02*
G75*
G03*
X4412750Y-8412750I-50000J0D01*
G01*
X4412750Y-8412750D02*
G75*
G03*
X4512750Y-8412750I50000J0D01*
G01*
X4412750Y-8616750D02*
X4512750Y-8716750D01*
X4512750Y-8616750D02*
X4412750Y-8716750D01*
X4512750Y-8666750D02*
G75*
G03*
X4412750Y-8666750I-50000J0D01*
G01*
X4412750Y-8666750D02*
G75*
G03*
X4512750Y-8666750I50000J0D01*
G01*
X4491600Y-11496600D02*
X4591600Y-11596600D01*
X4591600Y-11496600D02*
X4491600Y-11596600D01*
X4591600Y-11546600D02*
G75*
G03*
X4491600Y-11546600I-50000J0D01*
G01*
X4491600Y-11546600D02*
G75*
G03*
X4591600Y-11546600I50000J0D01*
G01*
X4496500Y-7559500D02*
X4596500Y-7659500D01*
X4596500Y-7559500D02*
X4496500Y-7659500D01*
X4596500Y-7609500D02*
G75*
G03*
X4496500Y-7609500I-50000J0D01*
G01*
X4496500Y-7609500D02*
G75*
G03*
X4596500Y-7609500I50000J0D01*
G01*
X4498500Y-5020500D02*
X4598500Y-5120500D01*
X4598500Y-5020500D02*
X4498500Y-5120500D01*
X4598500Y-5070500D02*
G75*
G03*
X4498500Y-5070500I-50000J0D01*
G01*
X4498500Y-5070500D02*
G75*
G03*
X4598500Y-5070500I50000J0D01*
G01*
X4750500Y-7559500D02*
X4850500Y-7659500D01*
X4850500Y-7559500D02*
X4750500Y-7659500D01*
X4850500Y-7609500D02*
G75*
G03*
X4750500Y-7609500I-50000J0D01*
G01*
X4750500Y-7609500D02*
G75*
G03*
X4850500Y-7609500I50000J0D01*
G01*
X4752500Y-5020500D02*
X4852500Y-5120500D01*
X4852500Y-5020500D02*
X4752500Y-5120500D01*
X4852500Y-5070500D02*
G75*
G03*
X4752500Y-5070500I-50000J0D01*
G01*
X4752500Y-5070500D02*
G75*
G03*
X4852500Y-5070500I50000J0D01*
G01*
X5004500Y-7559500D02*
X5104500Y-7659500D01*
X5104500Y-7559500D02*
X5004500Y-7659500D01*
X5104500Y-7609500D02*
G75*
G03*
X5004500Y-7609500I-50000J0D01*
G01*
X5004500Y-7609500D02*
G75*
G03*
X5104500Y-7609500I50000J0D01*
G01*
X5006500Y-5020500D02*
X5106500Y-5120500D01*
X5106500Y-5020500D02*
X5006500Y-5120500D01*
X5106500Y-5070500D02*
G75*
G03*
X5006500Y-5070500I-50000J0D01*
G01*
X5006500Y-5070500D02*
G75*
G03*
X5106500Y-5070500I50000J0D01*
G01*
X5174750Y-8108750D02*
X5274750Y-8208750D01*
X5274750Y-8108750D02*
X5174750Y-8208750D01*
X5274750Y-8158750D02*
G75*
G03*
X5174750Y-8158750I-50000J0D01*
G01*
X5174750Y-8158750D02*
G75*
G03*
X5274750Y-8158750I50000J0D01*
G01*
X5174750Y-8362750D02*
X5274750Y-8462750D01*
X5274750Y-8362750D02*
X5174750Y-8462750D01*
X5274750Y-8412750D02*
G75*
G03*
X5174750Y-8412750I-50000J0D01*
G01*
X5174750Y-8412750D02*
G75*
G03*
X5274750Y-8412750I50000J0D01*
G01*
X5174750Y-8616750D02*
X5274750Y-8716750D01*
X5274750Y-8616750D02*
X5174750Y-8716750D01*
X5274750Y-8666750D02*
G75*
G03*
X5174750Y-8666750I-50000J0D01*
G01*
X5174750Y-8666750D02*
G75*
G03*
X5274750Y-8666750I50000J0D01*
G01*
X5258500Y-7559500D02*
X5358500Y-7659500D01*
X5358500Y-7559500D02*
X5258500Y-7659500D01*
X5358500Y-7609500D02*
G75*
G03*
X5258500Y-7609500I-50000J0D01*
G01*
X5258500Y-7609500D02*
G75*
G03*
X5358500Y-7609500I50000J0D01*
G01*
X5260500Y-5020500D02*
X5360500Y-5120500D01*
X5360500Y-5020500D02*
X5260500Y-5120500D01*
X5360500Y-5070500D02*
G75*
G03*
X5260500Y-5070500I-50000J0D01*
G01*
X5260500Y-5070500D02*
G75*
G03*
X5360500Y-5070500I50000J0D01*
G01*
X5512500Y-7559500D02*
X5612500Y-7659500D01*
X5612500Y-7559500D02*
X5512500Y-7659500D01*
X5612500Y-7609500D02*
G75*
G03*
X5512500Y-7609500I-50000J0D01*
G01*
X5512500Y-7609500D02*
G75*
G03*
X5612500Y-7609500I50000J0D01*
G01*
X5514500Y-5020500D02*
X5614500Y-5120500D01*
X5614500Y-5020500D02*
X5514500Y-5120500D01*
X5614500Y-5070500D02*
G75*
G03*
X5514500Y-5070500I-50000J0D01*
G01*
X5514500Y-5070500D02*
G75*
G03*
X5614500Y-5070500I50000J0D01*
G01*
X5766500Y-7559500D02*
X5866500Y-7659500D01*
X5866500Y-7559500D02*
X5766500Y-7659500D01*
X5866500Y-7609500D02*
G75*
G03*
X5766500Y-7609500I-50000J0D01*
G01*
X5766500Y-7609500D02*
G75*
G03*
X5866500Y-7609500I50000J0D01*
G01*
X5768500Y-5020500D02*
X5868500Y-5120500D01*
X5868500Y-5020500D02*
X5768500Y-5120500D01*
X5868500Y-5070500D02*
G75*
G03*
X5768500Y-5070500I-50000J0D01*
G01*
X5768500Y-5070500D02*
G75*
G03*
X5868500Y-5070500I50000J0D01*
G01*
X6020500Y-7559500D02*
X6120500Y-7659500D01*
X6120500Y-7559500D02*
X6020500Y-7659500D01*
X6120500Y-7609500D02*
G75*
G03*
X6020500Y-7609500I-50000J0D01*
G01*
X6020500Y-7609500D02*
G75*
G03*
X6120500Y-7609500I50000J0D01*
G01*
X6022500Y-5020500D02*
X6122500Y-5120500D01*
X6122500Y-5020500D02*
X6022500Y-5120500D01*
X6122500Y-5070500D02*
G75*
G03*
X6022500Y-5070500I-50000J0D01*
G01*
X6022500Y-5070500D02*
G75*
G03*
X6122500Y-5070500I50000J0D01*
G01*
X6274500Y-7559500D02*
X6374500Y-7659500D01*
X6374500Y-7559500D02*
X6274500Y-7659500D01*
X6374500Y-7609500D02*
G75*
G03*
X6274500Y-7609500I-50000J0D01*
G01*
X6274500Y-7609500D02*
G75*
G03*
X6374500Y-7609500I50000J0D01*
G01*
X6276500Y-5020500D02*
X6376500Y-5120500D01*
X6376500Y-5020500D02*
X6276500Y-5120500D01*
X6376500Y-5070500D02*
G75*
G03*
X6276500Y-5070500I-50000J0D01*
G01*
X6276500Y-5070500D02*
G75*
G03*
X6376500Y-5070500I50000J0D01*
G01*
X6528500Y-7559500D02*
X6628500Y-7659500D01*
X6628500Y-7559500D02*
X6528500Y-7659500D01*
X6628500Y-7609500D02*
G75*
G03*
X6528500Y-7609500I-50000J0D01*
G01*
X6528500Y-7609500D02*
G75*
G03*
X6628500Y-7609500I50000J0D01*
G01*
X6530500Y-5020500D02*
X6630500Y-5120500D01*
X6630500Y-5020500D02*
X6530500Y-5120500D01*
X6630500Y-5070500D02*
G75*
G03*
X6530500Y-5070500I-50000J0D01*
G01*
X6530500Y-5070500D02*
G75*
G03*
X6630500Y-5070500I50000J0D01*
G01*
X6782500Y-7559500D02*
X6882500Y-7659500D01*
X6882500Y-7559500D02*
X6782500Y-7659500D01*
X6882500Y-7609500D02*
G75*
G03*
X6782500Y-7609500I-50000J0D01*
G01*
X6782500Y-7609500D02*
G75*
G03*
X6882500Y-7609500I50000J0D01*
G01*
X6784500Y-5020500D02*
X6884500Y-5120500D01*
X6884500Y-5020500D02*
X6784500Y-5120500D01*
X6884500Y-5070500D02*
G75*
G03*
X6784500Y-5070500I-50000J0D01*
G01*
X6784500Y-5070500D02*
G75*
G03*
X6884500Y-5070500I50000J0D01*
G01*
X7036500Y-7559500D02*
X7136500Y-7659500D01*
X7136500Y-7559500D02*
X7036500Y-7659500D01*
X7136500Y-7609500D02*
G75*
G03*
X7036500Y-7609500I-50000J0D01*
G01*
X7036500Y-7609500D02*
G75*
G03*
X7136500Y-7609500I50000J0D01*
G01*
X7038500Y-5020500D02*
X7138500Y-5120500D01*
X7138500Y-5020500D02*
X7038500Y-5120500D01*
X7138500Y-5070500D02*
G75*
G03*
X7038500Y-5070500I-50000J0D01*
G01*
X7038500Y-5070500D02*
G75*
G03*
X7138500Y-5070500I50000J0D01*
G01*
X7290500Y-7559500D02*
X7390500Y-7659500D01*
X7390500Y-7559500D02*
X7290500Y-7659500D01*
X7390500Y-7609500D02*
G75*
G03*
X7290500Y-7609500I-50000J0D01*
G01*
X7290500Y-7609500D02*
G75*
G03*
X7390500Y-7609500I50000J0D01*
G01*
X7292500Y-5020500D02*
X7392500Y-5120500D01*
X7392500Y-5020500D02*
X7292500Y-5120500D01*
X7392500Y-5070500D02*
G75*
G03*
X7292500Y-5070500I-50000J0D01*
G01*
X7292500Y-5070500D02*
G75*
G03*
X7392500Y-5070500I50000J0D01*
G01*
X7764000Y-11496600D02*
X7864000Y-11596600D01*
X7864000Y-11496600D02*
X7764000Y-11596600D01*
X7864000Y-11546600D02*
G75*
G03*
X7764000Y-11546600I-50000J0D01*
G01*
X7764000Y-11546600D02*
G75*
G03*
X7864000Y-11546600I50000J0D01*
G01*
X8014000Y-11496600D02*
X8114000Y-11596600D01*
X8114000Y-11496600D02*
X8014000Y-11596600D01*
X8114000Y-11546600D02*
G75*
G03*
X8014000Y-11546600I-50000J0D01*
G01*
X8014000Y-11546600D02*
G75*
G03*
X8114000Y-11546600I50000J0D01*
G01*
X8593500Y-4269500D02*
X8693500Y-4369500D01*
X8693500Y-4269500D02*
X8593500Y-4369500D01*
X8693500Y-4319500D02*
G75*
G03*
X8593500Y-4319500I-50000J0D01*
G01*
X8593500Y-4319500D02*
G75*
G03*
X8693500Y-4319500I50000J0D01*
G01*
X8610500Y-7250500D02*
X8710500Y-7350500D01*
X8710500Y-7250500D02*
X8610500Y-7350500D01*
X8710500Y-7300500D02*
G75*
G03*
X8610500Y-7300500I-50000J0D01*
G01*
X8610500Y-7300500D02*
G75*
G03*
X8710500Y-7300500I50000J0D01*
G01*
X8610500Y-8513000D02*
X8710500Y-8613000D01*
X8710500Y-8513000D02*
X8610500Y-8613000D01*
X8710500Y-8563000D02*
G75*
G03*
X8610500Y-8563000I-50000J0D01*
G01*
X8610500Y-8563000D02*
G75*
G03*
X8710500Y-8563000I50000J0D01*
G01*
X8756500Y-9090500D02*
X8856500Y-9190500D01*
X8856500Y-9090500D02*
X8756500Y-9190500D01*
X8856500Y-9140500D02*
G75*
G03*
X8756500Y-9140500I-50000J0D01*
G01*
X8756500Y-9140500D02*
G75*
G03*
X8856500Y-9140500I50000J0D01*
G01*
X8847500Y-4269500D02*
X8947500Y-4369500D01*
X8947500Y-4269500D02*
X8847500Y-4369500D01*
X8947500Y-4319500D02*
G75*
G03*
X8847500Y-4319500I-50000J0D01*
G01*
X8847500Y-4319500D02*
G75*
G03*
X8947500Y-4319500I50000J0D01*
G01*
X8864500Y-7250500D02*
X8964500Y-7350500D01*
X8964500Y-7250500D02*
X8864500Y-7350500D01*
X8964500Y-7300500D02*
G75*
G03*
X8864500Y-7300500I-50000J0D01*
G01*
X8864500Y-7300500D02*
G75*
G03*
X8964500Y-7300500I50000J0D01*
G01*
X8864500Y-8513000D02*
X8964500Y-8613000D01*
X8964500Y-8513000D02*
X8864500Y-8613000D01*
X8964500Y-8563000D02*
G75*
G03*
X8864500Y-8563000I-50000J0D01*
G01*
X8864500Y-8563000D02*
G75*
G03*
X8964500Y-8563000I50000J0D01*
G01*
X9006500Y-9090500D02*
X9106500Y-9190500D01*
X9106500Y-9090500D02*
X9006500Y-9190500D01*
X9106500Y-9140500D02*
G75*
G03*
X9006500Y-9140500I-50000J0D01*
G01*
X9006500Y-9140500D02*
G75*
G03*
X9106500Y-9140500I50000J0D01*
G01*
X9101500Y-4269500D02*
X9201500Y-4369500D01*
X9201500Y-4269500D02*
X9101500Y-4369500D01*
X9201500Y-4319500D02*
G75*
G03*
X9101500Y-4319500I-50000J0D01*
G01*
X9101500Y-4319500D02*
G75*
G03*
X9201500Y-4319500I50000J0D01*
G01*
X9118500Y-7250500D02*
X9218500Y-7350500D01*
X9218500Y-7250500D02*
X9118500Y-7350500D01*
X9218500Y-7300500D02*
G75*
G03*
X9118500Y-7300500I-50000J0D01*
G01*
X9118500Y-7300500D02*
G75*
G03*
X9218500Y-7300500I50000J0D01*
G01*
X9118500Y-8513000D02*
X9218500Y-8613000D01*
X9218500Y-8513000D02*
X9118500Y-8613000D01*
X9218500Y-8563000D02*
G75*
G03*
X9118500Y-8563000I-50000J0D01*
G01*
X9118500Y-8563000D02*
G75*
G03*
X9218500Y-8563000I50000J0D01*
G01*
X9345500Y-6463500D02*
X9445500Y-6563500D01*
X9445500Y-6463500D02*
X9345500Y-6563500D01*
X9445500Y-6513500D02*
G75*
G03*
X9345500Y-6513500I-50000J0D01*
G01*
X9345500Y-6513500D02*
G75*
G03*
X9445500Y-6513500I50000J0D01*
G01*
X9345500Y-6713500D02*
X9445500Y-6813500D01*
X9445500Y-6713500D02*
X9345500Y-6813500D01*
X9445500Y-6763500D02*
G75*
G03*
X9345500Y-6763500I-50000J0D01*
G01*
X9345500Y-6763500D02*
G75*
G03*
X9445500Y-6763500I50000J0D01*
G01*
X9355500Y-4269500D02*
X9455500Y-4369500D01*
X9455500Y-4269500D02*
X9355500Y-4369500D01*
X9455500Y-4319500D02*
G75*
G03*
X9355500Y-4319500I-50000J0D01*
G01*
X9355500Y-4319500D02*
G75*
G03*
X9455500Y-4319500I50000J0D01*
G01*
X9372500Y-7250500D02*
X9472500Y-7350500D01*
X9472500Y-7250500D02*
X9372500Y-7350500D01*
X9472500Y-7300500D02*
G75*
G03*
X9372500Y-7300500I-50000J0D01*
G01*
X9372500Y-7300500D02*
G75*
G03*
X9472500Y-7300500I50000J0D01*
G01*
X9372500Y-8513000D02*
X9472500Y-8613000D01*
X9472500Y-8513000D02*
X9372500Y-8613000D01*
X9472500Y-8563000D02*
G75*
G03*
X9372500Y-8563000I-50000J0D01*
G01*
X9372500Y-8563000D02*
G75*
G03*
X9472500Y-8563000I50000J0D01*
G01*
X9609500Y-4269500D02*
X9709500Y-4369500D01*
X9709500Y-4269500D02*
X9609500Y-4369500D01*
X9709500Y-4319500D02*
G75*
G03*
X9609500Y-4319500I-50000J0D01*
G01*
X9609500Y-4319500D02*
G75*
G03*
X9709500Y-4319500I50000J0D01*
G01*
X9626500Y-7250500D02*
X9726500Y-7350500D01*
X9726500Y-7250500D02*
X9626500Y-7350500D01*
X9726500Y-7300500D02*
G75*
G03*
X9626500Y-7300500I-50000J0D01*
G01*
X9626500Y-7300500D02*
G75*
G03*
X9726500Y-7300500I50000J0D01*
G01*
X9626500Y-8513000D02*
X9726500Y-8613000D01*
X9726500Y-8513000D02*
X9626500Y-8613000D01*
X9726500Y-8563000D02*
G75*
G03*
X9626500Y-8563000I-50000J0D01*
G01*
X9626500Y-8563000D02*
G75*
G03*
X9726500Y-8563000I50000J0D01*
G01*
X9863500Y-4269500D02*
X9963500Y-4369500D01*
X9963500Y-4269500D02*
X9863500Y-4369500D01*
X9963500Y-4319500D02*
G75*
G03*
X9863500Y-4319500I-50000J0D01*
G01*
X9863500Y-4319500D02*
G75*
G03*
X9963500Y-4319500I50000J0D01*
G01*
X9880500Y-7250500D02*
X9980500Y-7350500D01*
X9980500Y-7250500D02*
X9880500Y-7350500D01*
X9980500Y-7300500D02*
G75*
G03*
X9880500Y-7300500I-50000J0D01*
G01*
X9880500Y-7300500D02*
G75*
G03*
X9980500Y-7300500I50000J0D01*
G01*
X9880500Y-8513000D02*
X9980500Y-8613000D01*
X9980500Y-8513000D02*
X9880500Y-8613000D01*
X9980500Y-8563000D02*
G75*
G03*
X9880500Y-8563000I-50000J0D01*
G01*
X9880500Y-8563000D02*
G75*
G03*
X9980500Y-8563000I50000J0D01*
G01*
X10006500Y-9180500D02*
X10106500Y-9280500D01*
X10106500Y-9180500D02*
X10006500Y-9280500D01*
X10106500Y-9230500D02*
G75*
G03*
X10006500Y-9230500I-50000J0D01*
G01*
X10006500Y-9230500D02*
G75*
G03*
X10106500Y-9230500I50000J0D01*
G01*
X10117500Y-4269500D02*
X10217500Y-4369500D01*
X10217500Y-4269500D02*
X10117500Y-4369500D01*
X10217500Y-4319500D02*
G75*
G03*
X10117500Y-4319500I-50000J0D01*
G01*
X10117500Y-4319500D02*
G75*
G03*
X10217500Y-4319500I50000J0D01*
G01*
X10134500Y-7250500D02*
X10234500Y-7350500D01*
X10234500Y-7250500D02*
X10134500Y-7350500D01*
X10234500Y-7300500D02*
G75*
G03*
X10134500Y-7300500I-50000J0D01*
G01*
X10134500Y-7300500D02*
G75*
G03*
X10234500Y-7300500I50000J0D01*
G01*
X10134500Y-8513000D02*
X10234500Y-8613000D01*
X10234500Y-8513000D02*
X10134500Y-8613000D01*
X10234500Y-8563000D02*
G75*
G03*
X10134500Y-8563000I-50000J0D01*
G01*
X10134500Y-8563000D02*
G75*
G03*
X10234500Y-8563000I50000J0D01*
G01*
X10256500Y-9180500D02*
X10356500Y-9280500D01*
X10356500Y-9180500D02*
X10256500Y-9280500D01*
X10356500Y-9230500D02*
G75*
G03*
X10256500Y-9230500I-50000J0D01*
G01*
X10256500Y-9230500D02*
G75*
G03*
X10356500Y-9230500I50000J0D01*
G01*
X10371500Y-4269500D02*
X10471500Y-4369500D01*
X10471500Y-4269500D02*
X10371500Y-4369500D01*
X10471500Y-4319500D02*
G75*
G03*
X10371500Y-4319500I-50000J0D01*
G01*
X10371500Y-4319500D02*
G75*
G03*
X10471500Y-4319500I50000J0D01*
G01*
X10388500Y-7250500D02*
X10488500Y-7350500D01*
X10488500Y-7250500D02*
X10388500Y-7350500D01*
X10488500Y-7300500D02*
G75*
G03*
X10388500Y-7300500I-50000J0D01*
G01*
X10388500Y-7300500D02*
G75*
G03*
X10488500Y-7300500I50000J0D01*
G01*
X10388500Y-8513000D02*
X10488500Y-8613000D01*
X10488500Y-8513000D02*
X10388500Y-8613000D01*
X10488500Y-8563000D02*
G75*
G03*
X10388500Y-8563000I-50000J0D01*
G01*
X10388500Y-8563000D02*
G75*
G03*
X10488500Y-8563000I50000J0D01*
G01*
X11404000Y-11486600D02*
X11504000Y-11586600D01*
X11504000Y-11486600D02*
X11404000Y-11586600D01*
X11504000Y-11536600D02*
G75*
G03*
X11404000Y-11536600I-50000J0D01*
G01*
X11404000Y-11536600D02*
G75*
G03*
X11504000Y-11536600I50000J0D01*
G01*
X11654000Y-11486600D02*
X11754000Y-11586600D01*
X11754000Y-11486600D02*
X11654000Y-11586600D01*
X11754000Y-11536600D02*
G75*
G03*
X11654000Y-11536600I-50000J0D01*
G01*
X11654000Y-11536600D02*
G75*
G03*
X11754000Y-11536600I50000J0D01*
G01*
D14*
X6491500Y-8530500D02*
X6601500Y-8640500D01*
X6601500Y-8530500D02*
X6491500Y-8640500D01*
X6546500Y-8530500D02*
X6546500Y-8640500D01*
X6491500Y-8585500D02*
X6601500Y-8585500D01*
X6491500Y-8784500D02*
X6601500Y-8894500D01*
X6601500Y-8784500D02*
X6491500Y-8894500D01*
X6546500Y-8784500D02*
X6546500Y-8894500D01*
X6491500Y-8839500D02*
X6601500Y-8839500D01*
X6491500Y-9038500D02*
X6601500Y-9148500D01*
X6601500Y-9038500D02*
X6491500Y-9148500D01*
X6546500Y-9038500D02*
X6546500Y-9148500D01*
X6491500Y-9093500D02*
X6601500Y-9093500D01*
D12*
X3258277Y-14313984D02*
X3258277Y-14113984D01*
X3258277Y-14113984D02*
X3305896Y-14113984D01*
X3305896Y-14113984D02*
X3334467Y-14123508D01*
X3334467Y-14123508D02*
X3353515Y-14142555D01*
X3353515Y-14142555D02*
X3363039Y-14161603D01*
X3363039Y-14161603D02*
X3372562Y-14199698D01*
X3372562Y-14199698D02*
X3372562Y-14228269D01*
X3372562Y-14228269D02*
X3363039Y-14266365D01*
X3363039Y-14266365D02*
X3353515Y-14285412D01*
X3353515Y-14285412D02*
X3334467Y-14304460D01*
X3334467Y-14304460D02*
X3305896Y-14313984D01*
X3305896Y-14313984D02*
X3258277Y-14313984D01*
X3458277Y-14313984D02*
X3458277Y-14180650D01*
X3458277Y-14218746D02*
X3467801Y-14199698D01*
X3467801Y-14199698D02*
X3477324Y-14190174D01*
X3477324Y-14190174D02*
X3496372Y-14180650D01*
X3496372Y-14180650D02*
X3515420Y-14180650D01*
X3582086Y-14313984D02*
X3582086Y-14180650D01*
X3582086Y-14113984D02*
X3572562Y-14123508D01*
X3572562Y-14123508D02*
X3582086Y-14133031D01*
X3582086Y-14133031D02*
X3591610Y-14123508D01*
X3591610Y-14123508D02*
X3582086Y-14113984D01*
X3582086Y-14113984D02*
X3582086Y-14133031D01*
X3705896Y-14313984D02*
X3686848Y-14304460D01*
X3686848Y-14304460D02*
X3677324Y-14285412D01*
X3677324Y-14285412D02*
X3677324Y-14113984D01*
X3810658Y-14313984D02*
X3791610Y-14304460D01*
X3791610Y-14304460D02*
X3782086Y-14285412D01*
X3782086Y-14285412D02*
X3782086Y-14113984D01*
X4039229Y-14313984D02*
X4039229Y-14113984D01*
X4039229Y-14113984D02*
X4105896Y-14256841D01*
X4105896Y-14256841D02*
X4172562Y-14113984D01*
X4172562Y-14113984D02*
X4172562Y-14313984D01*
X4353515Y-14313984D02*
X4353515Y-14209222D01*
X4353515Y-14209222D02*
X4343991Y-14190174D01*
X4343991Y-14190174D02*
X4324944Y-14180650D01*
X4324944Y-14180650D02*
X4286848Y-14180650D01*
X4286848Y-14180650D02*
X4267801Y-14190174D01*
X4353515Y-14304460D02*
X4334467Y-14313984D01*
X4334467Y-14313984D02*
X4286848Y-14313984D01*
X4286848Y-14313984D02*
X4267801Y-14304460D01*
X4267801Y-14304460D02*
X4258277Y-14285412D01*
X4258277Y-14285412D02*
X4258277Y-14266365D01*
X4258277Y-14266365D02*
X4267801Y-14247317D01*
X4267801Y-14247317D02*
X4286848Y-14237793D01*
X4286848Y-14237793D02*
X4334467Y-14237793D01*
X4334467Y-14237793D02*
X4353515Y-14228269D01*
X4448753Y-14180650D02*
X4448753Y-14380650D01*
X4448753Y-14190174D02*
X4467801Y-14180650D01*
X4467801Y-14180650D02*
X4505896Y-14180650D01*
X4505896Y-14180650D02*
X4524944Y-14190174D01*
X4524944Y-14190174D02*
X4534467Y-14199698D01*
X4534467Y-14199698D02*
X4543991Y-14218746D01*
X4543991Y-14218746D02*
X4543991Y-14275888D01*
X4543991Y-14275888D02*
X4534467Y-14294936D01*
X4534467Y-14294936D02*
X4524944Y-14304460D01*
X4524944Y-14304460D02*
X4505896Y-14313984D01*
X4505896Y-14313984D02*
X4467801Y-14313984D01*
X4467801Y-14313984D02*
X4448753Y-14304460D01*
X4629705Y-14294936D02*
X4639229Y-14304460D01*
X4639229Y-14304460D02*
X4629705Y-14313984D01*
X4629705Y-14313984D02*
X4620182Y-14304460D01*
X4620182Y-14304460D02*
X4629705Y-14294936D01*
X4629705Y-14294936D02*
X4629705Y-14313984D01*
X4629705Y-14190174D02*
X4639229Y-14199698D01*
X4639229Y-14199698D02*
X4629705Y-14209222D01*
X4629705Y-14209222D02*
X4620182Y-14199698D01*
X4620182Y-14199698D02*
X4629705Y-14190174D01*
X4629705Y-14190174D02*
X4629705Y-14209222D01*
D10*
X2967500Y-14627500D02*
X2997500Y-14657500D01*
X2997500Y-14627500D02*
X2967500Y-14657500D01*
D12*
X3296372Y-14533984D02*
X3315420Y-14533984D01*
X3315420Y-14533984D02*
X3334467Y-14543508D01*
X3334467Y-14543508D02*
X3343991Y-14553031D01*
X3343991Y-14553031D02*
X3353515Y-14572079D01*
X3353515Y-14572079D02*
X3363039Y-14610174D01*
X3363039Y-14610174D02*
X3363039Y-14657793D01*
X3363039Y-14657793D02*
X3353515Y-14695888D01*
X3353515Y-14695888D02*
X3343991Y-14714936D01*
X3343991Y-14714936D02*
X3334467Y-14724460D01*
X3334467Y-14724460D02*
X3315420Y-14733984D01*
X3315420Y-14733984D02*
X3296372Y-14733984D01*
X3296372Y-14733984D02*
X3277324Y-14724460D01*
X3277324Y-14724460D02*
X3267801Y-14714936D01*
X3267801Y-14714936D02*
X3258277Y-14695888D01*
X3258277Y-14695888D02*
X3248753Y-14657793D01*
X3248753Y-14657793D02*
X3248753Y-14610174D01*
X3248753Y-14610174D02*
X3258277Y-14572079D01*
X3258277Y-14572079D02*
X3267801Y-14553031D01*
X3267801Y-14553031D02*
X3277324Y-14543508D01*
X3277324Y-14543508D02*
X3296372Y-14533984D01*
X3448753Y-14714936D02*
X3458277Y-14724460D01*
X3458277Y-14724460D02*
X3448753Y-14733984D01*
X3448753Y-14733984D02*
X3439229Y-14724460D01*
X3439229Y-14724460D02*
X3448753Y-14714936D01*
X3448753Y-14714936D02*
X3448753Y-14733984D01*
X3524943Y-14533984D02*
X3648753Y-14533984D01*
X3648753Y-14533984D02*
X3582086Y-14610174D01*
X3582086Y-14610174D02*
X3610658Y-14610174D01*
X3610658Y-14610174D02*
X3629705Y-14619698D01*
X3629705Y-14619698D02*
X3639229Y-14629222D01*
X3639229Y-14629222D02*
X3648753Y-14648269D01*
X3648753Y-14648269D02*
X3648753Y-14695888D01*
X3648753Y-14695888D02*
X3639229Y-14714936D01*
X3639229Y-14714936D02*
X3629705Y-14724460D01*
X3629705Y-14724460D02*
X3610658Y-14733984D01*
X3610658Y-14733984D02*
X3553515Y-14733984D01*
X3553515Y-14733984D02*
X3534467Y-14724460D01*
X3534467Y-14724460D02*
X3524943Y-14714936D01*
X3772562Y-14533984D02*
X3791610Y-14533984D01*
X3791610Y-14533984D02*
X3810658Y-14543508D01*
X3810658Y-14543508D02*
X3820182Y-14553031D01*
X3820182Y-14553031D02*
X3829705Y-14572079D01*
X3829705Y-14572079D02*
X3839229Y-14610174D01*
X3839229Y-14610174D02*
X3839229Y-14657793D01*
X3839229Y-14657793D02*
X3829705Y-14695888D01*
X3829705Y-14695888D02*
X3820182Y-14714936D01*
X3820182Y-14714936D02*
X3810658Y-14724460D01*
X3810658Y-14724460D02*
X3791610Y-14733984D01*
X3791610Y-14733984D02*
X3772562Y-14733984D01*
X3772562Y-14733984D02*
X3753515Y-14724460D01*
X3753515Y-14724460D02*
X3743991Y-14714936D01*
X3743991Y-14714936D02*
X3734467Y-14695888D01*
X3734467Y-14695888D02*
X3724943Y-14657793D01*
X3724943Y-14657793D02*
X3724943Y-14610174D01*
X3724943Y-14610174D02*
X3734467Y-14572079D01*
X3734467Y-14572079D02*
X3743991Y-14553031D01*
X3743991Y-14553031D02*
X3753515Y-14543508D01*
X3753515Y-14543508D02*
X3772562Y-14533984D01*
X3963039Y-14533984D02*
X3982086Y-14533984D01*
X3982086Y-14533984D02*
X4001134Y-14543508D01*
X4001134Y-14543508D02*
X4010658Y-14553031D01*
X4010658Y-14553031D02*
X4020182Y-14572079D01*
X4020182Y-14572079D02*
X4029705Y-14610174D01*
X4029705Y-14610174D02*
X4029705Y-14657793D01*
X4029705Y-14657793D02*
X4020182Y-14695888D01*
X4020182Y-14695888D02*
X4010658Y-14714936D01*
X4010658Y-14714936D02*
X4001134Y-14724460D01*
X4001134Y-14724460D02*
X3982086Y-14733984D01*
X3982086Y-14733984D02*
X3963039Y-14733984D01*
X3963039Y-14733984D02*
X3943991Y-14724460D01*
X3943991Y-14724460D02*
X3934467Y-14714936D01*
X3934467Y-14714936D02*
X3924943Y-14695888D01*
X3924943Y-14695888D02*
X3915420Y-14657793D01*
X3915420Y-14657793D02*
X3915420Y-14610174D01*
X3915420Y-14610174D02*
X3924943Y-14572079D01*
X3924943Y-14572079D02*
X3934467Y-14553031D01*
X3934467Y-14553031D02*
X3943991Y-14543508D01*
X3943991Y-14543508D02*
X3963039Y-14533984D01*
X4115420Y-14733984D02*
X4115420Y-14600650D01*
X4115420Y-14619698D02*
X4124943Y-14610174D01*
X4124943Y-14610174D02*
X4143991Y-14600650D01*
X4143991Y-14600650D02*
X4172563Y-14600650D01*
X4172563Y-14600650D02*
X4191610Y-14610174D01*
X4191610Y-14610174D02*
X4201134Y-14629222D01*
X4201134Y-14629222D02*
X4201134Y-14733984D01*
X4201134Y-14629222D02*
X4210658Y-14610174D01*
X4210658Y-14610174D02*
X4229705Y-14600650D01*
X4229705Y-14600650D02*
X4258277Y-14600650D01*
X4258277Y-14600650D02*
X4277325Y-14610174D01*
X4277325Y-14610174D02*
X4286848Y-14629222D01*
X4286848Y-14629222D02*
X4286848Y-14733984D01*
X4382086Y-14733984D02*
X4382086Y-14600650D01*
X4382086Y-14619698D02*
X4391610Y-14610174D01*
X4391610Y-14610174D02*
X4410658Y-14600650D01*
X4410658Y-14600650D02*
X4439229Y-14600650D01*
X4439229Y-14600650D02*
X4458277Y-14610174D01*
X4458277Y-14610174D02*
X4467801Y-14629222D01*
X4467801Y-14629222D02*
X4467801Y-14733984D01*
X4467801Y-14629222D02*
X4477325Y-14610174D01*
X4477325Y-14610174D02*
X4496372Y-14600650D01*
X4496372Y-14600650D02*
X4524944Y-14600650D01*
X4524944Y-14600650D02*
X4543991Y-14610174D01*
X4543991Y-14610174D02*
X4553515Y-14629222D01*
X4553515Y-14629222D02*
X4553515Y-14733984D01*
X4943991Y-14524460D02*
X4772563Y-14781603D01*
X5201134Y-14533984D02*
X5220182Y-14533984D01*
X5220182Y-14533984D02*
X5239229Y-14543508D01*
X5239229Y-14543508D02*
X5248753Y-14553031D01*
X5248753Y-14553031D02*
X5258277Y-14572079D01*
X5258277Y-14572079D02*
X5267801Y-14610174D01*
X5267801Y-14610174D02*
X5267801Y-14657793D01*
X5267801Y-14657793D02*
X5258277Y-14695888D01*
X5258277Y-14695888D02*
X5248753Y-14714936D01*
X5248753Y-14714936D02*
X5239229Y-14724460D01*
X5239229Y-14724460D02*
X5220182Y-14733984D01*
X5220182Y-14733984D02*
X5201134Y-14733984D01*
X5201134Y-14733984D02*
X5182087Y-14724460D01*
X5182087Y-14724460D02*
X5172563Y-14714936D01*
X5172563Y-14714936D02*
X5163039Y-14695888D01*
X5163039Y-14695888D02*
X5153515Y-14657793D01*
X5153515Y-14657793D02*
X5153515Y-14610174D01*
X5153515Y-14610174D02*
X5163039Y-14572079D01*
X5163039Y-14572079D02*
X5172563Y-14553031D01*
X5172563Y-14553031D02*
X5182087Y-14543508D01*
X5182087Y-14543508D02*
X5201134Y-14533984D01*
X5353515Y-14714936D02*
X5363039Y-14724460D01*
X5363039Y-14724460D02*
X5353515Y-14733984D01*
X5353515Y-14733984D02*
X5343991Y-14724460D01*
X5343991Y-14724460D02*
X5353515Y-14714936D01*
X5353515Y-14714936D02*
X5353515Y-14733984D01*
X5486848Y-14533984D02*
X5505896Y-14533984D01*
X5505896Y-14533984D02*
X5524944Y-14543508D01*
X5524944Y-14543508D02*
X5534468Y-14553031D01*
X5534468Y-14553031D02*
X5543991Y-14572079D01*
X5543991Y-14572079D02*
X5553515Y-14610174D01*
X5553515Y-14610174D02*
X5553515Y-14657793D01*
X5553515Y-14657793D02*
X5543991Y-14695888D01*
X5543991Y-14695888D02*
X5534468Y-14714936D01*
X5534468Y-14714936D02*
X5524944Y-14724460D01*
X5524944Y-14724460D02*
X5505896Y-14733984D01*
X5505896Y-14733984D02*
X5486848Y-14733984D01*
X5486848Y-14733984D02*
X5467801Y-14724460D01*
X5467801Y-14724460D02*
X5458277Y-14714936D01*
X5458277Y-14714936D02*
X5448753Y-14695888D01*
X5448753Y-14695888D02*
X5439229Y-14657793D01*
X5439229Y-14657793D02*
X5439229Y-14610174D01*
X5439229Y-14610174D02*
X5448753Y-14572079D01*
X5448753Y-14572079D02*
X5458277Y-14553031D01*
X5458277Y-14553031D02*
X5467801Y-14543508D01*
X5467801Y-14543508D02*
X5486848Y-14533984D01*
X5743991Y-14733984D02*
X5629706Y-14733984D01*
X5686848Y-14733984D02*
X5686848Y-14533984D01*
X5686848Y-14533984D02*
X5667801Y-14562555D01*
X5667801Y-14562555D02*
X5648753Y-14581603D01*
X5648753Y-14581603D02*
X5629706Y-14591127D01*
X5934467Y-14733984D02*
X5820182Y-14733984D01*
X5877325Y-14733984D02*
X5877325Y-14533984D01*
X5877325Y-14533984D02*
X5858277Y-14562555D01*
X5858277Y-14562555D02*
X5839229Y-14581603D01*
X5839229Y-14581603D02*
X5820182Y-14591127D01*
X6048753Y-14619698D02*
X6029706Y-14610174D01*
X6029706Y-14610174D02*
X6020182Y-14600650D01*
X6020182Y-14600650D02*
X6010658Y-14581603D01*
X6010658Y-14581603D02*
X6010658Y-14572079D01*
X6010658Y-14572079D02*
X6020182Y-14553031D01*
X6020182Y-14553031D02*
X6029706Y-14543508D01*
X6029706Y-14543508D02*
X6048753Y-14533984D01*
X6048753Y-14533984D02*
X6086848Y-14533984D01*
X6086848Y-14533984D02*
X6105896Y-14543508D01*
X6105896Y-14543508D02*
X6115420Y-14553031D01*
X6115420Y-14553031D02*
X6124944Y-14572079D01*
X6124944Y-14572079D02*
X6124944Y-14581603D01*
X6124944Y-14581603D02*
X6115420Y-14600650D01*
X6115420Y-14600650D02*
X6105896Y-14610174D01*
X6105896Y-14610174D02*
X6086848Y-14619698D01*
X6086848Y-14619698D02*
X6048753Y-14619698D01*
X6048753Y-14619698D02*
X6029706Y-14629222D01*
X6029706Y-14629222D02*
X6020182Y-14638746D01*
X6020182Y-14638746D02*
X6010658Y-14657793D01*
X6010658Y-14657793D02*
X6010658Y-14695888D01*
X6010658Y-14695888D02*
X6020182Y-14714936D01*
X6020182Y-14714936D02*
X6029706Y-14724460D01*
X6029706Y-14724460D02*
X6048753Y-14733984D01*
X6048753Y-14733984D02*
X6086848Y-14733984D01*
X6086848Y-14733984D02*
X6105896Y-14724460D01*
X6105896Y-14724460D02*
X6115420Y-14714936D01*
X6115420Y-14714936D02*
X6124944Y-14695888D01*
X6124944Y-14695888D02*
X6124944Y-14657793D01*
X6124944Y-14657793D02*
X6115420Y-14638746D01*
X6115420Y-14638746D02*
X6105896Y-14629222D01*
X6105896Y-14629222D02*
X6086848Y-14619698D01*
X6201134Y-14533984D02*
X6201134Y-14572079D01*
X6277325Y-14533984D02*
X6277325Y-14572079D01*
X6572563Y-14810174D02*
X6563039Y-14800650D01*
X6563039Y-14800650D02*
X6543991Y-14772079D01*
X6543991Y-14772079D02*
X6534468Y-14753031D01*
X6534468Y-14753031D02*
X6524944Y-14724460D01*
X6524944Y-14724460D02*
X6515420Y-14676841D01*
X6515420Y-14676841D02*
X6515420Y-14638746D01*
X6515420Y-14638746D02*
X6524944Y-14591127D01*
X6524944Y-14591127D02*
X6534468Y-14562555D01*
X6534468Y-14562555D02*
X6543991Y-14543508D01*
X6543991Y-14543508D02*
X6563039Y-14514936D01*
X6563039Y-14514936D02*
X6572563Y-14505412D01*
X6658277Y-14733984D02*
X6696372Y-14733984D01*
X6696372Y-14733984D02*
X6715420Y-14724460D01*
X6715420Y-14724460D02*
X6724944Y-14714936D01*
X6724944Y-14714936D02*
X6743991Y-14686365D01*
X6743991Y-14686365D02*
X6753515Y-14648269D01*
X6753515Y-14648269D02*
X6753515Y-14572079D01*
X6753515Y-14572079D02*
X6743991Y-14553031D01*
X6743991Y-14553031D02*
X6734468Y-14543508D01*
X6734468Y-14543508D02*
X6715420Y-14533984D01*
X6715420Y-14533984D02*
X6677325Y-14533984D01*
X6677325Y-14533984D02*
X6658277Y-14543508D01*
X6658277Y-14543508D02*
X6648753Y-14553031D01*
X6648753Y-14553031D02*
X6639229Y-14572079D01*
X6639229Y-14572079D02*
X6639229Y-14619698D01*
X6639229Y-14619698D02*
X6648753Y-14638746D01*
X6648753Y-14638746D02*
X6658277Y-14648269D01*
X6658277Y-14648269D02*
X6677325Y-14657793D01*
X6677325Y-14657793D02*
X6715420Y-14657793D01*
X6715420Y-14657793D02*
X6734468Y-14648269D01*
X6734468Y-14648269D02*
X6743991Y-14638746D01*
X6743991Y-14638746D02*
X6753515Y-14619698D01*
X6924944Y-14600650D02*
X6924944Y-14733984D01*
X6877325Y-14524460D02*
X6829706Y-14667317D01*
X6829706Y-14667317D02*
X6953515Y-14667317D01*
X7182087Y-14733984D02*
X7182087Y-14533984D01*
X7267801Y-14733984D02*
X7267801Y-14629222D01*
X7267801Y-14629222D02*
X7258277Y-14610174D01*
X7258277Y-14610174D02*
X7239230Y-14600650D01*
X7239230Y-14600650D02*
X7210658Y-14600650D01*
X7210658Y-14600650D02*
X7191610Y-14610174D01*
X7191610Y-14610174D02*
X7182087Y-14619698D01*
X7391610Y-14733984D02*
X7372563Y-14724460D01*
X7372563Y-14724460D02*
X7363039Y-14714936D01*
X7363039Y-14714936D02*
X7353515Y-14695888D01*
X7353515Y-14695888D02*
X7353515Y-14638746D01*
X7353515Y-14638746D02*
X7363039Y-14619698D01*
X7363039Y-14619698D02*
X7372563Y-14610174D01*
X7372563Y-14610174D02*
X7391610Y-14600650D01*
X7391610Y-14600650D02*
X7420182Y-14600650D01*
X7420182Y-14600650D02*
X7439230Y-14610174D01*
X7439230Y-14610174D02*
X7448753Y-14619698D01*
X7448753Y-14619698D02*
X7458277Y-14638746D01*
X7458277Y-14638746D02*
X7458277Y-14695888D01*
X7458277Y-14695888D02*
X7448753Y-14714936D01*
X7448753Y-14714936D02*
X7439230Y-14724460D01*
X7439230Y-14724460D02*
X7420182Y-14733984D01*
X7420182Y-14733984D02*
X7391610Y-14733984D01*
X7572563Y-14733984D02*
X7553515Y-14724460D01*
X7553515Y-14724460D02*
X7543991Y-14705412D01*
X7543991Y-14705412D02*
X7543991Y-14533984D01*
X7724944Y-14724460D02*
X7705896Y-14733984D01*
X7705896Y-14733984D02*
X7667801Y-14733984D01*
X7667801Y-14733984D02*
X7648753Y-14724460D01*
X7648753Y-14724460D02*
X7639230Y-14705412D01*
X7639230Y-14705412D02*
X7639230Y-14629222D01*
X7639230Y-14629222D02*
X7648753Y-14610174D01*
X7648753Y-14610174D02*
X7667801Y-14600650D01*
X7667801Y-14600650D02*
X7705896Y-14600650D01*
X7705896Y-14600650D02*
X7724944Y-14610174D01*
X7724944Y-14610174D02*
X7734468Y-14629222D01*
X7734468Y-14629222D02*
X7734468Y-14648269D01*
X7734468Y-14648269D02*
X7639230Y-14667317D01*
X7810658Y-14724460D02*
X7829706Y-14733984D01*
X7829706Y-14733984D02*
X7867801Y-14733984D01*
X7867801Y-14733984D02*
X7886849Y-14724460D01*
X7886849Y-14724460D02*
X7896372Y-14705412D01*
X7896372Y-14705412D02*
X7896372Y-14695888D01*
X7896372Y-14695888D02*
X7886849Y-14676841D01*
X7886849Y-14676841D02*
X7867801Y-14667317D01*
X7867801Y-14667317D02*
X7839230Y-14667317D01*
X7839230Y-14667317D02*
X7820182Y-14657793D01*
X7820182Y-14657793D02*
X7810658Y-14638746D01*
X7810658Y-14638746D02*
X7810658Y-14629222D01*
X7810658Y-14629222D02*
X7820182Y-14610174D01*
X7820182Y-14610174D02*
X7839230Y-14600650D01*
X7839230Y-14600650D02*
X7867801Y-14600650D01*
X7867801Y-14600650D02*
X7886849Y-14610174D01*
X7963039Y-14810174D02*
X7972563Y-14800650D01*
X7972563Y-14800650D02*
X7991611Y-14772079D01*
X7991611Y-14772079D02*
X8001134Y-14753031D01*
X8001134Y-14753031D02*
X8010658Y-14724460D01*
X8010658Y-14724460D02*
X8020182Y-14676841D01*
X8020182Y-14676841D02*
X8020182Y-14638746D01*
X8020182Y-14638746D02*
X8010658Y-14591127D01*
X8010658Y-14591127D02*
X8001134Y-14562555D01*
X8001134Y-14562555D02*
X7991611Y-14543508D01*
X7991611Y-14543508D02*
X7972563Y-14514936D01*
X7972563Y-14514936D02*
X7963039Y-14505412D01*
D10*
X2997500Y-14906500D02*
G75*
G03*
X2957500Y-14906500I-20000J0D01*
G01*
X2957500Y-14906500D02*
G75*
G03*
X2997500Y-14906500I20000J0D01*
G01*
D12*
X3296372Y-14797984D02*
X3315420Y-14797984D01*
X3315420Y-14797984D02*
X3334467Y-14807508D01*
X3334467Y-14807508D02*
X3343991Y-14817031D01*
X3343991Y-14817031D02*
X3353515Y-14836079D01*
X3353515Y-14836079D02*
X3363039Y-14874174D01*
X3363039Y-14874174D02*
X3363039Y-14921793D01*
X3363039Y-14921793D02*
X3353515Y-14959888D01*
X3353515Y-14959888D02*
X3343991Y-14978936D01*
X3343991Y-14978936D02*
X3334467Y-14988460D01*
X3334467Y-14988460D02*
X3315420Y-14997984D01*
X3315420Y-14997984D02*
X3296372Y-14997984D01*
X3296372Y-14997984D02*
X3277324Y-14988460D01*
X3277324Y-14988460D02*
X3267801Y-14978936D01*
X3267801Y-14978936D02*
X3258277Y-14959888D01*
X3258277Y-14959888D02*
X3248753Y-14921793D01*
X3248753Y-14921793D02*
X3248753Y-14874174D01*
X3248753Y-14874174D02*
X3258277Y-14836079D01*
X3258277Y-14836079D02*
X3267801Y-14817031D01*
X3267801Y-14817031D02*
X3277324Y-14807508D01*
X3277324Y-14807508D02*
X3296372Y-14797984D01*
X3448753Y-14978936D02*
X3458277Y-14988460D01*
X3458277Y-14988460D02*
X3448753Y-14997984D01*
X3448753Y-14997984D02*
X3439229Y-14988460D01*
X3439229Y-14988460D02*
X3448753Y-14978936D01*
X3448753Y-14978936D02*
X3448753Y-14997984D01*
X3629705Y-14864650D02*
X3629705Y-14997984D01*
X3582086Y-14788460D02*
X3534467Y-14931317D01*
X3534467Y-14931317D02*
X3658277Y-14931317D01*
X3772562Y-14797984D02*
X3791610Y-14797984D01*
X3791610Y-14797984D02*
X3810658Y-14807508D01*
X3810658Y-14807508D02*
X3820182Y-14817031D01*
X3820182Y-14817031D02*
X3829705Y-14836079D01*
X3829705Y-14836079D02*
X3839229Y-14874174D01*
X3839229Y-14874174D02*
X3839229Y-14921793D01*
X3839229Y-14921793D02*
X3829705Y-14959888D01*
X3829705Y-14959888D02*
X3820182Y-14978936D01*
X3820182Y-14978936D02*
X3810658Y-14988460D01*
X3810658Y-14988460D02*
X3791610Y-14997984D01*
X3791610Y-14997984D02*
X3772562Y-14997984D01*
X3772562Y-14997984D02*
X3753515Y-14988460D01*
X3753515Y-14988460D02*
X3743991Y-14978936D01*
X3743991Y-14978936D02*
X3734467Y-14959888D01*
X3734467Y-14959888D02*
X3724943Y-14921793D01*
X3724943Y-14921793D02*
X3724943Y-14874174D01*
X3724943Y-14874174D02*
X3734467Y-14836079D01*
X3734467Y-14836079D02*
X3743991Y-14817031D01*
X3743991Y-14817031D02*
X3753515Y-14807508D01*
X3753515Y-14807508D02*
X3772562Y-14797984D01*
X3963039Y-14797984D02*
X3982086Y-14797984D01*
X3982086Y-14797984D02*
X4001134Y-14807508D01*
X4001134Y-14807508D02*
X4010658Y-14817031D01*
X4010658Y-14817031D02*
X4020182Y-14836079D01*
X4020182Y-14836079D02*
X4029705Y-14874174D01*
X4029705Y-14874174D02*
X4029705Y-14921793D01*
X4029705Y-14921793D02*
X4020182Y-14959888D01*
X4020182Y-14959888D02*
X4010658Y-14978936D01*
X4010658Y-14978936D02*
X4001134Y-14988460D01*
X4001134Y-14988460D02*
X3982086Y-14997984D01*
X3982086Y-14997984D02*
X3963039Y-14997984D01*
X3963039Y-14997984D02*
X3943991Y-14988460D01*
X3943991Y-14988460D02*
X3934467Y-14978936D01*
X3934467Y-14978936D02*
X3924943Y-14959888D01*
X3924943Y-14959888D02*
X3915420Y-14921793D01*
X3915420Y-14921793D02*
X3915420Y-14874174D01*
X3915420Y-14874174D02*
X3924943Y-14836079D01*
X3924943Y-14836079D02*
X3934467Y-14817031D01*
X3934467Y-14817031D02*
X3943991Y-14807508D01*
X3943991Y-14807508D02*
X3963039Y-14797984D01*
X4115420Y-14997984D02*
X4115420Y-14864650D01*
X4115420Y-14883698D02*
X4124943Y-14874174D01*
X4124943Y-14874174D02*
X4143991Y-14864650D01*
X4143991Y-14864650D02*
X4172563Y-14864650D01*
X4172563Y-14864650D02*
X4191610Y-14874174D01*
X4191610Y-14874174D02*
X4201134Y-14893222D01*
X4201134Y-14893222D02*
X4201134Y-14997984D01*
X4201134Y-14893222D02*
X4210658Y-14874174D01*
X4210658Y-14874174D02*
X4229705Y-14864650D01*
X4229705Y-14864650D02*
X4258277Y-14864650D01*
X4258277Y-14864650D02*
X4277325Y-14874174D01*
X4277325Y-14874174D02*
X4286848Y-14893222D01*
X4286848Y-14893222D02*
X4286848Y-14997984D01*
X4382086Y-14997984D02*
X4382086Y-14864650D01*
X4382086Y-14883698D02*
X4391610Y-14874174D01*
X4391610Y-14874174D02*
X4410658Y-14864650D01*
X4410658Y-14864650D02*
X4439229Y-14864650D01*
X4439229Y-14864650D02*
X4458277Y-14874174D01*
X4458277Y-14874174D02*
X4467801Y-14893222D01*
X4467801Y-14893222D02*
X4467801Y-14997984D01*
X4467801Y-14893222D02*
X4477325Y-14874174D01*
X4477325Y-14874174D02*
X4496372Y-14864650D01*
X4496372Y-14864650D02*
X4524944Y-14864650D01*
X4524944Y-14864650D02*
X4543991Y-14874174D01*
X4543991Y-14874174D02*
X4553515Y-14893222D01*
X4553515Y-14893222D02*
X4553515Y-14997984D01*
X4943991Y-14788460D02*
X4772563Y-15045603D01*
X5201134Y-14797984D02*
X5220182Y-14797984D01*
X5220182Y-14797984D02*
X5239229Y-14807508D01*
X5239229Y-14807508D02*
X5248753Y-14817031D01*
X5248753Y-14817031D02*
X5258277Y-14836079D01*
X5258277Y-14836079D02*
X5267801Y-14874174D01*
X5267801Y-14874174D02*
X5267801Y-14921793D01*
X5267801Y-14921793D02*
X5258277Y-14959888D01*
X5258277Y-14959888D02*
X5248753Y-14978936D01*
X5248753Y-14978936D02*
X5239229Y-14988460D01*
X5239229Y-14988460D02*
X5220182Y-14997984D01*
X5220182Y-14997984D02*
X5201134Y-14997984D01*
X5201134Y-14997984D02*
X5182087Y-14988460D01*
X5182087Y-14988460D02*
X5172563Y-14978936D01*
X5172563Y-14978936D02*
X5163039Y-14959888D01*
X5163039Y-14959888D02*
X5153515Y-14921793D01*
X5153515Y-14921793D02*
X5153515Y-14874174D01*
X5153515Y-14874174D02*
X5163039Y-14836079D01*
X5163039Y-14836079D02*
X5172563Y-14817031D01*
X5172563Y-14817031D02*
X5182087Y-14807508D01*
X5182087Y-14807508D02*
X5201134Y-14797984D01*
X5353515Y-14978936D02*
X5363039Y-14988460D01*
X5363039Y-14988460D02*
X5353515Y-14997984D01*
X5353515Y-14997984D02*
X5343991Y-14988460D01*
X5343991Y-14988460D02*
X5353515Y-14978936D01*
X5353515Y-14978936D02*
X5353515Y-14997984D01*
X5486848Y-14797984D02*
X5505896Y-14797984D01*
X5505896Y-14797984D02*
X5524944Y-14807508D01*
X5524944Y-14807508D02*
X5534468Y-14817031D01*
X5534468Y-14817031D02*
X5543991Y-14836079D01*
X5543991Y-14836079D02*
X5553515Y-14874174D01*
X5553515Y-14874174D02*
X5553515Y-14921793D01*
X5553515Y-14921793D02*
X5543991Y-14959888D01*
X5543991Y-14959888D02*
X5534468Y-14978936D01*
X5534468Y-14978936D02*
X5524944Y-14988460D01*
X5524944Y-14988460D02*
X5505896Y-14997984D01*
X5505896Y-14997984D02*
X5486848Y-14997984D01*
X5486848Y-14997984D02*
X5467801Y-14988460D01*
X5467801Y-14988460D02*
X5458277Y-14978936D01*
X5458277Y-14978936D02*
X5448753Y-14959888D01*
X5448753Y-14959888D02*
X5439229Y-14921793D01*
X5439229Y-14921793D02*
X5439229Y-14874174D01*
X5439229Y-14874174D02*
X5448753Y-14836079D01*
X5448753Y-14836079D02*
X5458277Y-14817031D01*
X5458277Y-14817031D02*
X5467801Y-14807508D01*
X5467801Y-14807508D02*
X5486848Y-14797984D01*
X5743991Y-14997984D02*
X5629706Y-14997984D01*
X5686848Y-14997984D02*
X5686848Y-14797984D01*
X5686848Y-14797984D02*
X5667801Y-14826555D01*
X5667801Y-14826555D02*
X5648753Y-14845603D01*
X5648753Y-14845603D02*
X5629706Y-14855127D01*
X5924944Y-14797984D02*
X5829706Y-14797984D01*
X5829706Y-14797984D02*
X5820182Y-14893222D01*
X5820182Y-14893222D02*
X5829706Y-14883698D01*
X5829706Y-14883698D02*
X5848753Y-14874174D01*
X5848753Y-14874174D02*
X5896372Y-14874174D01*
X5896372Y-14874174D02*
X5915420Y-14883698D01*
X5915420Y-14883698D02*
X5924944Y-14893222D01*
X5924944Y-14893222D02*
X5934467Y-14912269D01*
X5934467Y-14912269D02*
X5934467Y-14959888D01*
X5934467Y-14959888D02*
X5924944Y-14978936D01*
X5924944Y-14978936D02*
X5915420Y-14988460D01*
X5915420Y-14988460D02*
X5896372Y-14997984D01*
X5896372Y-14997984D02*
X5848753Y-14997984D01*
X5848753Y-14997984D02*
X5829706Y-14988460D01*
X5829706Y-14988460D02*
X5820182Y-14978936D01*
X6001134Y-14797984D02*
X6134467Y-14797984D01*
X6134467Y-14797984D02*
X6048753Y-14997984D01*
X6201134Y-14797984D02*
X6201134Y-14836079D01*
X6277325Y-14797984D02*
X6277325Y-14836079D01*
X6572563Y-15074174D02*
X6563039Y-15064650D01*
X6563039Y-15064650D02*
X6543991Y-15036079D01*
X6543991Y-15036079D02*
X6534468Y-15017031D01*
X6534468Y-15017031D02*
X6524944Y-14988460D01*
X6524944Y-14988460D02*
X6515420Y-14940841D01*
X6515420Y-14940841D02*
X6515420Y-14902746D01*
X6515420Y-14902746D02*
X6524944Y-14855127D01*
X6524944Y-14855127D02*
X6534468Y-14826555D01*
X6534468Y-14826555D02*
X6543991Y-14807508D01*
X6543991Y-14807508D02*
X6563039Y-14778936D01*
X6563039Y-14778936D02*
X6572563Y-14769412D01*
X6734468Y-14864650D02*
X6734468Y-14997984D01*
X6686848Y-14788460D02*
X6639229Y-14931317D01*
X6639229Y-14931317D02*
X6763039Y-14931317D01*
X6867801Y-14883698D02*
X6848753Y-14874174D01*
X6848753Y-14874174D02*
X6839229Y-14864650D01*
X6839229Y-14864650D02*
X6829706Y-14845603D01*
X6829706Y-14845603D02*
X6829706Y-14836079D01*
X6829706Y-14836079D02*
X6839229Y-14817031D01*
X6839229Y-14817031D02*
X6848753Y-14807508D01*
X6848753Y-14807508D02*
X6867801Y-14797984D01*
X6867801Y-14797984D02*
X6905896Y-14797984D01*
X6905896Y-14797984D02*
X6924944Y-14807508D01*
X6924944Y-14807508D02*
X6934468Y-14817031D01*
X6934468Y-14817031D02*
X6943991Y-14836079D01*
X6943991Y-14836079D02*
X6943991Y-14845603D01*
X6943991Y-14845603D02*
X6934468Y-14864650D01*
X6934468Y-14864650D02*
X6924944Y-14874174D01*
X6924944Y-14874174D02*
X6905896Y-14883698D01*
X6905896Y-14883698D02*
X6867801Y-14883698D01*
X6867801Y-14883698D02*
X6848753Y-14893222D01*
X6848753Y-14893222D02*
X6839229Y-14902746D01*
X6839229Y-14902746D02*
X6829706Y-14921793D01*
X6829706Y-14921793D02*
X6829706Y-14959888D01*
X6829706Y-14959888D02*
X6839229Y-14978936D01*
X6839229Y-14978936D02*
X6848753Y-14988460D01*
X6848753Y-14988460D02*
X6867801Y-14997984D01*
X6867801Y-14997984D02*
X6905896Y-14997984D01*
X6905896Y-14997984D02*
X6924944Y-14988460D01*
X6924944Y-14988460D02*
X6934468Y-14978936D01*
X6934468Y-14978936D02*
X6943991Y-14959888D01*
X6943991Y-14959888D02*
X6943991Y-14921793D01*
X6943991Y-14921793D02*
X6934468Y-14902746D01*
X6934468Y-14902746D02*
X6924944Y-14893222D01*
X6924944Y-14893222D02*
X6905896Y-14883698D01*
X7182087Y-14997984D02*
X7182087Y-14797984D01*
X7267801Y-14997984D02*
X7267801Y-14893222D01*
X7267801Y-14893222D02*
X7258277Y-14874174D01*
X7258277Y-14874174D02*
X7239230Y-14864650D01*
X7239230Y-14864650D02*
X7210658Y-14864650D01*
X7210658Y-14864650D02*
X7191610Y-14874174D01*
X7191610Y-14874174D02*
X7182087Y-14883698D01*
X7391610Y-14997984D02*
X7372563Y-14988460D01*
X7372563Y-14988460D02*
X7363039Y-14978936D01*
X7363039Y-14978936D02*
X7353515Y-14959888D01*
X7353515Y-14959888D02*
X7353515Y-14902746D01*
X7353515Y-14902746D02*
X7363039Y-14883698D01*
X7363039Y-14883698D02*
X7372563Y-14874174D01*
X7372563Y-14874174D02*
X7391610Y-14864650D01*
X7391610Y-14864650D02*
X7420182Y-14864650D01*
X7420182Y-14864650D02*
X7439230Y-14874174D01*
X7439230Y-14874174D02*
X7448753Y-14883698D01*
X7448753Y-14883698D02*
X7458277Y-14902746D01*
X7458277Y-14902746D02*
X7458277Y-14959888D01*
X7458277Y-14959888D02*
X7448753Y-14978936D01*
X7448753Y-14978936D02*
X7439230Y-14988460D01*
X7439230Y-14988460D02*
X7420182Y-14997984D01*
X7420182Y-14997984D02*
X7391610Y-14997984D01*
X7572563Y-14997984D02*
X7553515Y-14988460D01*
X7553515Y-14988460D02*
X7543991Y-14969412D01*
X7543991Y-14969412D02*
X7543991Y-14797984D01*
X7724944Y-14988460D02*
X7705896Y-14997984D01*
X7705896Y-14997984D02*
X7667801Y-14997984D01*
X7667801Y-14997984D02*
X7648753Y-14988460D01*
X7648753Y-14988460D02*
X7639230Y-14969412D01*
X7639230Y-14969412D02*
X7639230Y-14893222D01*
X7639230Y-14893222D02*
X7648753Y-14874174D01*
X7648753Y-14874174D02*
X7667801Y-14864650D01*
X7667801Y-14864650D02*
X7705896Y-14864650D01*
X7705896Y-14864650D02*
X7724944Y-14874174D01*
X7724944Y-14874174D02*
X7734468Y-14893222D01*
X7734468Y-14893222D02*
X7734468Y-14912269D01*
X7734468Y-14912269D02*
X7639230Y-14931317D01*
X7810658Y-14988460D02*
X7829706Y-14997984D01*
X7829706Y-14997984D02*
X7867801Y-14997984D01*
X7867801Y-14997984D02*
X7886849Y-14988460D01*
X7886849Y-14988460D02*
X7896372Y-14969412D01*
X7896372Y-14969412D02*
X7896372Y-14959888D01*
X7896372Y-14959888D02*
X7886849Y-14940841D01*
X7886849Y-14940841D02*
X7867801Y-14931317D01*
X7867801Y-14931317D02*
X7839230Y-14931317D01*
X7839230Y-14931317D02*
X7820182Y-14921793D01*
X7820182Y-14921793D02*
X7810658Y-14902746D01*
X7810658Y-14902746D02*
X7810658Y-14893222D01*
X7810658Y-14893222D02*
X7820182Y-14874174D01*
X7820182Y-14874174D02*
X7839230Y-14864650D01*
X7839230Y-14864650D02*
X7867801Y-14864650D01*
X7867801Y-14864650D02*
X7886849Y-14874174D01*
X7963039Y-15074174D02*
X7972563Y-15064650D01*
X7972563Y-15064650D02*
X7991611Y-15036079D01*
X7991611Y-15036079D02*
X8001134Y-15017031D01*
X8001134Y-15017031D02*
X8010658Y-14988460D01*
X8010658Y-14988460D02*
X8020182Y-14940841D01*
X8020182Y-14940841D02*
X8020182Y-14902746D01*
X8020182Y-14902746D02*
X8010658Y-14855127D01*
X8010658Y-14855127D02*
X8001134Y-14826555D01*
X8001134Y-14826555D02*
X7991611Y-14807508D01*
X7991611Y-14807508D02*
X7972563Y-14778936D01*
X7972563Y-14778936D02*
X7963039Y-14769412D01*
D10*
X2960000Y-15133000D02*
X2960000Y-15208000D01*
X2922500Y-15170500D02*
X2997500Y-15170500D01*
D12*
X3296372Y-15061984D02*
X3315420Y-15061984D01*
X3315420Y-15061984D02*
X3334467Y-15071508D01*
X3334467Y-15071508D02*
X3343991Y-15081031D01*
X3343991Y-15081031D02*
X3353515Y-15100079D01*
X3353515Y-15100079D02*
X3363039Y-15138174D01*
X3363039Y-15138174D02*
X3363039Y-15185793D01*
X3363039Y-15185793D02*
X3353515Y-15223888D01*
X3353515Y-15223888D02*
X3343991Y-15242936D01*
X3343991Y-15242936D02*
X3334467Y-15252460D01*
X3334467Y-15252460D02*
X3315420Y-15261984D01*
X3315420Y-15261984D02*
X3296372Y-15261984D01*
X3296372Y-15261984D02*
X3277324Y-15252460D01*
X3277324Y-15252460D02*
X3267801Y-15242936D01*
X3267801Y-15242936D02*
X3258277Y-15223888D01*
X3258277Y-15223888D02*
X3248753Y-15185793D01*
X3248753Y-15185793D02*
X3248753Y-15138174D01*
X3248753Y-15138174D02*
X3258277Y-15100079D01*
X3258277Y-15100079D02*
X3267801Y-15081031D01*
X3267801Y-15081031D02*
X3277324Y-15071508D01*
X3277324Y-15071508D02*
X3296372Y-15061984D01*
X3448753Y-15242936D02*
X3458277Y-15252460D01*
X3458277Y-15252460D02*
X3448753Y-15261984D01*
X3448753Y-15261984D02*
X3439229Y-15252460D01*
X3439229Y-15252460D02*
X3448753Y-15242936D01*
X3448753Y-15242936D02*
X3448753Y-15261984D01*
X3524943Y-15061984D02*
X3658277Y-15061984D01*
X3658277Y-15061984D02*
X3572562Y-15261984D01*
X3829705Y-15061984D02*
X3734467Y-15061984D01*
X3734467Y-15061984D02*
X3724943Y-15157222D01*
X3724943Y-15157222D02*
X3734467Y-15147698D01*
X3734467Y-15147698D02*
X3753515Y-15138174D01*
X3753515Y-15138174D02*
X3801134Y-15138174D01*
X3801134Y-15138174D02*
X3820182Y-15147698D01*
X3820182Y-15147698D02*
X3829705Y-15157222D01*
X3829705Y-15157222D02*
X3839229Y-15176269D01*
X3839229Y-15176269D02*
X3839229Y-15223888D01*
X3839229Y-15223888D02*
X3829705Y-15242936D01*
X3829705Y-15242936D02*
X3820182Y-15252460D01*
X3820182Y-15252460D02*
X3801134Y-15261984D01*
X3801134Y-15261984D02*
X3753515Y-15261984D01*
X3753515Y-15261984D02*
X3734467Y-15252460D01*
X3734467Y-15252460D02*
X3724943Y-15242936D01*
X3963039Y-15061984D02*
X3982086Y-15061984D01*
X3982086Y-15061984D02*
X4001134Y-15071508D01*
X4001134Y-15071508D02*
X4010658Y-15081031D01*
X4010658Y-15081031D02*
X4020182Y-15100079D01*
X4020182Y-15100079D02*
X4029705Y-15138174D01*
X4029705Y-15138174D02*
X4029705Y-15185793D01*
X4029705Y-15185793D02*
X4020182Y-15223888D01*
X4020182Y-15223888D02*
X4010658Y-15242936D01*
X4010658Y-15242936D02*
X4001134Y-15252460D01*
X4001134Y-15252460D02*
X3982086Y-15261984D01*
X3982086Y-15261984D02*
X3963039Y-15261984D01*
X3963039Y-15261984D02*
X3943991Y-15252460D01*
X3943991Y-15252460D02*
X3934467Y-15242936D01*
X3934467Y-15242936D02*
X3924943Y-15223888D01*
X3924943Y-15223888D02*
X3915420Y-15185793D01*
X3915420Y-15185793D02*
X3915420Y-15138174D01*
X3915420Y-15138174D02*
X3924943Y-15100079D01*
X3924943Y-15100079D02*
X3934467Y-15081031D01*
X3934467Y-15081031D02*
X3943991Y-15071508D01*
X3943991Y-15071508D02*
X3963039Y-15061984D01*
X4115420Y-15261984D02*
X4115420Y-15128650D01*
X4115420Y-15147698D02*
X4124943Y-15138174D01*
X4124943Y-15138174D02*
X4143991Y-15128650D01*
X4143991Y-15128650D02*
X4172563Y-15128650D01*
X4172563Y-15128650D02*
X4191610Y-15138174D01*
X4191610Y-15138174D02*
X4201134Y-15157222D01*
X4201134Y-15157222D02*
X4201134Y-15261984D01*
X4201134Y-15157222D02*
X4210658Y-15138174D01*
X4210658Y-15138174D02*
X4229705Y-15128650D01*
X4229705Y-15128650D02*
X4258277Y-15128650D01*
X4258277Y-15128650D02*
X4277325Y-15138174D01*
X4277325Y-15138174D02*
X4286848Y-15157222D01*
X4286848Y-15157222D02*
X4286848Y-15261984D01*
X4382086Y-15261984D02*
X4382086Y-15128650D01*
X4382086Y-15147698D02*
X4391610Y-15138174D01*
X4391610Y-15138174D02*
X4410658Y-15128650D01*
X4410658Y-15128650D02*
X4439229Y-15128650D01*
X4439229Y-15128650D02*
X4458277Y-15138174D01*
X4458277Y-15138174D02*
X4467801Y-15157222D01*
X4467801Y-15157222D02*
X4467801Y-15261984D01*
X4467801Y-15157222D02*
X4477325Y-15138174D01*
X4477325Y-15138174D02*
X4496372Y-15128650D01*
X4496372Y-15128650D02*
X4524944Y-15128650D01*
X4524944Y-15128650D02*
X4543991Y-15138174D01*
X4543991Y-15138174D02*
X4553515Y-15157222D01*
X4553515Y-15157222D02*
X4553515Y-15261984D01*
X4943991Y-15052460D02*
X4772563Y-15309603D01*
X5201134Y-15061984D02*
X5220182Y-15061984D01*
X5220182Y-15061984D02*
X5239229Y-15071508D01*
X5239229Y-15071508D02*
X5248753Y-15081031D01*
X5248753Y-15081031D02*
X5258277Y-15100079D01*
X5258277Y-15100079D02*
X5267801Y-15138174D01*
X5267801Y-15138174D02*
X5267801Y-15185793D01*
X5267801Y-15185793D02*
X5258277Y-15223888D01*
X5258277Y-15223888D02*
X5248753Y-15242936D01*
X5248753Y-15242936D02*
X5239229Y-15252460D01*
X5239229Y-15252460D02*
X5220182Y-15261984D01*
X5220182Y-15261984D02*
X5201134Y-15261984D01*
X5201134Y-15261984D02*
X5182087Y-15252460D01*
X5182087Y-15252460D02*
X5172563Y-15242936D01*
X5172563Y-15242936D02*
X5163039Y-15223888D01*
X5163039Y-15223888D02*
X5153515Y-15185793D01*
X5153515Y-15185793D02*
X5153515Y-15138174D01*
X5153515Y-15138174D02*
X5163039Y-15100079D01*
X5163039Y-15100079D02*
X5172563Y-15081031D01*
X5172563Y-15081031D02*
X5182087Y-15071508D01*
X5182087Y-15071508D02*
X5201134Y-15061984D01*
X5353515Y-15242936D02*
X5363039Y-15252460D01*
X5363039Y-15252460D02*
X5353515Y-15261984D01*
X5353515Y-15261984D02*
X5343991Y-15252460D01*
X5343991Y-15252460D02*
X5353515Y-15242936D01*
X5353515Y-15242936D02*
X5353515Y-15261984D01*
X5486848Y-15061984D02*
X5505896Y-15061984D01*
X5505896Y-15061984D02*
X5524944Y-15071508D01*
X5524944Y-15071508D02*
X5534468Y-15081031D01*
X5534468Y-15081031D02*
X5543991Y-15100079D01*
X5543991Y-15100079D02*
X5553515Y-15138174D01*
X5553515Y-15138174D02*
X5553515Y-15185793D01*
X5553515Y-15185793D02*
X5543991Y-15223888D01*
X5543991Y-15223888D02*
X5534468Y-15242936D01*
X5534468Y-15242936D02*
X5524944Y-15252460D01*
X5524944Y-15252460D02*
X5505896Y-15261984D01*
X5505896Y-15261984D02*
X5486848Y-15261984D01*
X5486848Y-15261984D02*
X5467801Y-15252460D01*
X5467801Y-15252460D02*
X5458277Y-15242936D01*
X5458277Y-15242936D02*
X5448753Y-15223888D01*
X5448753Y-15223888D02*
X5439229Y-15185793D01*
X5439229Y-15185793D02*
X5439229Y-15138174D01*
X5439229Y-15138174D02*
X5448753Y-15100079D01*
X5448753Y-15100079D02*
X5458277Y-15081031D01*
X5458277Y-15081031D02*
X5467801Y-15071508D01*
X5467801Y-15071508D02*
X5486848Y-15061984D01*
X5629706Y-15081031D02*
X5639229Y-15071508D01*
X5639229Y-15071508D02*
X5658277Y-15061984D01*
X5658277Y-15061984D02*
X5705896Y-15061984D01*
X5705896Y-15061984D02*
X5724944Y-15071508D01*
X5724944Y-15071508D02*
X5734467Y-15081031D01*
X5734467Y-15081031D02*
X5743991Y-15100079D01*
X5743991Y-15100079D02*
X5743991Y-15119127D01*
X5743991Y-15119127D02*
X5734467Y-15147698D01*
X5734467Y-15147698D02*
X5620182Y-15261984D01*
X5620182Y-15261984D02*
X5743991Y-15261984D01*
X5839229Y-15261984D02*
X5877325Y-15261984D01*
X5877325Y-15261984D02*
X5896372Y-15252460D01*
X5896372Y-15252460D02*
X5905896Y-15242936D01*
X5905896Y-15242936D02*
X5924944Y-15214365D01*
X5924944Y-15214365D02*
X5934467Y-15176269D01*
X5934467Y-15176269D02*
X5934467Y-15100079D01*
X5934467Y-15100079D02*
X5924944Y-15081031D01*
X5924944Y-15081031D02*
X5915420Y-15071508D01*
X5915420Y-15071508D02*
X5896372Y-15061984D01*
X5896372Y-15061984D02*
X5858277Y-15061984D01*
X5858277Y-15061984D02*
X5839229Y-15071508D01*
X5839229Y-15071508D02*
X5829706Y-15081031D01*
X5829706Y-15081031D02*
X5820182Y-15100079D01*
X5820182Y-15100079D02*
X5820182Y-15147698D01*
X5820182Y-15147698D02*
X5829706Y-15166746D01*
X5829706Y-15166746D02*
X5839229Y-15176269D01*
X5839229Y-15176269D02*
X5858277Y-15185793D01*
X5858277Y-15185793D02*
X5896372Y-15185793D01*
X5896372Y-15185793D02*
X5915420Y-15176269D01*
X5915420Y-15176269D02*
X5924944Y-15166746D01*
X5924944Y-15166746D02*
X5934467Y-15147698D01*
X6115420Y-15061984D02*
X6020182Y-15061984D01*
X6020182Y-15061984D02*
X6010658Y-15157222D01*
X6010658Y-15157222D02*
X6020182Y-15147698D01*
X6020182Y-15147698D02*
X6039229Y-15138174D01*
X6039229Y-15138174D02*
X6086848Y-15138174D01*
X6086848Y-15138174D02*
X6105896Y-15147698D01*
X6105896Y-15147698D02*
X6115420Y-15157222D01*
X6115420Y-15157222D02*
X6124944Y-15176269D01*
X6124944Y-15176269D02*
X6124944Y-15223888D01*
X6124944Y-15223888D02*
X6115420Y-15242936D01*
X6115420Y-15242936D02*
X6105896Y-15252460D01*
X6105896Y-15252460D02*
X6086848Y-15261984D01*
X6086848Y-15261984D02*
X6039229Y-15261984D01*
X6039229Y-15261984D02*
X6020182Y-15252460D01*
X6020182Y-15252460D02*
X6010658Y-15242936D01*
X6201134Y-15061984D02*
X6201134Y-15100079D01*
X6277325Y-15061984D02*
X6277325Y-15100079D01*
X6572563Y-15338174D02*
X6563039Y-15328650D01*
X6563039Y-15328650D02*
X6543991Y-15300079D01*
X6543991Y-15300079D02*
X6534468Y-15281031D01*
X6534468Y-15281031D02*
X6524944Y-15252460D01*
X6524944Y-15252460D02*
X6515420Y-15204841D01*
X6515420Y-15204841D02*
X6515420Y-15166746D01*
X6515420Y-15166746D02*
X6524944Y-15119127D01*
X6524944Y-15119127D02*
X6534468Y-15090555D01*
X6534468Y-15090555D02*
X6543991Y-15071508D01*
X6543991Y-15071508D02*
X6563039Y-15042936D01*
X6563039Y-15042936D02*
X6572563Y-15033412D01*
X6639229Y-15081031D02*
X6648753Y-15071508D01*
X6648753Y-15071508D02*
X6667801Y-15061984D01*
X6667801Y-15061984D02*
X6715420Y-15061984D01*
X6715420Y-15061984D02*
X6734468Y-15071508D01*
X6734468Y-15071508D02*
X6743991Y-15081031D01*
X6743991Y-15081031D02*
X6753515Y-15100079D01*
X6753515Y-15100079D02*
X6753515Y-15119127D01*
X6753515Y-15119127D02*
X6743991Y-15147698D01*
X6743991Y-15147698D02*
X6629706Y-15261984D01*
X6629706Y-15261984D02*
X6753515Y-15261984D01*
X6991610Y-15261984D02*
X6991610Y-15061984D01*
X7077325Y-15261984D02*
X7077325Y-15157222D01*
X7077325Y-15157222D02*
X7067801Y-15138174D01*
X7067801Y-15138174D02*
X7048753Y-15128650D01*
X7048753Y-15128650D02*
X7020182Y-15128650D01*
X7020182Y-15128650D02*
X7001134Y-15138174D01*
X7001134Y-15138174D02*
X6991610Y-15147698D01*
X7201134Y-15261984D02*
X7182087Y-15252460D01*
X7182087Y-15252460D02*
X7172563Y-15242936D01*
X7172563Y-15242936D02*
X7163039Y-15223888D01*
X7163039Y-15223888D02*
X7163039Y-15166746D01*
X7163039Y-15166746D02*
X7172563Y-15147698D01*
X7172563Y-15147698D02*
X7182087Y-15138174D01*
X7182087Y-15138174D02*
X7201134Y-15128650D01*
X7201134Y-15128650D02*
X7229706Y-15128650D01*
X7229706Y-15128650D02*
X7248753Y-15138174D01*
X7248753Y-15138174D02*
X7258277Y-15147698D01*
X7258277Y-15147698D02*
X7267801Y-15166746D01*
X7267801Y-15166746D02*
X7267801Y-15223888D01*
X7267801Y-15223888D02*
X7258277Y-15242936D01*
X7258277Y-15242936D02*
X7248753Y-15252460D01*
X7248753Y-15252460D02*
X7229706Y-15261984D01*
X7229706Y-15261984D02*
X7201134Y-15261984D01*
X7382087Y-15261984D02*
X7363039Y-15252460D01*
X7363039Y-15252460D02*
X7353515Y-15233412D01*
X7353515Y-15233412D02*
X7353515Y-15061984D01*
X7534468Y-15252460D02*
X7515420Y-15261984D01*
X7515420Y-15261984D02*
X7477325Y-15261984D01*
X7477325Y-15261984D02*
X7458277Y-15252460D01*
X7458277Y-15252460D02*
X7448753Y-15233412D01*
X7448753Y-15233412D02*
X7448753Y-15157222D01*
X7448753Y-15157222D02*
X7458277Y-15138174D01*
X7458277Y-15138174D02*
X7477325Y-15128650D01*
X7477325Y-15128650D02*
X7515420Y-15128650D01*
X7515420Y-15128650D02*
X7534468Y-15138174D01*
X7534468Y-15138174D02*
X7543991Y-15157222D01*
X7543991Y-15157222D02*
X7543991Y-15176269D01*
X7543991Y-15176269D02*
X7448753Y-15195317D01*
X7620182Y-15252460D02*
X7639230Y-15261984D01*
X7639230Y-15261984D02*
X7677325Y-15261984D01*
X7677325Y-15261984D02*
X7696372Y-15252460D01*
X7696372Y-15252460D02*
X7705896Y-15233412D01*
X7705896Y-15233412D02*
X7705896Y-15223888D01*
X7705896Y-15223888D02*
X7696372Y-15204841D01*
X7696372Y-15204841D02*
X7677325Y-15195317D01*
X7677325Y-15195317D02*
X7648753Y-15195317D01*
X7648753Y-15195317D02*
X7629706Y-15185793D01*
X7629706Y-15185793D02*
X7620182Y-15166746D01*
X7620182Y-15166746D02*
X7620182Y-15157222D01*
X7620182Y-15157222D02*
X7629706Y-15138174D01*
X7629706Y-15138174D02*
X7648753Y-15128650D01*
X7648753Y-15128650D02*
X7677325Y-15128650D01*
X7677325Y-15128650D02*
X7696372Y-15138174D01*
X7772563Y-15338174D02*
X7782087Y-15328650D01*
X7782087Y-15328650D02*
X7801134Y-15300079D01*
X7801134Y-15300079D02*
X7810658Y-15281031D01*
X7810658Y-15281031D02*
X7820182Y-15252460D01*
X7820182Y-15252460D02*
X7829706Y-15204841D01*
X7829706Y-15204841D02*
X7829706Y-15166746D01*
X7829706Y-15166746D02*
X7820182Y-15119127D01*
X7820182Y-15119127D02*
X7810658Y-15090555D01*
X7810658Y-15090555D02*
X7801134Y-15071508D01*
X7801134Y-15071508D02*
X7782087Y-15042936D01*
X7782087Y-15042936D02*
X7772563Y-15033412D01*
D10*
X2985784Y-15462784D02*
X2985784Y-15406215D01*
X2929215Y-15406215D01*
X2929215Y-15462784D01*
X2985784Y-15462784D01*
D12*
X3296372Y-15325984D02*
X3315420Y-15325984D01*
X3315420Y-15325984D02*
X3334467Y-15335508D01*
X3334467Y-15335508D02*
X3343991Y-15345031D01*
X3343991Y-15345031D02*
X3353515Y-15364079D01*
X3353515Y-15364079D02*
X3363039Y-15402174D01*
X3363039Y-15402174D02*
X3363039Y-15449793D01*
X3363039Y-15449793D02*
X3353515Y-15487888D01*
X3353515Y-15487888D02*
X3343991Y-15506936D01*
X3343991Y-15506936D02*
X3334467Y-15516460D01*
X3334467Y-15516460D02*
X3315420Y-15525984D01*
X3315420Y-15525984D02*
X3296372Y-15525984D01*
X3296372Y-15525984D02*
X3277324Y-15516460D01*
X3277324Y-15516460D02*
X3267801Y-15506936D01*
X3267801Y-15506936D02*
X3258277Y-15487888D01*
X3258277Y-15487888D02*
X3248753Y-15449793D01*
X3248753Y-15449793D02*
X3248753Y-15402174D01*
X3248753Y-15402174D02*
X3258277Y-15364079D01*
X3258277Y-15364079D02*
X3267801Y-15345031D01*
X3267801Y-15345031D02*
X3277324Y-15335508D01*
X3277324Y-15335508D02*
X3296372Y-15325984D01*
X3448753Y-15506936D02*
X3458277Y-15516460D01*
X3458277Y-15516460D02*
X3448753Y-15525984D01*
X3448753Y-15525984D02*
X3439229Y-15516460D01*
X3439229Y-15516460D02*
X3448753Y-15506936D01*
X3448753Y-15506936D02*
X3448753Y-15525984D01*
X3572562Y-15411698D02*
X3553515Y-15402174D01*
X3553515Y-15402174D02*
X3543991Y-15392650D01*
X3543991Y-15392650D02*
X3534467Y-15373603D01*
X3534467Y-15373603D02*
X3534467Y-15364079D01*
X3534467Y-15364079D02*
X3543991Y-15345031D01*
X3543991Y-15345031D02*
X3553515Y-15335508D01*
X3553515Y-15335508D02*
X3572562Y-15325984D01*
X3572562Y-15325984D02*
X3610658Y-15325984D01*
X3610658Y-15325984D02*
X3629705Y-15335508D01*
X3629705Y-15335508D02*
X3639229Y-15345031D01*
X3639229Y-15345031D02*
X3648753Y-15364079D01*
X3648753Y-15364079D02*
X3648753Y-15373603D01*
X3648753Y-15373603D02*
X3639229Y-15392650D01*
X3639229Y-15392650D02*
X3629705Y-15402174D01*
X3629705Y-15402174D02*
X3610658Y-15411698D01*
X3610658Y-15411698D02*
X3572562Y-15411698D01*
X3572562Y-15411698D02*
X3553515Y-15421222D01*
X3553515Y-15421222D02*
X3543991Y-15430746D01*
X3543991Y-15430746D02*
X3534467Y-15449793D01*
X3534467Y-15449793D02*
X3534467Y-15487888D01*
X3534467Y-15487888D02*
X3543991Y-15506936D01*
X3543991Y-15506936D02*
X3553515Y-15516460D01*
X3553515Y-15516460D02*
X3572562Y-15525984D01*
X3572562Y-15525984D02*
X3610658Y-15525984D01*
X3610658Y-15525984D02*
X3629705Y-15516460D01*
X3629705Y-15516460D02*
X3639229Y-15506936D01*
X3639229Y-15506936D02*
X3648753Y-15487888D01*
X3648753Y-15487888D02*
X3648753Y-15449793D01*
X3648753Y-15449793D02*
X3639229Y-15430746D01*
X3639229Y-15430746D02*
X3629705Y-15421222D01*
X3629705Y-15421222D02*
X3610658Y-15411698D01*
X3772562Y-15325984D02*
X3791610Y-15325984D01*
X3791610Y-15325984D02*
X3810658Y-15335508D01*
X3810658Y-15335508D02*
X3820182Y-15345031D01*
X3820182Y-15345031D02*
X3829705Y-15364079D01*
X3829705Y-15364079D02*
X3839229Y-15402174D01*
X3839229Y-15402174D02*
X3839229Y-15449793D01*
X3839229Y-15449793D02*
X3829705Y-15487888D01*
X3829705Y-15487888D02*
X3820182Y-15506936D01*
X3820182Y-15506936D02*
X3810658Y-15516460D01*
X3810658Y-15516460D02*
X3791610Y-15525984D01*
X3791610Y-15525984D02*
X3772562Y-15525984D01*
X3772562Y-15525984D02*
X3753515Y-15516460D01*
X3753515Y-15516460D02*
X3743991Y-15506936D01*
X3743991Y-15506936D02*
X3734467Y-15487888D01*
X3734467Y-15487888D02*
X3724943Y-15449793D01*
X3724943Y-15449793D02*
X3724943Y-15402174D01*
X3724943Y-15402174D02*
X3734467Y-15364079D01*
X3734467Y-15364079D02*
X3743991Y-15345031D01*
X3743991Y-15345031D02*
X3753515Y-15335508D01*
X3753515Y-15335508D02*
X3772562Y-15325984D01*
X3963039Y-15325984D02*
X3982086Y-15325984D01*
X3982086Y-15325984D02*
X4001134Y-15335508D01*
X4001134Y-15335508D02*
X4010658Y-15345031D01*
X4010658Y-15345031D02*
X4020182Y-15364079D01*
X4020182Y-15364079D02*
X4029705Y-15402174D01*
X4029705Y-15402174D02*
X4029705Y-15449793D01*
X4029705Y-15449793D02*
X4020182Y-15487888D01*
X4020182Y-15487888D02*
X4010658Y-15506936D01*
X4010658Y-15506936D02*
X4001134Y-15516460D01*
X4001134Y-15516460D02*
X3982086Y-15525984D01*
X3982086Y-15525984D02*
X3963039Y-15525984D01*
X3963039Y-15525984D02*
X3943991Y-15516460D01*
X3943991Y-15516460D02*
X3934467Y-15506936D01*
X3934467Y-15506936D02*
X3924943Y-15487888D01*
X3924943Y-15487888D02*
X3915420Y-15449793D01*
X3915420Y-15449793D02*
X3915420Y-15402174D01*
X3915420Y-15402174D02*
X3924943Y-15364079D01*
X3924943Y-15364079D02*
X3934467Y-15345031D01*
X3934467Y-15345031D02*
X3943991Y-15335508D01*
X3943991Y-15335508D02*
X3963039Y-15325984D01*
X4115420Y-15525984D02*
X4115420Y-15392650D01*
X4115420Y-15411698D02*
X4124943Y-15402174D01*
X4124943Y-15402174D02*
X4143991Y-15392650D01*
X4143991Y-15392650D02*
X4172563Y-15392650D01*
X4172563Y-15392650D02*
X4191610Y-15402174D01*
X4191610Y-15402174D02*
X4201134Y-15421222D01*
X4201134Y-15421222D02*
X4201134Y-15525984D01*
X4201134Y-15421222D02*
X4210658Y-15402174D01*
X4210658Y-15402174D02*
X4229705Y-15392650D01*
X4229705Y-15392650D02*
X4258277Y-15392650D01*
X4258277Y-15392650D02*
X4277325Y-15402174D01*
X4277325Y-15402174D02*
X4286848Y-15421222D01*
X4286848Y-15421222D02*
X4286848Y-15525984D01*
X4382086Y-15525984D02*
X4382086Y-15392650D01*
X4382086Y-15411698D02*
X4391610Y-15402174D01*
X4391610Y-15402174D02*
X4410658Y-15392650D01*
X4410658Y-15392650D02*
X4439229Y-15392650D01*
X4439229Y-15392650D02*
X4458277Y-15402174D01*
X4458277Y-15402174D02*
X4467801Y-15421222D01*
X4467801Y-15421222D02*
X4467801Y-15525984D01*
X4467801Y-15421222D02*
X4477325Y-15402174D01*
X4477325Y-15402174D02*
X4496372Y-15392650D01*
X4496372Y-15392650D02*
X4524944Y-15392650D01*
X4524944Y-15392650D02*
X4543991Y-15402174D01*
X4543991Y-15402174D02*
X4553515Y-15421222D01*
X4553515Y-15421222D02*
X4553515Y-15525984D01*
X4943991Y-15316460D02*
X4772563Y-15573603D01*
X5201134Y-15325984D02*
X5220182Y-15325984D01*
X5220182Y-15325984D02*
X5239229Y-15335508D01*
X5239229Y-15335508D02*
X5248753Y-15345031D01*
X5248753Y-15345031D02*
X5258277Y-15364079D01*
X5258277Y-15364079D02*
X5267801Y-15402174D01*
X5267801Y-15402174D02*
X5267801Y-15449793D01*
X5267801Y-15449793D02*
X5258277Y-15487888D01*
X5258277Y-15487888D02*
X5248753Y-15506936D01*
X5248753Y-15506936D02*
X5239229Y-15516460D01*
X5239229Y-15516460D02*
X5220182Y-15525984D01*
X5220182Y-15525984D02*
X5201134Y-15525984D01*
X5201134Y-15525984D02*
X5182087Y-15516460D01*
X5182087Y-15516460D02*
X5172563Y-15506936D01*
X5172563Y-15506936D02*
X5163039Y-15487888D01*
X5163039Y-15487888D02*
X5153515Y-15449793D01*
X5153515Y-15449793D02*
X5153515Y-15402174D01*
X5153515Y-15402174D02*
X5163039Y-15364079D01*
X5163039Y-15364079D02*
X5172563Y-15345031D01*
X5172563Y-15345031D02*
X5182087Y-15335508D01*
X5182087Y-15335508D02*
X5201134Y-15325984D01*
X5353515Y-15506936D02*
X5363039Y-15516460D01*
X5363039Y-15516460D02*
X5353515Y-15525984D01*
X5353515Y-15525984D02*
X5343991Y-15516460D01*
X5343991Y-15516460D02*
X5353515Y-15506936D01*
X5353515Y-15506936D02*
X5353515Y-15525984D01*
X5486848Y-15325984D02*
X5505896Y-15325984D01*
X5505896Y-15325984D02*
X5524944Y-15335508D01*
X5524944Y-15335508D02*
X5534468Y-15345031D01*
X5534468Y-15345031D02*
X5543991Y-15364079D01*
X5543991Y-15364079D02*
X5553515Y-15402174D01*
X5553515Y-15402174D02*
X5553515Y-15449793D01*
X5553515Y-15449793D02*
X5543991Y-15487888D01*
X5543991Y-15487888D02*
X5534468Y-15506936D01*
X5534468Y-15506936D02*
X5524944Y-15516460D01*
X5524944Y-15516460D02*
X5505896Y-15525984D01*
X5505896Y-15525984D02*
X5486848Y-15525984D01*
X5486848Y-15525984D02*
X5467801Y-15516460D01*
X5467801Y-15516460D02*
X5458277Y-15506936D01*
X5458277Y-15506936D02*
X5448753Y-15487888D01*
X5448753Y-15487888D02*
X5439229Y-15449793D01*
X5439229Y-15449793D02*
X5439229Y-15402174D01*
X5439229Y-15402174D02*
X5448753Y-15364079D01*
X5448753Y-15364079D02*
X5458277Y-15345031D01*
X5458277Y-15345031D02*
X5467801Y-15335508D01*
X5467801Y-15335508D02*
X5486848Y-15325984D01*
X5620182Y-15325984D02*
X5743991Y-15325984D01*
X5743991Y-15325984D02*
X5677325Y-15402174D01*
X5677325Y-15402174D02*
X5705896Y-15402174D01*
X5705896Y-15402174D02*
X5724944Y-15411698D01*
X5724944Y-15411698D02*
X5734467Y-15421222D01*
X5734467Y-15421222D02*
X5743991Y-15440269D01*
X5743991Y-15440269D02*
X5743991Y-15487888D01*
X5743991Y-15487888D02*
X5734467Y-15506936D01*
X5734467Y-15506936D02*
X5724944Y-15516460D01*
X5724944Y-15516460D02*
X5705896Y-15525984D01*
X5705896Y-15525984D02*
X5648753Y-15525984D01*
X5648753Y-15525984D02*
X5629706Y-15516460D01*
X5629706Y-15516460D02*
X5620182Y-15506936D01*
X5934467Y-15525984D02*
X5820182Y-15525984D01*
X5877325Y-15525984D02*
X5877325Y-15325984D01*
X5877325Y-15325984D02*
X5858277Y-15354555D01*
X5858277Y-15354555D02*
X5839229Y-15373603D01*
X5839229Y-15373603D02*
X5820182Y-15383127D01*
X6115420Y-15325984D02*
X6020182Y-15325984D01*
X6020182Y-15325984D02*
X6010658Y-15421222D01*
X6010658Y-15421222D02*
X6020182Y-15411698D01*
X6020182Y-15411698D02*
X6039229Y-15402174D01*
X6039229Y-15402174D02*
X6086848Y-15402174D01*
X6086848Y-15402174D02*
X6105896Y-15411698D01*
X6105896Y-15411698D02*
X6115420Y-15421222D01*
X6115420Y-15421222D02*
X6124944Y-15440269D01*
X6124944Y-15440269D02*
X6124944Y-15487888D01*
X6124944Y-15487888D02*
X6115420Y-15506936D01*
X6115420Y-15506936D02*
X6105896Y-15516460D01*
X6105896Y-15516460D02*
X6086848Y-15525984D01*
X6086848Y-15525984D02*
X6039229Y-15525984D01*
X6039229Y-15525984D02*
X6020182Y-15516460D01*
X6020182Y-15516460D02*
X6010658Y-15506936D01*
X6201134Y-15325984D02*
X6201134Y-15364079D01*
X6277325Y-15325984D02*
X6277325Y-15364079D01*
X6572563Y-15602174D02*
X6563039Y-15592650D01*
X6563039Y-15592650D02*
X6543991Y-15564079D01*
X6543991Y-15564079D02*
X6534468Y-15545031D01*
X6534468Y-15545031D02*
X6524944Y-15516460D01*
X6524944Y-15516460D02*
X6515420Y-15468841D01*
X6515420Y-15468841D02*
X6515420Y-15430746D01*
X6515420Y-15430746D02*
X6524944Y-15383127D01*
X6524944Y-15383127D02*
X6534468Y-15354555D01*
X6534468Y-15354555D02*
X6543991Y-15335508D01*
X6543991Y-15335508D02*
X6563039Y-15306936D01*
X6563039Y-15306936D02*
X6572563Y-15297412D01*
X6743991Y-15325984D02*
X6648753Y-15325984D01*
X6648753Y-15325984D02*
X6639229Y-15421222D01*
X6639229Y-15421222D02*
X6648753Y-15411698D01*
X6648753Y-15411698D02*
X6667801Y-15402174D01*
X6667801Y-15402174D02*
X6715420Y-15402174D01*
X6715420Y-15402174D02*
X6734468Y-15411698D01*
X6734468Y-15411698D02*
X6743991Y-15421222D01*
X6743991Y-15421222D02*
X6753515Y-15440269D01*
X6753515Y-15440269D02*
X6753515Y-15487888D01*
X6753515Y-15487888D02*
X6743991Y-15506936D01*
X6743991Y-15506936D02*
X6734468Y-15516460D01*
X6734468Y-15516460D02*
X6715420Y-15525984D01*
X6715420Y-15525984D02*
X6667801Y-15525984D01*
X6667801Y-15525984D02*
X6648753Y-15516460D01*
X6648753Y-15516460D02*
X6639229Y-15506936D01*
X6924944Y-15325984D02*
X6886848Y-15325984D01*
X6886848Y-15325984D02*
X6867801Y-15335508D01*
X6867801Y-15335508D02*
X6858277Y-15345031D01*
X6858277Y-15345031D02*
X6839229Y-15373603D01*
X6839229Y-15373603D02*
X6829706Y-15411698D01*
X6829706Y-15411698D02*
X6829706Y-15487888D01*
X6829706Y-15487888D02*
X6839229Y-15506936D01*
X6839229Y-15506936D02*
X6848753Y-15516460D01*
X6848753Y-15516460D02*
X6867801Y-15525984D01*
X6867801Y-15525984D02*
X6905896Y-15525984D01*
X6905896Y-15525984D02*
X6924944Y-15516460D01*
X6924944Y-15516460D02*
X6934468Y-15506936D01*
X6934468Y-15506936D02*
X6943991Y-15487888D01*
X6943991Y-15487888D02*
X6943991Y-15440269D01*
X6943991Y-15440269D02*
X6934468Y-15421222D01*
X6934468Y-15421222D02*
X6924944Y-15411698D01*
X6924944Y-15411698D02*
X6905896Y-15402174D01*
X6905896Y-15402174D02*
X6867801Y-15402174D01*
X6867801Y-15402174D02*
X6848753Y-15411698D01*
X6848753Y-15411698D02*
X6839229Y-15421222D01*
X6839229Y-15421222D02*
X6829706Y-15440269D01*
X7182087Y-15525984D02*
X7182087Y-15325984D01*
X7267801Y-15525984D02*
X7267801Y-15421222D01*
X7267801Y-15421222D02*
X7258277Y-15402174D01*
X7258277Y-15402174D02*
X7239230Y-15392650D01*
X7239230Y-15392650D02*
X7210658Y-15392650D01*
X7210658Y-15392650D02*
X7191610Y-15402174D01*
X7191610Y-15402174D02*
X7182087Y-15411698D01*
X7391610Y-15525984D02*
X7372563Y-15516460D01*
X7372563Y-15516460D02*
X7363039Y-15506936D01*
X7363039Y-15506936D02*
X7353515Y-15487888D01*
X7353515Y-15487888D02*
X7353515Y-15430746D01*
X7353515Y-15430746D02*
X7363039Y-15411698D01*
X7363039Y-15411698D02*
X7372563Y-15402174D01*
X7372563Y-15402174D02*
X7391610Y-15392650D01*
X7391610Y-15392650D02*
X7420182Y-15392650D01*
X7420182Y-15392650D02*
X7439230Y-15402174D01*
X7439230Y-15402174D02*
X7448753Y-15411698D01*
X7448753Y-15411698D02*
X7458277Y-15430746D01*
X7458277Y-15430746D02*
X7458277Y-15487888D01*
X7458277Y-15487888D02*
X7448753Y-15506936D01*
X7448753Y-15506936D02*
X7439230Y-15516460D01*
X7439230Y-15516460D02*
X7420182Y-15525984D01*
X7420182Y-15525984D02*
X7391610Y-15525984D01*
X7572563Y-15525984D02*
X7553515Y-15516460D01*
X7553515Y-15516460D02*
X7543991Y-15497412D01*
X7543991Y-15497412D02*
X7543991Y-15325984D01*
X7724944Y-15516460D02*
X7705896Y-15525984D01*
X7705896Y-15525984D02*
X7667801Y-15525984D01*
X7667801Y-15525984D02*
X7648753Y-15516460D01*
X7648753Y-15516460D02*
X7639230Y-15497412D01*
X7639230Y-15497412D02*
X7639230Y-15421222D01*
X7639230Y-15421222D02*
X7648753Y-15402174D01*
X7648753Y-15402174D02*
X7667801Y-15392650D01*
X7667801Y-15392650D02*
X7705896Y-15392650D01*
X7705896Y-15392650D02*
X7724944Y-15402174D01*
X7724944Y-15402174D02*
X7734468Y-15421222D01*
X7734468Y-15421222D02*
X7734468Y-15440269D01*
X7734468Y-15440269D02*
X7639230Y-15459317D01*
X7810658Y-15516460D02*
X7829706Y-15525984D01*
X7829706Y-15525984D02*
X7867801Y-15525984D01*
X7867801Y-15525984D02*
X7886849Y-15516460D01*
X7886849Y-15516460D02*
X7896372Y-15497412D01*
X7896372Y-15497412D02*
X7896372Y-15487888D01*
X7896372Y-15487888D02*
X7886849Y-15468841D01*
X7886849Y-15468841D02*
X7867801Y-15459317D01*
X7867801Y-15459317D02*
X7839230Y-15459317D01*
X7839230Y-15459317D02*
X7820182Y-15449793D01*
X7820182Y-15449793D02*
X7810658Y-15430746D01*
X7810658Y-15430746D02*
X7810658Y-15421222D01*
X7810658Y-15421222D02*
X7820182Y-15402174D01*
X7820182Y-15402174D02*
X7839230Y-15392650D01*
X7839230Y-15392650D02*
X7867801Y-15392650D01*
X7867801Y-15392650D02*
X7886849Y-15402174D01*
X7963039Y-15602174D02*
X7972563Y-15592650D01*
X7972563Y-15592650D02*
X7991611Y-15564079D01*
X7991611Y-15564079D02*
X8001134Y-15545031D01*
X8001134Y-15545031D02*
X8010658Y-15516460D01*
X8010658Y-15516460D02*
X8020182Y-15468841D01*
X8020182Y-15468841D02*
X8020182Y-15430746D01*
X8020182Y-15430746D02*
X8010658Y-15383127D01*
X8010658Y-15383127D02*
X8001134Y-15354555D01*
X8001134Y-15354555D02*
X7991611Y-15335508D01*
X7991611Y-15335508D02*
X7972563Y-15306936D01*
X7972563Y-15306936D02*
X7963039Y-15297412D01*
D10*
X2950000Y-15746000D02*
X2997500Y-15698500D01*
X2950000Y-15651000D01*
X2902500Y-15698500D01*
X2950000Y-15746000D01*
D12*
X3296372Y-15589984D02*
X3315420Y-15589984D01*
X3315420Y-15589984D02*
X3334467Y-15599508D01*
X3334467Y-15599508D02*
X3343991Y-15609031D01*
X3343991Y-15609031D02*
X3353515Y-15628079D01*
X3353515Y-15628079D02*
X3363039Y-15666174D01*
X3363039Y-15666174D02*
X3363039Y-15713793D01*
X3363039Y-15713793D02*
X3353515Y-15751888D01*
X3353515Y-15751888D02*
X3343991Y-15770936D01*
X3343991Y-15770936D02*
X3334467Y-15780460D01*
X3334467Y-15780460D02*
X3315420Y-15789984D01*
X3315420Y-15789984D02*
X3296372Y-15789984D01*
X3296372Y-15789984D02*
X3277324Y-15780460D01*
X3277324Y-15780460D02*
X3267801Y-15770936D01*
X3267801Y-15770936D02*
X3258277Y-15751888D01*
X3258277Y-15751888D02*
X3248753Y-15713793D01*
X3248753Y-15713793D02*
X3248753Y-15666174D01*
X3248753Y-15666174D02*
X3258277Y-15628079D01*
X3258277Y-15628079D02*
X3267801Y-15609031D01*
X3267801Y-15609031D02*
X3277324Y-15599508D01*
X3277324Y-15599508D02*
X3296372Y-15589984D01*
X3448753Y-15770936D02*
X3458277Y-15780460D01*
X3458277Y-15780460D02*
X3448753Y-15789984D01*
X3448753Y-15789984D02*
X3439229Y-15780460D01*
X3439229Y-15780460D02*
X3448753Y-15770936D01*
X3448753Y-15770936D02*
X3448753Y-15789984D01*
X3553515Y-15789984D02*
X3591610Y-15789984D01*
X3591610Y-15789984D02*
X3610658Y-15780460D01*
X3610658Y-15780460D02*
X3620182Y-15770936D01*
X3620182Y-15770936D02*
X3639229Y-15742365D01*
X3639229Y-15742365D02*
X3648753Y-15704269D01*
X3648753Y-15704269D02*
X3648753Y-15628079D01*
X3648753Y-15628079D02*
X3639229Y-15609031D01*
X3639229Y-15609031D02*
X3629705Y-15599508D01*
X3629705Y-15599508D02*
X3610658Y-15589984D01*
X3610658Y-15589984D02*
X3572562Y-15589984D01*
X3572562Y-15589984D02*
X3553515Y-15599508D01*
X3553515Y-15599508D02*
X3543991Y-15609031D01*
X3543991Y-15609031D02*
X3534467Y-15628079D01*
X3534467Y-15628079D02*
X3534467Y-15675698D01*
X3534467Y-15675698D02*
X3543991Y-15694746D01*
X3543991Y-15694746D02*
X3553515Y-15704269D01*
X3553515Y-15704269D02*
X3572562Y-15713793D01*
X3572562Y-15713793D02*
X3610658Y-15713793D01*
X3610658Y-15713793D02*
X3629705Y-15704269D01*
X3629705Y-15704269D02*
X3639229Y-15694746D01*
X3639229Y-15694746D02*
X3648753Y-15675698D01*
X3829705Y-15589984D02*
X3734467Y-15589984D01*
X3734467Y-15589984D02*
X3724943Y-15685222D01*
X3724943Y-15685222D02*
X3734467Y-15675698D01*
X3734467Y-15675698D02*
X3753515Y-15666174D01*
X3753515Y-15666174D02*
X3801134Y-15666174D01*
X3801134Y-15666174D02*
X3820182Y-15675698D01*
X3820182Y-15675698D02*
X3829705Y-15685222D01*
X3829705Y-15685222D02*
X3839229Y-15704269D01*
X3839229Y-15704269D02*
X3839229Y-15751888D01*
X3839229Y-15751888D02*
X3829705Y-15770936D01*
X3829705Y-15770936D02*
X3820182Y-15780460D01*
X3820182Y-15780460D02*
X3801134Y-15789984D01*
X3801134Y-15789984D02*
X3753515Y-15789984D01*
X3753515Y-15789984D02*
X3734467Y-15780460D01*
X3734467Y-15780460D02*
X3724943Y-15770936D01*
X3963039Y-15589984D02*
X3982086Y-15589984D01*
X3982086Y-15589984D02*
X4001134Y-15599508D01*
X4001134Y-15599508D02*
X4010658Y-15609031D01*
X4010658Y-15609031D02*
X4020182Y-15628079D01*
X4020182Y-15628079D02*
X4029705Y-15666174D01*
X4029705Y-15666174D02*
X4029705Y-15713793D01*
X4029705Y-15713793D02*
X4020182Y-15751888D01*
X4020182Y-15751888D02*
X4010658Y-15770936D01*
X4010658Y-15770936D02*
X4001134Y-15780460D01*
X4001134Y-15780460D02*
X3982086Y-15789984D01*
X3982086Y-15789984D02*
X3963039Y-15789984D01*
X3963039Y-15789984D02*
X3943991Y-15780460D01*
X3943991Y-15780460D02*
X3934467Y-15770936D01*
X3934467Y-15770936D02*
X3924943Y-15751888D01*
X3924943Y-15751888D02*
X3915420Y-15713793D01*
X3915420Y-15713793D02*
X3915420Y-15666174D01*
X3915420Y-15666174D02*
X3924943Y-15628079D01*
X3924943Y-15628079D02*
X3934467Y-15609031D01*
X3934467Y-15609031D02*
X3943991Y-15599508D01*
X3943991Y-15599508D02*
X3963039Y-15589984D01*
X4115420Y-15789984D02*
X4115420Y-15656650D01*
X4115420Y-15675698D02*
X4124943Y-15666174D01*
X4124943Y-15666174D02*
X4143991Y-15656650D01*
X4143991Y-15656650D02*
X4172563Y-15656650D01*
X4172563Y-15656650D02*
X4191610Y-15666174D01*
X4191610Y-15666174D02*
X4201134Y-15685222D01*
X4201134Y-15685222D02*
X4201134Y-15789984D01*
X4201134Y-15685222D02*
X4210658Y-15666174D01*
X4210658Y-15666174D02*
X4229705Y-15656650D01*
X4229705Y-15656650D02*
X4258277Y-15656650D01*
X4258277Y-15656650D02*
X4277325Y-15666174D01*
X4277325Y-15666174D02*
X4286848Y-15685222D01*
X4286848Y-15685222D02*
X4286848Y-15789984D01*
X4382086Y-15789984D02*
X4382086Y-15656650D01*
X4382086Y-15675698D02*
X4391610Y-15666174D01*
X4391610Y-15666174D02*
X4410658Y-15656650D01*
X4410658Y-15656650D02*
X4439229Y-15656650D01*
X4439229Y-15656650D02*
X4458277Y-15666174D01*
X4458277Y-15666174D02*
X4467801Y-15685222D01*
X4467801Y-15685222D02*
X4467801Y-15789984D01*
X4467801Y-15685222D02*
X4477325Y-15666174D01*
X4477325Y-15666174D02*
X4496372Y-15656650D01*
X4496372Y-15656650D02*
X4524944Y-15656650D01*
X4524944Y-15656650D02*
X4543991Y-15666174D01*
X4543991Y-15666174D02*
X4553515Y-15685222D01*
X4553515Y-15685222D02*
X4553515Y-15789984D01*
X4943991Y-15580460D02*
X4772563Y-15837603D01*
X5201134Y-15589984D02*
X5220182Y-15589984D01*
X5220182Y-15589984D02*
X5239229Y-15599508D01*
X5239229Y-15599508D02*
X5248753Y-15609031D01*
X5248753Y-15609031D02*
X5258277Y-15628079D01*
X5258277Y-15628079D02*
X5267801Y-15666174D01*
X5267801Y-15666174D02*
X5267801Y-15713793D01*
X5267801Y-15713793D02*
X5258277Y-15751888D01*
X5258277Y-15751888D02*
X5248753Y-15770936D01*
X5248753Y-15770936D02*
X5239229Y-15780460D01*
X5239229Y-15780460D02*
X5220182Y-15789984D01*
X5220182Y-15789984D02*
X5201134Y-15789984D01*
X5201134Y-15789984D02*
X5182087Y-15780460D01*
X5182087Y-15780460D02*
X5172563Y-15770936D01*
X5172563Y-15770936D02*
X5163039Y-15751888D01*
X5163039Y-15751888D02*
X5153515Y-15713793D01*
X5153515Y-15713793D02*
X5153515Y-15666174D01*
X5153515Y-15666174D02*
X5163039Y-15628079D01*
X5163039Y-15628079D02*
X5172563Y-15609031D01*
X5172563Y-15609031D02*
X5182087Y-15599508D01*
X5182087Y-15599508D02*
X5201134Y-15589984D01*
X5353515Y-15770936D02*
X5363039Y-15780460D01*
X5363039Y-15780460D02*
X5353515Y-15789984D01*
X5353515Y-15789984D02*
X5343991Y-15780460D01*
X5343991Y-15780460D02*
X5353515Y-15770936D01*
X5353515Y-15770936D02*
X5353515Y-15789984D01*
X5486848Y-15589984D02*
X5505896Y-15589984D01*
X5505896Y-15589984D02*
X5524944Y-15599508D01*
X5524944Y-15599508D02*
X5534468Y-15609031D01*
X5534468Y-15609031D02*
X5543991Y-15628079D01*
X5543991Y-15628079D02*
X5553515Y-15666174D01*
X5553515Y-15666174D02*
X5553515Y-15713793D01*
X5553515Y-15713793D02*
X5543991Y-15751888D01*
X5543991Y-15751888D02*
X5534468Y-15770936D01*
X5534468Y-15770936D02*
X5524944Y-15780460D01*
X5524944Y-15780460D02*
X5505896Y-15789984D01*
X5505896Y-15789984D02*
X5486848Y-15789984D01*
X5486848Y-15789984D02*
X5467801Y-15780460D01*
X5467801Y-15780460D02*
X5458277Y-15770936D01*
X5458277Y-15770936D02*
X5448753Y-15751888D01*
X5448753Y-15751888D02*
X5439229Y-15713793D01*
X5439229Y-15713793D02*
X5439229Y-15666174D01*
X5439229Y-15666174D02*
X5448753Y-15628079D01*
X5448753Y-15628079D02*
X5458277Y-15609031D01*
X5458277Y-15609031D02*
X5467801Y-15599508D01*
X5467801Y-15599508D02*
X5486848Y-15589984D01*
X5620182Y-15589984D02*
X5743991Y-15589984D01*
X5743991Y-15589984D02*
X5677325Y-15666174D01*
X5677325Y-15666174D02*
X5705896Y-15666174D01*
X5705896Y-15666174D02*
X5724944Y-15675698D01*
X5724944Y-15675698D02*
X5734467Y-15685222D01*
X5734467Y-15685222D02*
X5743991Y-15704269D01*
X5743991Y-15704269D02*
X5743991Y-15751888D01*
X5743991Y-15751888D02*
X5734467Y-15770936D01*
X5734467Y-15770936D02*
X5724944Y-15780460D01*
X5724944Y-15780460D02*
X5705896Y-15789984D01*
X5705896Y-15789984D02*
X5648753Y-15789984D01*
X5648753Y-15789984D02*
X5629706Y-15780460D01*
X5629706Y-15780460D02*
X5620182Y-15770936D01*
X5810658Y-15589984D02*
X5943991Y-15589984D01*
X5943991Y-15589984D02*
X5858277Y-15789984D01*
X6105896Y-15656650D02*
X6105896Y-15789984D01*
X6058277Y-15580460D02*
X6010658Y-15723317D01*
X6010658Y-15723317D02*
X6134467Y-15723317D01*
X6201134Y-15589984D02*
X6201134Y-15628079D01*
X6277325Y-15589984D02*
X6277325Y-15628079D01*
X6572563Y-15866174D02*
X6563039Y-15856650D01*
X6563039Y-15856650D02*
X6543991Y-15828079D01*
X6543991Y-15828079D02*
X6534468Y-15809031D01*
X6534468Y-15809031D02*
X6524944Y-15780460D01*
X6524944Y-15780460D02*
X6515420Y-15732841D01*
X6515420Y-15732841D02*
X6515420Y-15694746D01*
X6515420Y-15694746D02*
X6524944Y-15647127D01*
X6524944Y-15647127D02*
X6534468Y-15618555D01*
X6534468Y-15618555D02*
X6543991Y-15599508D01*
X6543991Y-15599508D02*
X6563039Y-15570936D01*
X6563039Y-15570936D02*
X6572563Y-15561412D01*
X6629706Y-15589984D02*
X6753515Y-15589984D01*
X6753515Y-15589984D02*
X6686848Y-15666174D01*
X6686848Y-15666174D02*
X6715420Y-15666174D01*
X6715420Y-15666174D02*
X6734468Y-15675698D01*
X6734468Y-15675698D02*
X6743991Y-15685222D01*
X6743991Y-15685222D02*
X6753515Y-15704269D01*
X6753515Y-15704269D02*
X6753515Y-15751888D01*
X6753515Y-15751888D02*
X6743991Y-15770936D01*
X6743991Y-15770936D02*
X6734468Y-15780460D01*
X6734468Y-15780460D02*
X6715420Y-15789984D01*
X6715420Y-15789984D02*
X6658277Y-15789984D01*
X6658277Y-15789984D02*
X6639229Y-15780460D01*
X6639229Y-15780460D02*
X6629706Y-15770936D01*
X6934468Y-15589984D02*
X6839229Y-15589984D01*
X6839229Y-15589984D02*
X6829706Y-15685222D01*
X6829706Y-15685222D02*
X6839229Y-15675698D01*
X6839229Y-15675698D02*
X6858277Y-15666174D01*
X6858277Y-15666174D02*
X6905896Y-15666174D01*
X6905896Y-15666174D02*
X6924944Y-15675698D01*
X6924944Y-15675698D02*
X6934468Y-15685222D01*
X6934468Y-15685222D02*
X6943991Y-15704269D01*
X6943991Y-15704269D02*
X6943991Y-15751888D01*
X6943991Y-15751888D02*
X6934468Y-15770936D01*
X6934468Y-15770936D02*
X6924944Y-15780460D01*
X6924944Y-15780460D02*
X6905896Y-15789984D01*
X6905896Y-15789984D02*
X6858277Y-15789984D01*
X6858277Y-15789984D02*
X6839229Y-15780460D01*
X6839229Y-15780460D02*
X6829706Y-15770936D01*
X7182087Y-15789984D02*
X7182087Y-15589984D01*
X7267801Y-15789984D02*
X7267801Y-15685222D01*
X7267801Y-15685222D02*
X7258277Y-15666174D01*
X7258277Y-15666174D02*
X7239230Y-15656650D01*
X7239230Y-15656650D02*
X7210658Y-15656650D01*
X7210658Y-15656650D02*
X7191610Y-15666174D01*
X7191610Y-15666174D02*
X7182087Y-15675698D01*
X7391610Y-15789984D02*
X7372563Y-15780460D01*
X7372563Y-15780460D02*
X7363039Y-15770936D01*
X7363039Y-15770936D02*
X7353515Y-15751888D01*
X7353515Y-15751888D02*
X7353515Y-15694746D01*
X7353515Y-15694746D02*
X7363039Y-15675698D01*
X7363039Y-15675698D02*
X7372563Y-15666174D01*
X7372563Y-15666174D02*
X7391610Y-15656650D01*
X7391610Y-15656650D02*
X7420182Y-15656650D01*
X7420182Y-15656650D02*
X7439230Y-15666174D01*
X7439230Y-15666174D02*
X7448753Y-15675698D01*
X7448753Y-15675698D02*
X7458277Y-15694746D01*
X7458277Y-15694746D02*
X7458277Y-15751888D01*
X7458277Y-15751888D02*
X7448753Y-15770936D01*
X7448753Y-15770936D02*
X7439230Y-15780460D01*
X7439230Y-15780460D02*
X7420182Y-15789984D01*
X7420182Y-15789984D02*
X7391610Y-15789984D01*
X7572563Y-15789984D02*
X7553515Y-15780460D01*
X7553515Y-15780460D02*
X7543991Y-15761412D01*
X7543991Y-15761412D02*
X7543991Y-15589984D01*
X7724944Y-15780460D02*
X7705896Y-15789984D01*
X7705896Y-15789984D02*
X7667801Y-15789984D01*
X7667801Y-15789984D02*
X7648753Y-15780460D01*
X7648753Y-15780460D02*
X7639230Y-15761412D01*
X7639230Y-15761412D02*
X7639230Y-15685222D01*
X7639230Y-15685222D02*
X7648753Y-15666174D01*
X7648753Y-15666174D02*
X7667801Y-15656650D01*
X7667801Y-15656650D02*
X7705896Y-15656650D01*
X7705896Y-15656650D02*
X7724944Y-15666174D01*
X7724944Y-15666174D02*
X7734468Y-15685222D01*
X7734468Y-15685222D02*
X7734468Y-15704269D01*
X7734468Y-15704269D02*
X7639230Y-15723317D01*
X7810658Y-15780460D02*
X7829706Y-15789984D01*
X7829706Y-15789984D02*
X7867801Y-15789984D01*
X7867801Y-15789984D02*
X7886849Y-15780460D01*
X7886849Y-15780460D02*
X7896372Y-15761412D01*
X7896372Y-15761412D02*
X7896372Y-15751888D01*
X7896372Y-15751888D02*
X7886849Y-15732841D01*
X7886849Y-15732841D02*
X7867801Y-15723317D01*
X7867801Y-15723317D02*
X7839230Y-15723317D01*
X7839230Y-15723317D02*
X7820182Y-15713793D01*
X7820182Y-15713793D02*
X7810658Y-15694746D01*
X7810658Y-15694746D02*
X7810658Y-15685222D01*
X7810658Y-15685222D02*
X7820182Y-15666174D01*
X7820182Y-15666174D02*
X7839230Y-15656650D01*
X7839230Y-15656650D02*
X7867801Y-15656650D01*
X7867801Y-15656650D02*
X7886849Y-15666174D01*
X7963039Y-15866174D02*
X7972563Y-15856650D01*
X7972563Y-15856650D02*
X7991611Y-15828079D01*
X7991611Y-15828079D02*
X8001134Y-15809031D01*
X8001134Y-15809031D02*
X8010658Y-15780460D01*
X8010658Y-15780460D02*
X8020182Y-15732841D01*
X8020182Y-15732841D02*
X8020182Y-15694746D01*
X8020182Y-15694746D02*
X8010658Y-15647127D01*
X8010658Y-15647127D02*
X8001134Y-15618555D01*
X8001134Y-15618555D02*
X7991611Y-15599508D01*
X7991611Y-15599508D02*
X7972563Y-15570936D01*
X7972563Y-15570936D02*
X7963039Y-15561412D01*
D10*
X2897500Y-15912500D02*
X2997500Y-16012500D01*
X2997500Y-15912500D02*
X2897500Y-16012500D01*
X2997500Y-15962500D02*
G75*
G03*
X2897500Y-15962500I-50000J0D01*
G01*
X2897500Y-15962500D02*
G75*
G03*
X2997500Y-15962500I50000J0D01*
G01*
D12*
X3363039Y-16053984D02*
X3248753Y-16053984D01*
X3305896Y-16053984D02*
X3305896Y-15853984D01*
X3305896Y-15853984D02*
X3286848Y-15882555D01*
X3286848Y-15882555D02*
X3267801Y-15901603D01*
X3267801Y-15901603D02*
X3248753Y-15911127D01*
X3448753Y-16034936D02*
X3458277Y-16044460D01*
X3458277Y-16044460D02*
X3448753Y-16053984D01*
X3448753Y-16053984D02*
X3439229Y-16044460D01*
X3439229Y-16044460D02*
X3448753Y-16034936D01*
X3448753Y-16034936D02*
X3448753Y-16053984D01*
X3582086Y-15853984D02*
X3601134Y-15853984D01*
X3601134Y-15853984D02*
X3620182Y-15863508D01*
X3620182Y-15863508D02*
X3629705Y-15873031D01*
X3629705Y-15873031D02*
X3639229Y-15892079D01*
X3639229Y-15892079D02*
X3648753Y-15930174D01*
X3648753Y-15930174D02*
X3648753Y-15977793D01*
X3648753Y-15977793D02*
X3639229Y-16015888D01*
X3639229Y-16015888D02*
X3629705Y-16034936D01*
X3629705Y-16034936D02*
X3620182Y-16044460D01*
X3620182Y-16044460D02*
X3601134Y-16053984D01*
X3601134Y-16053984D02*
X3582086Y-16053984D01*
X3582086Y-16053984D02*
X3563039Y-16044460D01*
X3563039Y-16044460D02*
X3553515Y-16034936D01*
X3553515Y-16034936D02*
X3543991Y-16015888D01*
X3543991Y-16015888D02*
X3534467Y-15977793D01*
X3534467Y-15977793D02*
X3534467Y-15930174D01*
X3534467Y-15930174D02*
X3543991Y-15892079D01*
X3543991Y-15892079D02*
X3553515Y-15873031D01*
X3553515Y-15873031D02*
X3563039Y-15863508D01*
X3563039Y-15863508D02*
X3582086Y-15853984D01*
X3772562Y-15853984D02*
X3791610Y-15853984D01*
X3791610Y-15853984D02*
X3810658Y-15863508D01*
X3810658Y-15863508D02*
X3820182Y-15873031D01*
X3820182Y-15873031D02*
X3829705Y-15892079D01*
X3829705Y-15892079D02*
X3839229Y-15930174D01*
X3839229Y-15930174D02*
X3839229Y-15977793D01*
X3839229Y-15977793D02*
X3829705Y-16015888D01*
X3829705Y-16015888D02*
X3820182Y-16034936D01*
X3820182Y-16034936D02*
X3810658Y-16044460D01*
X3810658Y-16044460D02*
X3791610Y-16053984D01*
X3791610Y-16053984D02*
X3772562Y-16053984D01*
X3772562Y-16053984D02*
X3753515Y-16044460D01*
X3753515Y-16044460D02*
X3743991Y-16034936D01*
X3743991Y-16034936D02*
X3734467Y-16015888D01*
X3734467Y-16015888D02*
X3724943Y-15977793D01*
X3724943Y-15977793D02*
X3724943Y-15930174D01*
X3724943Y-15930174D02*
X3734467Y-15892079D01*
X3734467Y-15892079D02*
X3743991Y-15873031D01*
X3743991Y-15873031D02*
X3753515Y-15863508D01*
X3753515Y-15863508D02*
X3772562Y-15853984D01*
X3963039Y-15853984D02*
X3982086Y-15853984D01*
X3982086Y-15853984D02*
X4001134Y-15863508D01*
X4001134Y-15863508D02*
X4010658Y-15873031D01*
X4010658Y-15873031D02*
X4020182Y-15892079D01*
X4020182Y-15892079D02*
X4029705Y-15930174D01*
X4029705Y-15930174D02*
X4029705Y-15977793D01*
X4029705Y-15977793D02*
X4020182Y-16015888D01*
X4020182Y-16015888D02*
X4010658Y-16034936D01*
X4010658Y-16034936D02*
X4001134Y-16044460D01*
X4001134Y-16044460D02*
X3982086Y-16053984D01*
X3982086Y-16053984D02*
X3963039Y-16053984D01*
X3963039Y-16053984D02*
X3943991Y-16044460D01*
X3943991Y-16044460D02*
X3934467Y-16034936D01*
X3934467Y-16034936D02*
X3924943Y-16015888D01*
X3924943Y-16015888D02*
X3915420Y-15977793D01*
X3915420Y-15977793D02*
X3915420Y-15930174D01*
X3915420Y-15930174D02*
X3924943Y-15892079D01*
X3924943Y-15892079D02*
X3934467Y-15873031D01*
X3934467Y-15873031D02*
X3943991Y-15863508D01*
X3943991Y-15863508D02*
X3963039Y-15853984D01*
X4115420Y-16053984D02*
X4115420Y-15920650D01*
X4115420Y-15939698D02*
X4124943Y-15930174D01*
X4124943Y-15930174D02*
X4143991Y-15920650D01*
X4143991Y-15920650D02*
X4172563Y-15920650D01*
X4172563Y-15920650D02*
X4191610Y-15930174D01*
X4191610Y-15930174D02*
X4201134Y-15949222D01*
X4201134Y-15949222D02*
X4201134Y-16053984D01*
X4201134Y-15949222D02*
X4210658Y-15930174D01*
X4210658Y-15930174D02*
X4229705Y-15920650D01*
X4229705Y-15920650D02*
X4258277Y-15920650D01*
X4258277Y-15920650D02*
X4277325Y-15930174D01*
X4277325Y-15930174D02*
X4286848Y-15949222D01*
X4286848Y-15949222D02*
X4286848Y-16053984D01*
X4382086Y-16053984D02*
X4382086Y-15920650D01*
X4382086Y-15939698D02*
X4391610Y-15930174D01*
X4391610Y-15930174D02*
X4410658Y-15920650D01*
X4410658Y-15920650D02*
X4439229Y-15920650D01*
X4439229Y-15920650D02*
X4458277Y-15930174D01*
X4458277Y-15930174D02*
X4467801Y-15949222D01*
X4467801Y-15949222D02*
X4467801Y-16053984D01*
X4467801Y-15949222D02*
X4477325Y-15930174D01*
X4477325Y-15930174D02*
X4496372Y-15920650D01*
X4496372Y-15920650D02*
X4524944Y-15920650D01*
X4524944Y-15920650D02*
X4543991Y-15930174D01*
X4543991Y-15930174D02*
X4553515Y-15949222D01*
X4553515Y-15949222D02*
X4553515Y-16053984D01*
X4943991Y-15844460D02*
X4772563Y-16101603D01*
X5201134Y-15853984D02*
X5220182Y-15853984D01*
X5220182Y-15853984D02*
X5239229Y-15863508D01*
X5239229Y-15863508D02*
X5248753Y-15873031D01*
X5248753Y-15873031D02*
X5258277Y-15892079D01*
X5258277Y-15892079D02*
X5267801Y-15930174D01*
X5267801Y-15930174D02*
X5267801Y-15977793D01*
X5267801Y-15977793D02*
X5258277Y-16015888D01*
X5258277Y-16015888D02*
X5248753Y-16034936D01*
X5248753Y-16034936D02*
X5239229Y-16044460D01*
X5239229Y-16044460D02*
X5220182Y-16053984D01*
X5220182Y-16053984D02*
X5201134Y-16053984D01*
X5201134Y-16053984D02*
X5182087Y-16044460D01*
X5182087Y-16044460D02*
X5172563Y-16034936D01*
X5172563Y-16034936D02*
X5163039Y-16015888D01*
X5163039Y-16015888D02*
X5153515Y-15977793D01*
X5153515Y-15977793D02*
X5153515Y-15930174D01*
X5153515Y-15930174D02*
X5163039Y-15892079D01*
X5163039Y-15892079D02*
X5172563Y-15873031D01*
X5172563Y-15873031D02*
X5182087Y-15863508D01*
X5182087Y-15863508D02*
X5201134Y-15853984D01*
X5353515Y-16034936D02*
X5363039Y-16044460D01*
X5363039Y-16044460D02*
X5353515Y-16053984D01*
X5353515Y-16053984D02*
X5343991Y-16044460D01*
X5343991Y-16044460D02*
X5353515Y-16034936D01*
X5353515Y-16034936D02*
X5353515Y-16053984D01*
X5486848Y-15853984D02*
X5505896Y-15853984D01*
X5505896Y-15853984D02*
X5524944Y-15863508D01*
X5524944Y-15863508D02*
X5534468Y-15873031D01*
X5534468Y-15873031D02*
X5543991Y-15892079D01*
X5543991Y-15892079D02*
X5553515Y-15930174D01*
X5553515Y-15930174D02*
X5553515Y-15977793D01*
X5553515Y-15977793D02*
X5543991Y-16015888D01*
X5543991Y-16015888D02*
X5534468Y-16034936D01*
X5534468Y-16034936D02*
X5524944Y-16044460D01*
X5524944Y-16044460D02*
X5505896Y-16053984D01*
X5505896Y-16053984D02*
X5486848Y-16053984D01*
X5486848Y-16053984D02*
X5467801Y-16044460D01*
X5467801Y-16044460D02*
X5458277Y-16034936D01*
X5458277Y-16034936D02*
X5448753Y-16015888D01*
X5448753Y-16015888D02*
X5439229Y-15977793D01*
X5439229Y-15977793D02*
X5439229Y-15930174D01*
X5439229Y-15930174D02*
X5448753Y-15892079D01*
X5448753Y-15892079D02*
X5458277Y-15873031D01*
X5458277Y-15873031D02*
X5467801Y-15863508D01*
X5467801Y-15863508D02*
X5486848Y-15853984D01*
X5620182Y-15853984D02*
X5743991Y-15853984D01*
X5743991Y-15853984D02*
X5677325Y-15930174D01*
X5677325Y-15930174D02*
X5705896Y-15930174D01*
X5705896Y-15930174D02*
X5724944Y-15939698D01*
X5724944Y-15939698D02*
X5734467Y-15949222D01*
X5734467Y-15949222D02*
X5743991Y-15968269D01*
X5743991Y-15968269D02*
X5743991Y-16015888D01*
X5743991Y-16015888D02*
X5734467Y-16034936D01*
X5734467Y-16034936D02*
X5724944Y-16044460D01*
X5724944Y-16044460D02*
X5705896Y-16053984D01*
X5705896Y-16053984D02*
X5648753Y-16053984D01*
X5648753Y-16053984D02*
X5629706Y-16044460D01*
X5629706Y-16044460D02*
X5620182Y-16034936D01*
X5839229Y-16053984D02*
X5877325Y-16053984D01*
X5877325Y-16053984D02*
X5896372Y-16044460D01*
X5896372Y-16044460D02*
X5905896Y-16034936D01*
X5905896Y-16034936D02*
X5924944Y-16006365D01*
X5924944Y-16006365D02*
X5934467Y-15968269D01*
X5934467Y-15968269D02*
X5934467Y-15892079D01*
X5934467Y-15892079D02*
X5924944Y-15873031D01*
X5924944Y-15873031D02*
X5915420Y-15863508D01*
X5915420Y-15863508D02*
X5896372Y-15853984D01*
X5896372Y-15853984D02*
X5858277Y-15853984D01*
X5858277Y-15853984D02*
X5839229Y-15863508D01*
X5839229Y-15863508D02*
X5829706Y-15873031D01*
X5829706Y-15873031D02*
X5820182Y-15892079D01*
X5820182Y-15892079D02*
X5820182Y-15939698D01*
X5820182Y-15939698D02*
X5829706Y-15958746D01*
X5829706Y-15958746D02*
X5839229Y-15968269D01*
X5839229Y-15968269D02*
X5858277Y-15977793D01*
X5858277Y-15977793D02*
X5896372Y-15977793D01*
X5896372Y-15977793D02*
X5915420Y-15968269D01*
X5915420Y-15968269D02*
X5924944Y-15958746D01*
X5924944Y-15958746D02*
X5934467Y-15939698D01*
X6105896Y-15920650D02*
X6105896Y-16053984D01*
X6058277Y-15844460D02*
X6010658Y-15987317D01*
X6010658Y-15987317D02*
X6134467Y-15987317D01*
X6201134Y-15853984D02*
X6201134Y-15892079D01*
X6277325Y-15853984D02*
X6277325Y-15892079D01*
X6572563Y-16130174D02*
X6563039Y-16120650D01*
X6563039Y-16120650D02*
X6543991Y-16092079D01*
X6543991Y-16092079D02*
X6534468Y-16073031D01*
X6534468Y-16073031D02*
X6524944Y-16044460D01*
X6524944Y-16044460D02*
X6515420Y-15996841D01*
X6515420Y-15996841D02*
X6515420Y-15958746D01*
X6515420Y-15958746D02*
X6524944Y-15911127D01*
X6524944Y-15911127D02*
X6534468Y-15882555D01*
X6534468Y-15882555D02*
X6543991Y-15863508D01*
X6543991Y-15863508D02*
X6563039Y-15834936D01*
X6563039Y-15834936D02*
X6572563Y-15825412D01*
X6629706Y-15853984D02*
X6763039Y-15853984D01*
X6763039Y-15853984D02*
X6677325Y-16053984D01*
X6934468Y-15853984D02*
X6839229Y-15853984D01*
X6839229Y-15853984D02*
X6829706Y-15949222D01*
X6829706Y-15949222D02*
X6839229Y-15939698D01*
X6839229Y-15939698D02*
X6858277Y-15930174D01*
X6858277Y-15930174D02*
X6905896Y-15930174D01*
X6905896Y-15930174D02*
X6924944Y-15939698D01*
X6924944Y-15939698D02*
X6934468Y-15949222D01*
X6934468Y-15949222D02*
X6943991Y-15968269D01*
X6943991Y-15968269D02*
X6943991Y-16015888D01*
X6943991Y-16015888D02*
X6934468Y-16034936D01*
X6934468Y-16034936D02*
X6924944Y-16044460D01*
X6924944Y-16044460D02*
X6905896Y-16053984D01*
X6905896Y-16053984D02*
X6858277Y-16053984D01*
X6858277Y-16053984D02*
X6839229Y-16044460D01*
X6839229Y-16044460D02*
X6829706Y-16034936D01*
X7182087Y-16053984D02*
X7182087Y-15853984D01*
X7267801Y-16053984D02*
X7267801Y-15949222D01*
X7267801Y-15949222D02*
X7258277Y-15930174D01*
X7258277Y-15930174D02*
X7239230Y-15920650D01*
X7239230Y-15920650D02*
X7210658Y-15920650D01*
X7210658Y-15920650D02*
X7191610Y-15930174D01*
X7191610Y-15930174D02*
X7182087Y-15939698D01*
X7391610Y-16053984D02*
X7372563Y-16044460D01*
X7372563Y-16044460D02*
X7363039Y-16034936D01*
X7363039Y-16034936D02*
X7353515Y-16015888D01*
X7353515Y-16015888D02*
X7353515Y-15958746D01*
X7353515Y-15958746D02*
X7363039Y-15939698D01*
X7363039Y-15939698D02*
X7372563Y-15930174D01*
X7372563Y-15930174D02*
X7391610Y-15920650D01*
X7391610Y-15920650D02*
X7420182Y-15920650D01*
X7420182Y-15920650D02*
X7439230Y-15930174D01*
X7439230Y-15930174D02*
X7448753Y-15939698D01*
X7448753Y-15939698D02*
X7458277Y-15958746D01*
X7458277Y-15958746D02*
X7458277Y-16015888D01*
X7458277Y-16015888D02*
X7448753Y-16034936D01*
X7448753Y-16034936D02*
X7439230Y-16044460D01*
X7439230Y-16044460D02*
X7420182Y-16053984D01*
X7420182Y-16053984D02*
X7391610Y-16053984D01*
X7572563Y-16053984D02*
X7553515Y-16044460D01*
X7553515Y-16044460D02*
X7543991Y-16025412D01*
X7543991Y-16025412D02*
X7543991Y-15853984D01*
X7724944Y-16044460D02*
X7705896Y-16053984D01*
X7705896Y-16053984D02*
X7667801Y-16053984D01*
X7667801Y-16053984D02*
X7648753Y-16044460D01*
X7648753Y-16044460D02*
X7639230Y-16025412D01*
X7639230Y-16025412D02*
X7639230Y-15949222D01*
X7639230Y-15949222D02*
X7648753Y-15930174D01*
X7648753Y-15930174D02*
X7667801Y-15920650D01*
X7667801Y-15920650D02*
X7705896Y-15920650D01*
X7705896Y-15920650D02*
X7724944Y-15930174D01*
X7724944Y-15930174D02*
X7734468Y-15949222D01*
X7734468Y-15949222D02*
X7734468Y-15968269D01*
X7734468Y-15968269D02*
X7639230Y-15987317D01*
X7810658Y-16044460D02*
X7829706Y-16053984D01*
X7829706Y-16053984D02*
X7867801Y-16053984D01*
X7867801Y-16053984D02*
X7886849Y-16044460D01*
X7886849Y-16044460D02*
X7896372Y-16025412D01*
X7896372Y-16025412D02*
X7896372Y-16015888D01*
X7896372Y-16015888D02*
X7886849Y-15996841D01*
X7886849Y-15996841D02*
X7867801Y-15987317D01*
X7867801Y-15987317D02*
X7839230Y-15987317D01*
X7839230Y-15987317D02*
X7820182Y-15977793D01*
X7820182Y-15977793D02*
X7810658Y-15958746D01*
X7810658Y-15958746D02*
X7810658Y-15949222D01*
X7810658Y-15949222D02*
X7820182Y-15930174D01*
X7820182Y-15930174D02*
X7839230Y-15920650D01*
X7839230Y-15920650D02*
X7867801Y-15920650D01*
X7867801Y-15920650D02*
X7886849Y-15930174D01*
X7963039Y-16130174D02*
X7972563Y-16120650D01*
X7972563Y-16120650D02*
X7991611Y-16092079D01*
X7991611Y-16092079D02*
X8001134Y-16073031D01*
X8001134Y-16073031D02*
X8010658Y-16044460D01*
X8010658Y-16044460D02*
X8020182Y-15996841D01*
X8020182Y-15996841D02*
X8020182Y-15958746D01*
X8020182Y-15958746D02*
X8010658Y-15911127D01*
X8010658Y-15911127D02*
X8001134Y-15882555D01*
X8001134Y-15882555D02*
X7991611Y-15863508D01*
X7991611Y-15863508D02*
X7972563Y-15834936D01*
X7972563Y-15834936D02*
X7963039Y-15825412D01*
D14*
X2887500Y-16171500D02*
X2997500Y-16281500D01*
X2997500Y-16171500D02*
X2887500Y-16281500D01*
X2942500Y-16171500D02*
X2942500Y-16281500D01*
X2887500Y-16226500D02*
X2997500Y-16226500D01*
D12*
X3363039Y-16317984D02*
X3248753Y-16317984D01*
X3305896Y-16317984D02*
X3305896Y-16117984D01*
X3305896Y-16117984D02*
X3286848Y-16146555D01*
X3286848Y-16146555D02*
X3267801Y-16165603D01*
X3267801Y-16165603D02*
X3248753Y-16175127D01*
X3448753Y-16298936D02*
X3458277Y-16308460D01*
X3458277Y-16308460D02*
X3448753Y-16317984D01*
X3448753Y-16317984D02*
X3439229Y-16308460D01*
X3439229Y-16308460D02*
X3448753Y-16298936D01*
X3448753Y-16298936D02*
X3448753Y-16317984D01*
X3648753Y-16317984D02*
X3534467Y-16317984D01*
X3591610Y-16317984D02*
X3591610Y-16117984D01*
X3591610Y-16117984D02*
X3572562Y-16146555D01*
X3572562Y-16146555D02*
X3553515Y-16165603D01*
X3553515Y-16165603D02*
X3534467Y-16175127D01*
X3772562Y-16117984D02*
X3791610Y-16117984D01*
X3791610Y-16117984D02*
X3810658Y-16127508D01*
X3810658Y-16127508D02*
X3820182Y-16137031D01*
X3820182Y-16137031D02*
X3829705Y-16156079D01*
X3829705Y-16156079D02*
X3839229Y-16194174D01*
X3839229Y-16194174D02*
X3839229Y-16241793D01*
X3839229Y-16241793D02*
X3829705Y-16279888D01*
X3829705Y-16279888D02*
X3820182Y-16298936D01*
X3820182Y-16298936D02*
X3810658Y-16308460D01*
X3810658Y-16308460D02*
X3791610Y-16317984D01*
X3791610Y-16317984D02*
X3772562Y-16317984D01*
X3772562Y-16317984D02*
X3753515Y-16308460D01*
X3753515Y-16308460D02*
X3743991Y-16298936D01*
X3743991Y-16298936D02*
X3734467Y-16279888D01*
X3734467Y-16279888D02*
X3724943Y-16241793D01*
X3724943Y-16241793D02*
X3724943Y-16194174D01*
X3724943Y-16194174D02*
X3734467Y-16156079D01*
X3734467Y-16156079D02*
X3743991Y-16137031D01*
X3743991Y-16137031D02*
X3753515Y-16127508D01*
X3753515Y-16127508D02*
X3772562Y-16117984D01*
X3963039Y-16117984D02*
X3982086Y-16117984D01*
X3982086Y-16117984D02*
X4001134Y-16127508D01*
X4001134Y-16127508D02*
X4010658Y-16137031D01*
X4010658Y-16137031D02*
X4020182Y-16156079D01*
X4020182Y-16156079D02*
X4029705Y-16194174D01*
X4029705Y-16194174D02*
X4029705Y-16241793D01*
X4029705Y-16241793D02*
X4020182Y-16279888D01*
X4020182Y-16279888D02*
X4010658Y-16298936D01*
X4010658Y-16298936D02*
X4001134Y-16308460D01*
X4001134Y-16308460D02*
X3982086Y-16317984D01*
X3982086Y-16317984D02*
X3963039Y-16317984D01*
X3963039Y-16317984D02*
X3943991Y-16308460D01*
X3943991Y-16308460D02*
X3934467Y-16298936D01*
X3934467Y-16298936D02*
X3924943Y-16279888D01*
X3924943Y-16279888D02*
X3915420Y-16241793D01*
X3915420Y-16241793D02*
X3915420Y-16194174D01*
X3915420Y-16194174D02*
X3924943Y-16156079D01*
X3924943Y-16156079D02*
X3934467Y-16137031D01*
X3934467Y-16137031D02*
X3943991Y-16127508D01*
X3943991Y-16127508D02*
X3963039Y-16117984D01*
X4115420Y-16317984D02*
X4115420Y-16184650D01*
X4115420Y-16203698D02*
X4124943Y-16194174D01*
X4124943Y-16194174D02*
X4143991Y-16184650D01*
X4143991Y-16184650D02*
X4172563Y-16184650D01*
X4172563Y-16184650D02*
X4191610Y-16194174D01*
X4191610Y-16194174D02*
X4201134Y-16213222D01*
X4201134Y-16213222D02*
X4201134Y-16317984D01*
X4201134Y-16213222D02*
X4210658Y-16194174D01*
X4210658Y-16194174D02*
X4229705Y-16184650D01*
X4229705Y-16184650D02*
X4258277Y-16184650D01*
X4258277Y-16184650D02*
X4277325Y-16194174D01*
X4277325Y-16194174D02*
X4286848Y-16213222D01*
X4286848Y-16213222D02*
X4286848Y-16317984D01*
X4382086Y-16317984D02*
X4382086Y-16184650D01*
X4382086Y-16203698D02*
X4391610Y-16194174D01*
X4391610Y-16194174D02*
X4410658Y-16184650D01*
X4410658Y-16184650D02*
X4439229Y-16184650D01*
X4439229Y-16184650D02*
X4458277Y-16194174D01*
X4458277Y-16194174D02*
X4467801Y-16213222D01*
X4467801Y-16213222D02*
X4467801Y-16317984D01*
X4467801Y-16213222D02*
X4477325Y-16194174D01*
X4477325Y-16194174D02*
X4496372Y-16184650D01*
X4496372Y-16184650D02*
X4524944Y-16184650D01*
X4524944Y-16184650D02*
X4543991Y-16194174D01*
X4543991Y-16194174D02*
X4553515Y-16213222D01*
X4553515Y-16213222D02*
X4553515Y-16317984D01*
X4943991Y-16108460D02*
X4772563Y-16365603D01*
X5201134Y-16117984D02*
X5220182Y-16117984D01*
X5220182Y-16117984D02*
X5239229Y-16127508D01*
X5239229Y-16127508D02*
X5248753Y-16137031D01*
X5248753Y-16137031D02*
X5258277Y-16156079D01*
X5258277Y-16156079D02*
X5267801Y-16194174D01*
X5267801Y-16194174D02*
X5267801Y-16241793D01*
X5267801Y-16241793D02*
X5258277Y-16279888D01*
X5258277Y-16279888D02*
X5248753Y-16298936D01*
X5248753Y-16298936D02*
X5239229Y-16308460D01*
X5239229Y-16308460D02*
X5220182Y-16317984D01*
X5220182Y-16317984D02*
X5201134Y-16317984D01*
X5201134Y-16317984D02*
X5182087Y-16308460D01*
X5182087Y-16308460D02*
X5172563Y-16298936D01*
X5172563Y-16298936D02*
X5163039Y-16279888D01*
X5163039Y-16279888D02*
X5153515Y-16241793D01*
X5153515Y-16241793D02*
X5153515Y-16194174D01*
X5153515Y-16194174D02*
X5163039Y-16156079D01*
X5163039Y-16156079D02*
X5172563Y-16137031D01*
X5172563Y-16137031D02*
X5182087Y-16127508D01*
X5182087Y-16127508D02*
X5201134Y-16117984D01*
X5353515Y-16298936D02*
X5363039Y-16308460D01*
X5363039Y-16308460D02*
X5353515Y-16317984D01*
X5353515Y-16317984D02*
X5343991Y-16308460D01*
X5343991Y-16308460D02*
X5353515Y-16298936D01*
X5353515Y-16298936D02*
X5353515Y-16317984D01*
X5486848Y-16117984D02*
X5505896Y-16117984D01*
X5505896Y-16117984D02*
X5524944Y-16127508D01*
X5524944Y-16127508D02*
X5534468Y-16137031D01*
X5534468Y-16137031D02*
X5543991Y-16156079D01*
X5543991Y-16156079D02*
X5553515Y-16194174D01*
X5553515Y-16194174D02*
X5553515Y-16241793D01*
X5553515Y-16241793D02*
X5543991Y-16279888D01*
X5543991Y-16279888D02*
X5534468Y-16298936D01*
X5534468Y-16298936D02*
X5524944Y-16308460D01*
X5524944Y-16308460D02*
X5505896Y-16317984D01*
X5505896Y-16317984D02*
X5486848Y-16317984D01*
X5486848Y-16317984D02*
X5467801Y-16308460D01*
X5467801Y-16308460D02*
X5458277Y-16298936D01*
X5458277Y-16298936D02*
X5448753Y-16279888D01*
X5448753Y-16279888D02*
X5439229Y-16241793D01*
X5439229Y-16241793D02*
X5439229Y-16194174D01*
X5439229Y-16194174D02*
X5448753Y-16156079D01*
X5448753Y-16156079D02*
X5458277Y-16137031D01*
X5458277Y-16137031D02*
X5467801Y-16127508D01*
X5467801Y-16127508D02*
X5486848Y-16117984D01*
X5724944Y-16184650D02*
X5724944Y-16317984D01*
X5677325Y-16108460D02*
X5629706Y-16251317D01*
X5629706Y-16251317D02*
X5753515Y-16251317D01*
X5810658Y-16117984D02*
X5934467Y-16117984D01*
X5934467Y-16117984D02*
X5867801Y-16194174D01*
X5867801Y-16194174D02*
X5896372Y-16194174D01*
X5896372Y-16194174D02*
X5915420Y-16203698D01*
X5915420Y-16203698D02*
X5924944Y-16213222D01*
X5924944Y-16213222D02*
X5934467Y-16232269D01*
X5934467Y-16232269D02*
X5934467Y-16279888D01*
X5934467Y-16279888D02*
X5924944Y-16298936D01*
X5924944Y-16298936D02*
X5915420Y-16308460D01*
X5915420Y-16308460D02*
X5896372Y-16317984D01*
X5896372Y-16317984D02*
X5839229Y-16317984D01*
X5839229Y-16317984D02*
X5820182Y-16308460D01*
X5820182Y-16308460D02*
X5810658Y-16298936D01*
X6001134Y-16117984D02*
X6124944Y-16117984D01*
X6124944Y-16117984D02*
X6058277Y-16194174D01*
X6058277Y-16194174D02*
X6086848Y-16194174D01*
X6086848Y-16194174D02*
X6105896Y-16203698D01*
X6105896Y-16203698D02*
X6115420Y-16213222D01*
X6115420Y-16213222D02*
X6124944Y-16232269D01*
X6124944Y-16232269D02*
X6124944Y-16279888D01*
X6124944Y-16279888D02*
X6115420Y-16298936D01*
X6115420Y-16298936D02*
X6105896Y-16308460D01*
X6105896Y-16308460D02*
X6086848Y-16317984D01*
X6086848Y-16317984D02*
X6029706Y-16317984D01*
X6029706Y-16317984D02*
X6010658Y-16308460D01*
X6010658Y-16308460D02*
X6001134Y-16298936D01*
X6201134Y-16117984D02*
X6201134Y-16156079D01*
X6277325Y-16117984D02*
X6277325Y-16156079D01*
X6572563Y-16394174D02*
X6563039Y-16384650D01*
X6563039Y-16384650D02*
X6543991Y-16356079D01*
X6543991Y-16356079D02*
X6534468Y-16337031D01*
X6534468Y-16337031D02*
X6524944Y-16308460D01*
X6524944Y-16308460D02*
X6515420Y-16260841D01*
X6515420Y-16260841D02*
X6515420Y-16222746D01*
X6515420Y-16222746D02*
X6524944Y-16175127D01*
X6524944Y-16175127D02*
X6534468Y-16146555D01*
X6534468Y-16146555D02*
X6543991Y-16127508D01*
X6543991Y-16127508D02*
X6563039Y-16098936D01*
X6563039Y-16098936D02*
X6572563Y-16089412D01*
X6629706Y-16117984D02*
X6753515Y-16117984D01*
X6753515Y-16117984D02*
X6686848Y-16194174D01*
X6686848Y-16194174D02*
X6715420Y-16194174D01*
X6715420Y-16194174D02*
X6734468Y-16203698D01*
X6734468Y-16203698D02*
X6743991Y-16213222D01*
X6743991Y-16213222D02*
X6753515Y-16232269D01*
X6753515Y-16232269D02*
X6753515Y-16279888D01*
X6753515Y-16279888D02*
X6743991Y-16298936D01*
X6743991Y-16298936D02*
X6734468Y-16308460D01*
X6734468Y-16308460D02*
X6715420Y-16317984D01*
X6715420Y-16317984D02*
X6658277Y-16317984D01*
X6658277Y-16317984D02*
X6639229Y-16308460D01*
X6639229Y-16308460D02*
X6629706Y-16298936D01*
X6991610Y-16317984D02*
X6991610Y-16117984D01*
X7077325Y-16317984D02*
X7077325Y-16213222D01*
X7077325Y-16213222D02*
X7067801Y-16194174D01*
X7067801Y-16194174D02*
X7048753Y-16184650D01*
X7048753Y-16184650D02*
X7020182Y-16184650D01*
X7020182Y-16184650D02*
X7001134Y-16194174D01*
X7001134Y-16194174D02*
X6991610Y-16203698D01*
X7201134Y-16317984D02*
X7182087Y-16308460D01*
X7182087Y-16308460D02*
X7172563Y-16298936D01*
X7172563Y-16298936D02*
X7163039Y-16279888D01*
X7163039Y-16279888D02*
X7163039Y-16222746D01*
X7163039Y-16222746D02*
X7172563Y-16203698D01*
X7172563Y-16203698D02*
X7182087Y-16194174D01*
X7182087Y-16194174D02*
X7201134Y-16184650D01*
X7201134Y-16184650D02*
X7229706Y-16184650D01*
X7229706Y-16184650D02*
X7248753Y-16194174D01*
X7248753Y-16194174D02*
X7258277Y-16203698D01*
X7258277Y-16203698D02*
X7267801Y-16222746D01*
X7267801Y-16222746D02*
X7267801Y-16279888D01*
X7267801Y-16279888D02*
X7258277Y-16298936D01*
X7258277Y-16298936D02*
X7248753Y-16308460D01*
X7248753Y-16308460D02*
X7229706Y-16317984D01*
X7229706Y-16317984D02*
X7201134Y-16317984D01*
X7382087Y-16317984D02*
X7363039Y-16308460D01*
X7363039Y-16308460D02*
X7353515Y-16289412D01*
X7353515Y-16289412D02*
X7353515Y-16117984D01*
X7534468Y-16308460D02*
X7515420Y-16317984D01*
X7515420Y-16317984D02*
X7477325Y-16317984D01*
X7477325Y-16317984D02*
X7458277Y-16308460D01*
X7458277Y-16308460D02*
X7448753Y-16289412D01*
X7448753Y-16289412D02*
X7448753Y-16213222D01*
X7448753Y-16213222D02*
X7458277Y-16194174D01*
X7458277Y-16194174D02*
X7477325Y-16184650D01*
X7477325Y-16184650D02*
X7515420Y-16184650D01*
X7515420Y-16184650D02*
X7534468Y-16194174D01*
X7534468Y-16194174D02*
X7543991Y-16213222D01*
X7543991Y-16213222D02*
X7543991Y-16232269D01*
X7543991Y-16232269D02*
X7448753Y-16251317D01*
X7620182Y-16308460D02*
X7639230Y-16317984D01*
X7639230Y-16317984D02*
X7677325Y-16317984D01*
X7677325Y-16317984D02*
X7696372Y-16308460D01*
X7696372Y-16308460D02*
X7705896Y-16289412D01*
X7705896Y-16289412D02*
X7705896Y-16279888D01*
X7705896Y-16279888D02*
X7696372Y-16260841D01*
X7696372Y-16260841D02*
X7677325Y-16251317D01*
X7677325Y-16251317D02*
X7648753Y-16251317D01*
X7648753Y-16251317D02*
X7629706Y-16241793D01*
X7629706Y-16241793D02*
X7620182Y-16222746D01*
X7620182Y-16222746D02*
X7620182Y-16213222D01*
X7620182Y-16213222D02*
X7629706Y-16194174D01*
X7629706Y-16194174D02*
X7648753Y-16184650D01*
X7648753Y-16184650D02*
X7677325Y-16184650D01*
X7677325Y-16184650D02*
X7696372Y-16194174D01*
X7772563Y-16394174D02*
X7782087Y-16384650D01*
X7782087Y-16384650D02*
X7801134Y-16356079D01*
X7801134Y-16356079D02*
X7810658Y-16337031D01*
X7810658Y-16337031D02*
X7820182Y-16308460D01*
X7820182Y-16308460D02*
X7829706Y-16260841D01*
X7829706Y-16260841D02*
X7829706Y-16222746D01*
X7829706Y-16222746D02*
X7820182Y-16175127D01*
X7820182Y-16175127D02*
X7810658Y-16146555D01*
X7810658Y-16146555D02*
X7801134Y-16127508D01*
X7801134Y-16127508D02*
X7782087Y-16098936D01*
X7782087Y-16098936D02*
X7772563Y-16089412D01*
M02*
