G04 #@! TF.GenerationSoftware,KiCad,Pcbnew,7.0.10*
G04 #@! TF.CreationDate,2024-01-17T23:16:48-03:00*
G04 #@! TF.ProjectId,ligeirinho,6c696765-6972-4696-9e68-6f2e6b696361,rev?*
G04 #@! TF.SameCoordinates,Original*
G04 #@! TF.FileFunction,Paste,Top*
G04 #@! TF.FilePolarity,Positive*
%FSLAX46Y46*%
G04 Gerber Fmt 4.6, Leading zero omitted, Abs format (unit mm)*
G04 Created by KiCad (PCBNEW 7.0.10) date 2024-01-17 23:16:48*
%MOMM*%
%LPD*%
G01*
G04 APERTURE LIST*
G04 Aperture macros list*
%AMRoundRect*
0 Rectangle with rounded corners*
0 $1 Rounding radius*
0 $2 $3 $4 $5 $6 $7 $8 $9 X,Y pos of 4 corners*
0 Add a 4 corners polygon primitive as box body*
4,1,4,$2,$3,$4,$5,$6,$7,$8,$9,$2,$3,0*
0 Add four circle primitives for the rounded corners*
1,1,$1+$1,$2,$3*
1,1,$1+$1,$4,$5*
1,1,$1+$1,$6,$7*
1,1,$1+$1,$8,$9*
0 Add four rect primitives between the rounded corners*
20,1,$1+$1,$2,$3,$4,$5,0*
20,1,$1+$1,$4,$5,$6,$7,0*
20,1,$1+$1,$6,$7,$8,$9,0*
20,1,$1+$1,$8,$9,$2,$3,0*%
G04 Aperture macros list end*
%ADD10RoundRect,0.225000X-0.250000X0.225000X-0.250000X-0.225000X0.250000X-0.225000X0.250000X0.225000X0*%
%ADD11RoundRect,0.225000X-0.225000X-0.250000X0.225000X-0.250000X0.225000X0.250000X-0.225000X0.250000X0*%
%ADD12R,0.600000X0.500000*%
%ADD13R,2.000000X1.500000*%
%ADD14R,2.000000X3.800000*%
%ADD15RoundRect,0.250000X-0.475000X0.337500X-0.475000X-0.337500X0.475000X-0.337500X0.475000X0.337500X0*%
%ADD16RoundRect,0.250000X-0.337500X-0.475000X0.337500X-0.475000X0.337500X0.475000X-0.337500X0.475000X0*%
G04 APERTURE END LIST*
D10*
X78510000Y-119095000D03*
X78510000Y-120645000D03*
D11*
X89296000Y-129578000D03*
X90846000Y-129578000D03*
D10*
X76770000Y-119095000D03*
X76770000Y-120645000D03*
D11*
X90638000Y-131987000D03*
X92188000Y-131987000D03*
X89302000Y-125335000D03*
X90852000Y-125335000D03*
X90625000Y-133745000D03*
X92175000Y-133745000D03*
X89296000Y-127878000D03*
X90846000Y-127878000D03*
X79849000Y-122090000D03*
X81399000Y-122090000D03*
D12*
X73860000Y-122135000D03*
X73860000Y-121135000D03*
X72560000Y-121635000D03*
D11*
X89302000Y-123600000D03*
X90852000Y-123600000D03*
D10*
X114910000Y-118995000D03*
X114910000Y-120545000D03*
D11*
X125696000Y-129478000D03*
X127246000Y-129478000D03*
D10*
X113170000Y-118995000D03*
X113170000Y-120545000D03*
D11*
X127038000Y-131887000D03*
X128588000Y-131887000D03*
X125702000Y-125235000D03*
X127252000Y-125235000D03*
X127025000Y-133645000D03*
X128575000Y-133645000D03*
X125696000Y-127778000D03*
X127246000Y-127778000D03*
X116249000Y-121990000D03*
X117799000Y-121990000D03*
D12*
X110260000Y-122035000D03*
X110260000Y-121035000D03*
X108960000Y-121535000D03*
D11*
X125702000Y-123500000D03*
X127252000Y-123500000D03*
X54072000Y-129578000D03*
X55622000Y-129578000D03*
D10*
X43286000Y-119095000D03*
X43286000Y-120645000D03*
D12*
X38636000Y-122135000D03*
X38636000Y-121135000D03*
X37336000Y-121635000D03*
D11*
X54072000Y-127878000D03*
X55622000Y-127878000D03*
X44625000Y-122090000D03*
X46175000Y-122090000D03*
X54078000Y-123600000D03*
X55628000Y-123600000D03*
D10*
X41546000Y-119095000D03*
X41546000Y-120645000D03*
D11*
X55414000Y-131987000D03*
X56964000Y-131987000D03*
X54078000Y-125335000D03*
X55628000Y-125335000D03*
X55401000Y-133745000D03*
X56951000Y-133745000D03*
D13*
X74125000Y-85115000D03*
D14*
X80425000Y-82815000D03*
D13*
X74125000Y-82815000D03*
X74125000Y-80515000D03*
D15*
X83065000Y-84942500D03*
X83065000Y-82867500D03*
D16*
X79252500Y-88255000D03*
X77177500Y-88255000D03*
M02*
