%TF.GenerationSoftware,KiCad,Pcbnew,7.0.10*%
%TF.CreationDate,2024-01-17T23:18:36-03:00*%
%TF.ProjectId,ligeirinho,6c696765-6972-4696-9e68-6f2e6b696361,rev?*%
%TF.SameCoordinates,Original*%
%TF.FileFunction,Drillmap*%
%TF.FilePolarity,Positive*%
%FSLAX45Y45*%
G04 Gerber Fmt 4.5, Leading zero omitted, Abs format (unit mm)*
G04 Created by KiCad (PCBNEW 7.0.10) date 2024-01-17 23:18:36*
%MOMM*%
%LPD*%
G01*
G04 APERTURE LIST*
%ADD10C,0.100000*%
%ADD11C,0.050000*%
%ADD12C,0.200000*%
%ADD13C,0.150000*%
%ADD14C,0.120000*%
G04 APERTURE END LIST*
D10*
X9239000Y-11278500D02*
G75*
G03*
X8839000Y-11278500I-200000J0D01*
G01*
X8839000Y-11278500D02*
G75*
G03*
X9239000Y-11278500I200000J0D01*
G01*
X7039000Y-11278500D02*
G75*
G03*
X6639000Y-11278500I-200000J0D01*
G01*
X6639000Y-11278500D02*
G75*
G03*
X7039000Y-11278500I200000J0D01*
G01*
X9239000Y-13678500D02*
G75*
G03*
X8839000Y-13678500I-200000J0D01*
G01*
X8839000Y-13678500D02*
G75*
G03*
X9239000Y-13678500I200000J0D01*
G01*
X12879000Y-11268500D02*
G75*
G03*
X12479000Y-11268500I-200000J0D01*
G01*
X12479000Y-11268500D02*
G75*
G03*
X12879000Y-11268500I200000J0D01*
G01*
X10679000Y-11268500D02*
G75*
G03*
X10279000Y-11268500I-200000J0D01*
G01*
X10279000Y-11268500D02*
G75*
G03*
X10679000Y-11268500I200000J0D01*
G01*
X12879000Y-13668500D02*
G75*
G03*
X12479000Y-13668500I-200000J0D01*
G01*
X12479000Y-13668500D02*
G75*
G03*
X12879000Y-13668500I200000J0D01*
G01*
D11*
X3000000Y-4000000D02*
X13000000Y-4000000D01*
X13000000Y-14000000D01*
X3000000Y-14000000D01*
X3000000Y-4000000D01*
D10*
X3516600Y-11278500D02*
G75*
G03*
X3116600Y-11278500I-200000J0D01*
G01*
X3116600Y-11278500D02*
G75*
G03*
X3516600Y-11278500I200000J0D01*
G01*
X5716600Y-13678500D02*
G75*
G03*
X5316600Y-13678500I-200000J0D01*
G01*
X5316600Y-13678500D02*
G75*
G03*
X5716600Y-13678500I200000J0D01*
G01*
X5716600Y-11278500D02*
G75*
G03*
X5316600Y-11278500I-200000J0D01*
G01*
X5316600Y-11278500D02*
G75*
G03*
X5716600Y-11278500I200000J0D01*
G01*
D12*
X3679500Y-6765500D02*
G75*
G03*
X3279500Y-6765500I-200000J0D01*
G01*
X3279500Y-6765500D02*
G75*
G03*
X3679500Y-6765500I200000J0D01*
G01*
X10466500Y-5352500D02*
G75*
G03*
X10066500Y-5352500I-200000J0D01*
G01*
X10066500Y-5352500D02*
G75*
G03*
X10466500Y-5352500I200000J0D01*
G01*
X10466500Y-8130500D02*
G75*
G03*
X10066500Y-8130500I-200000J0D01*
G01*
X10066500Y-8130500D02*
G75*
G03*
X10466500Y-8130500I200000J0D01*
G01*
D13*
X7602400Y-12432500D02*
X8522400Y-12432500D01*
X7602400Y-13778500D02*
X7602400Y-12432500D01*
X8522400Y-12432500D02*
X8522400Y-13778500D01*
X8522400Y-13778500D02*
X7602400Y-13778500D01*
X11242400Y-12422500D02*
X12162400Y-12422500D01*
X11242400Y-13768500D02*
X11242400Y-12422500D01*
X12162400Y-12422500D02*
X12162400Y-13768500D01*
X12162400Y-13768500D02*
X11242400Y-13768500D01*
X4080000Y-12432500D02*
X5000000Y-12432500D01*
X4080000Y-13778500D02*
X4080000Y-12432500D01*
X5000000Y-12432500D02*
X5000000Y-13778500D01*
X5000000Y-13778500D02*
X4080000Y-13778500D01*
D12*
D14*
X3182000Y-12407500D02*
X3302000Y-12527500D01*
X3302000Y-12407500D02*
X3182000Y-12527500D01*
X4456500Y-4180500D02*
X4576500Y-4300500D01*
X4576500Y-4180500D02*
X4456500Y-4300500D01*
X6156500Y-4180500D02*
X6276500Y-4300500D01*
X6276500Y-4180500D02*
X6156500Y-4300500D01*
X6704400Y-12407500D02*
X6824400Y-12527500D01*
X6824400Y-12407500D02*
X6704400Y-12527500D01*
X7916500Y-4180500D02*
X8036500Y-4300500D01*
X8036500Y-4180500D02*
X7916500Y-4300500D01*
X9156500Y-9280500D02*
X9276500Y-9400500D01*
X9276500Y-9280500D02*
X9156500Y-9400500D01*
X9836500Y-8970500D02*
X9956500Y-9090500D01*
X9956500Y-8970500D02*
X9836500Y-9090500D01*
X10344400Y-12397500D02*
X10464400Y-12517500D01*
X10464400Y-12397500D02*
X10344400Y-12517500D01*
D12*
X3258277Y-14313984D02*
X3258277Y-14113984D01*
X3258277Y-14113984D02*
X3305896Y-14113984D01*
X3305896Y-14113984D02*
X3334467Y-14123508D01*
X3334467Y-14123508D02*
X3353515Y-14142555D01*
X3353515Y-14142555D02*
X3363039Y-14161603D01*
X3363039Y-14161603D02*
X3372562Y-14199698D01*
X3372562Y-14199698D02*
X3372562Y-14228269D01*
X3372562Y-14228269D02*
X3363039Y-14266365D01*
X3363039Y-14266365D02*
X3353515Y-14285412D01*
X3353515Y-14285412D02*
X3334467Y-14304460D01*
X3334467Y-14304460D02*
X3305896Y-14313984D01*
X3305896Y-14313984D02*
X3258277Y-14313984D01*
X3458277Y-14313984D02*
X3458277Y-14180650D01*
X3458277Y-14218746D02*
X3467801Y-14199698D01*
X3467801Y-14199698D02*
X3477324Y-14190174D01*
X3477324Y-14190174D02*
X3496372Y-14180650D01*
X3496372Y-14180650D02*
X3515420Y-14180650D01*
X3582086Y-14313984D02*
X3582086Y-14180650D01*
X3582086Y-14113984D02*
X3572562Y-14123508D01*
X3572562Y-14123508D02*
X3582086Y-14133031D01*
X3582086Y-14133031D02*
X3591610Y-14123508D01*
X3591610Y-14123508D02*
X3582086Y-14113984D01*
X3582086Y-14113984D02*
X3582086Y-14133031D01*
X3705896Y-14313984D02*
X3686848Y-14304460D01*
X3686848Y-14304460D02*
X3677324Y-14285412D01*
X3677324Y-14285412D02*
X3677324Y-14113984D01*
X3810658Y-14313984D02*
X3791610Y-14304460D01*
X3791610Y-14304460D02*
X3782086Y-14285412D01*
X3782086Y-14285412D02*
X3782086Y-14113984D01*
X4039229Y-14313984D02*
X4039229Y-14113984D01*
X4039229Y-14113984D02*
X4105896Y-14256841D01*
X4105896Y-14256841D02*
X4172562Y-14113984D01*
X4172562Y-14113984D02*
X4172562Y-14313984D01*
X4353515Y-14313984D02*
X4353515Y-14209222D01*
X4353515Y-14209222D02*
X4343991Y-14190174D01*
X4343991Y-14190174D02*
X4324944Y-14180650D01*
X4324944Y-14180650D02*
X4286848Y-14180650D01*
X4286848Y-14180650D02*
X4267801Y-14190174D01*
X4353515Y-14304460D02*
X4334467Y-14313984D01*
X4334467Y-14313984D02*
X4286848Y-14313984D01*
X4286848Y-14313984D02*
X4267801Y-14304460D01*
X4267801Y-14304460D02*
X4258277Y-14285412D01*
X4258277Y-14285412D02*
X4258277Y-14266365D01*
X4258277Y-14266365D02*
X4267801Y-14247317D01*
X4267801Y-14247317D02*
X4286848Y-14237793D01*
X4286848Y-14237793D02*
X4334467Y-14237793D01*
X4334467Y-14237793D02*
X4353515Y-14228269D01*
X4448753Y-14180650D02*
X4448753Y-14380650D01*
X4448753Y-14190174D02*
X4467801Y-14180650D01*
X4467801Y-14180650D02*
X4505896Y-14180650D01*
X4505896Y-14180650D02*
X4524944Y-14190174D01*
X4524944Y-14190174D02*
X4534467Y-14199698D01*
X4534467Y-14199698D02*
X4543991Y-14218746D01*
X4543991Y-14218746D02*
X4543991Y-14275888D01*
X4543991Y-14275888D02*
X4534467Y-14294936D01*
X4534467Y-14294936D02*
X4524944Y-14304460D01*
X4524944Y-14304460D02*
X4505896Y-14313984D01*
X4505896Y-14313984D02*
X4467801Y-14313984D01*
X4467801Y-14313984D02*
X4448753Y-14304460D01*
X4629705Y-14294936D02*
X4639229Y-14304460D01*
X4639229Y-14304460D02*
X4629705Y-14313984D01*
X4629705Y-14313984D02*
X4620182Y-14304460D01*
X4620182Y-14304460D02*
X4629705Y-14294936D01*
X4629705Y-14294936D02*
X4629705Y-14313984D01*
X4629705Y-14190174D02*
X4639229Y-14199698D01*
X4639229Y-14199698D02*
X4629705Y-14209222D01*
X4629705Y-14209222D02*
X4620182Y-14199698D01*
X4620182Y-14199698D02*
X4629705Y-14190174D01*
X4629705Y-14190174D02*
X4629705Y-14209222D01*
D14*
X2877500Y-14582500D02*
X2997500Y-14702500D01*
X2997500Y-14582500D02*
X2877500Y-14702500D01*
D12*
X3363039Y-14733984D02*
X3248753Y-14733984D01*
X3305896Y-14733984D02*
X3305896Y-14533984D01*
X3305896Y-14533984D02*
X3286848Y-14562555D01*
X3286848Y-14562555D02*
X3267801Y-14581603D01*
X3267801Y-14581603D02*
X3248753Y-14591127D01*
X3448753Y-14714936D02*
X3458277Y-14724460D01*
X3458277Y-14724460D02*
X3448753Y-14733984D01*
X3448753Y-14733984D02*
X3439229Y-14724460D01*
X3439229Y-14724460D02*
X3448753Y-14714936D01*
X3448753Y-14714936D02*
X3448753Y-14733984D01*
X3534467Y-14553031D02*
X3543991Y-14543508D01*
X3543991Y-14543508D02*
X3563039Y-14533984D01*
X3563039Y-14533984D02*
X3610658Y-14533984D01*
X3610658Y-14533984D02*
X3629705Y-14543508D01*
X3629705Y-14543508D02*
X3639229Y-14553031D01*
X3639229Y-14553031D02*
X3648753Y-14572079D01*
X3648753Y-14572079D02*
X3648753Y-14591127D01*
X3648753Y-14591127D02*
X3639229Y-14619698D01*
X3639229Y-14619698D02*
X3524943Y-14733984D01*
X3524943Y-14733984D02*
X3648753Y-14733984D01*
X3772562Y-14533984D02*
X3791610Y-14533984D01*
X3791610Y-14533984D02*
X3810658Y-14543508D01*
X3810658Y-14543508D02*
X3820182Y-14553031D01*
X3820182Y-14553031D02*
X3829705Y-14572079D01*
X3829705Y-14572079D02*
X3839229Y-14610174D01*
X3839229Y-14610174D02*
X3839229Y-14657793D01*
X3839229Y-14657793D02*
X3829705Y-14695888D01*
X3829705Y-14695888D02*
X3820182Y-14714936D01*
X3820182Y-14714936D02*
X3810658Y-14724460D01*
X3810658Y-14724460D02*
X3791610Y-14733984D01*
X3791610Y-14733984D02*
X3772562Y-14733984D01*
X3772562Y-14733984D02*
X3753515Y-14724460D01*
X3753515Y-14724460D02*
X3743991Y-14714936D01*
X3743991Y-14714936D02*
X3734467Y-14695888D01*
X3734467Y-14695888D02*
X3724943Y-14657793D01*
X3724943Y-14657793D02*
X3724943Y-14610174D01*
X3724943Y-14610174D02*
X3734467Y-14572079D01*
X3734467Y-14572079D02*
X3743991Y-14553031D01*
X3743991Y-14553031D02*
X3753515Y-14543508D01*
X3753515Y-14543508D02*
X3772562Y-14533984D01*
X3963039Y-14533984D02*
X3982086Y-14533984D01*
X3982086Y-14533984D02*
X4001134Y-14543508D01*
X4001134Y-14543508D02*
X4010658Y-14553031D01*
X4010658Y-14553031D02*
X4020182Y-14572079D01*
X4020182Y-14572079D02*
X4029705Y-14610174D01*
X4029705Y-14610174D02*
X4029705Y-14657793D01*
X4029705Y-14657793D02*
X4020182Y-14695888D01*
X4020182Y-14695888D02*
X4010658Y-14714936D01*
X4010658Y-14714936D02*
X4001134Y-14724460D01*
X4001134Y-14724460D02*
X3982086Y-14733984D01*
X3982086Y-14733984D02*
X3963039Y-14733984D01*
X3963039Y-14733984D02*
X3943991Y-14724460D01*
X3943991Y-14724460D02*
X3934467Y-14714936D01*
X3934467Y-14714936D02*
X3924943Y-14695888D01*
X3924943Y-14695888D02*
X3915420Y-14657793D01*
X3915420Y-14657793D02*
X3915420Y-14610174D01*
X3915420Y-14610174D02*
X3924943Y-14572079D01*
X3924943Y-14572079D02*
X3934467Y-14553031D01*
X3934467Y-14553031D02*
X3943991Y-14543508D01*
X3943991Y-14543508D02*
X3963039Y-14533984D01*
X4115420Y-14733984D02*
X4115420Y-14600650D01*
X4115420Y-14619698D02*
X4124943Y-14610174D01*
X4124943Y-14610174D02*
X4143991Y-14600650D01*
X4143991Y-14600650D02*
X4172563Y-14600650D01*
X4172563Y-14600650D02*
X4191610Y-14610174D01*
X4191610Y-14610174D02*
X4201134Y-14629222D01*
X4201134Y-14629222D02*
X4201134Y-14733984D01*
X4201134Y-14629222D02*
X4210658Y-14610174D01*
X4210658Y-14610174D02*
X4229705Y-14600650D01*
X4229705Y-14600650D02*
X4258277Y-14600650D01*
X4258277Y-14600650D02*
X4277325Y-14610174D01*
X4277325Y-14610174D02*
X4286848Y-14629222D01*
X4286848Y-14629222D02*
X4286848Y-14733984D01*
X4382086Y-14733984D02*
X4382086Y-14600650D01*
X4382086Y-14619698D02*
X4391610Y-14610174D01*
X4391610Y-14610174D02*
X4410658Y-14600650D01*
X4410658Y-14600650D02*
X4439229Y-14600650D01*
X4439229Y-14600650D02*
X4458277Y-14610174D01*
X4458277Y-14610174D02*
X4467801Y-14629222D01*
X4467801Y-14629222D02*
X4467801Y-14733984D01*
X4467801Y-14629222D02*
X4477325Y-14610174D01*
X4477325Y-14610174D02*
X4496372Y-14600650D01*
X4496372Y-14600650D02*
X4524944Y-14600650D01*
X4524944Y-14600650D02*
X4543991Y-14610174D01*
X4543991Y-14610174D02*
X4553515Y-14629222D01*
X4553515Y-14629222D02*
X4553515Y-14733984D01*
X4943991Y-14524460D02*
X4772563Y-14781603D01*
X5201134Y-14533984D02*
X5220182Y-14533984D01*
X5220182Y-14533984D02*
X5239229Y-14543508D01*
X5239229Y-14543508D02*
X5248753Y-14553031D01*
X5248753Y-14553031D02*
X5258277Y-14572079D01*
X5258277Y-14572079D02*
X5267801Y-14610174D01*
X5267801Y-14610174D02*
X5267801Y-14657793D01*
X5267801Y-14657793D02*
X5258277Y-14695888D01*
X5258277Y-14695888D02*
X5248753Y-14714936D01*
X5248753Y-14714936D02*
X5239229Y-14724460D01*
X5239229Y-14724460D02*
X5220182Y-14733984D01*
X5220182Y-14733984D02*
X5201134Y-14733984D01*
X5201134Y-14733984D02*
X5182087Y-14724460D01*
X5182087Y-14724460D02*
X5172563Y-14714936D01*
X5172563Y-14714936D02*
X5163039Y-14695888D01*
X5163039Y-14695888D02*
X5153515Y-14657793D01*
X5153515Y-14657793D02*
X5153515Y-14610174D01*
X5153515Y-14610174D02*
X5163039Y-14572079D01*
X5163039Y-14572079D02*
X5172563Y-14553031D01*
X5172563Y-14553031D02*
X5182087Y-14543508D01*
X5182087Y-14543508D02*
X5201134Y-14533984D01*
X5353515Y-14714936D02*
X5363039Y-14724460D01*
X5363039Y-14724460D02*
X5353515Y-14733984D01*
X5353515Y-14733984D02*
X5343991Y-14724460D01*
X5343991Y-14724460D02*
X5353515Y-14714936D01*
X5353515Y-14714936D02*
X5353515Y-14733984D01*
X5486848Y-14533984D02*
X5505896Y-14533984D01*
X5505896Y-14533984D02*
X5524944Y-14543508D01*
X5524944Y-14543508D02*
X5534468Y-14553031D01*
X5534468Y-14553031D02*
X5543991Y-14572079D01*
X5543991Y-14572079D02*
X5553515Y-14610174D01*
X5553515Y-14610174D02*
X5553515Y-14657793D01*
X5553515Y-14657793D02*
X5543991Y-14695888D01*
X5543991Y-14695888D02*
X5534468Y-14714936D01*
X5534468Y-14714936D02*
X5524944Y-14724460D01*
X5524944Y-14724460D02*
X5505896Y-14733984D01*
X5505896Y-14733984D02*
X5486848Y-14733984D01*
X5486848Y-14733984D02*
X5467801Y-14724460D01*
X5467801Y-14724460D02*
X5458277Y-14714936D01*
X5458277Y-14714936D02*
X5448753Y-14695888D01*
X5448753Y-14695888D02*
X5439229Y-14657793D01*
X5439229Y-14657793D02*
X5439229Y-14610174D01*
X5439229Y-14610174D02*
X5448753Y-14572079D01*
X5448753Y-14572079D02*
X5458277Y-14553031D01*
X5458277Y-14553031D02*
X5467801Y-14543508D01*
X5467801Y-14543508D02*
X5486848Y-14533984D01*
X5724944Y-14600650D02*
X5724944Y-14733984D01*
X5677325Y-14524460D02*
X5629706Y-14667317D01*
X5629706Y-14667317D02*
X5753515Y-14667317D01*
X5810658Y-14533984D02*
X5943991Y-14533984D01*
X5943991Y-14533984D02*
X5858277Y-14733984D01*
X6010658Y-14553031D02*
X6020182Y-14543508D01*
X6020182Y-14543508D02*
X6039229Y-14533984D01*
X6039229Y-14533984D02*
X6086848Y-14533984D01*
X6086848Y-14533984D02*
X6105896Y-14543508D01*
X6105896Y-14543508D02*
X6115420Y-14553031D01*
X6115420Y-14553031D02*
X6124944Y-14572079D01*
X6124944Y-14572079D02*
X6124944Y-14591127D01*
X6124944Y-14591127D02*
X6115420Y-14619698D01*
X6115420Y-14619698D02*
X6001134Y-14733984D01*
X6001134Y-14733984D02*
X6124944Y-14733984D01*
X6201134Y-14533984D02*
X6201134Y-14572079D01*
X6277325Y-14533984D02*
X6277325Y-14572079D01*
X6572563Y-14810174D02*
X6563039Y-14800650D01*
X6563039Y-14800650D02*
X6543991Y-14772079D01*
X6543991Y-14772079D02*
X6534468Y-14753031D01*
X6534468Y-14753031D02*
X6524944Y-14724460D01*
X6524944Y-14724460D02*
X6515420Y-14676841D01*
X6515420Y-14676841D02*
X6515420Y-14638746D01*
X6515420Y-14638746D02*
X6524944Y-14591127D01*
X6524944Y-14591127D02*
X6534468Y-14562555D01*
X6534468Y-14562555D02*
X6543991Y-14543508D01*
X6543991Y-14543508D02*
X6563039Y-14514936D01*
X6563039Y-14514936D02*
X6572563Y-14505412D01*
X6677325Y-14619698D02*
X6658277Y-14610174D01*
X6658277Y-14610174D02*
X6648753Y-14600650D01*
X6648753Y-14600650D02*
X6639229Y-14581603D01*
X6639229Y-14581603D02*
X6639229Y-14572079D01*
X6639229Y-14572079D02*
X6648753Y-14553031D01*
X6648753Y-14553031D02*
X6658277Y-14543508D01*
X6658277Y-14543508D02*
X6677325Y-14533984D01*
X6677325Y-14533984D02*
X6715420Y-14533984D01*
X6715420Y-14533984D02*
X6734468Y-14543508D01*
X6734468Y-14543508D02*
X6743991Y-14553031D01*
X6743991Y-14553031D02*
X6753515Y-14572079D01*
X6753515Y-14572079D02*
X6753515Y-14581603D01*
X6753515Y-14581603D02*
X6743991Y-14600650D01*
X6743991Y-14600650D02*
X6734468Y-14610174D01*
X6734468Y-14610174D02*
X6715420Y-14619698D01*
X6715420Y-14619698D02*
X6677325Y-14619698D01*
X6677325Y-14619698D02*
X6658277Y-14629222D01*
X6658277Y-14629222D02*
X6648753Y-14638746D01*
X6648753Y-14638746D02*
X6639229Y-14657793D01*
X6639229Y-14657793D02*
X6639229Y-14695888D01*
X6639229Y-14695888D02*
X6648753Y-14714936D01*
X6648753Y-14714936D02*
X6658277Y-14724460D01*
X6658277Y-14724460D02*
X6677325Y-14733984D01*
X6677325Y-14733984D02*
X6715420Y-14733984D01*
X6715420Y-14733984D02*
X6734468Y-14724460D01*
X6734468Y-14724460D02*
X6743991Y-14714936D01*
X6743991Y-14714936D02*
X6753515Y-14695888D01*
X6753515Y-14695888D02*
X6753515Y-14657793D01*
X6753515Y-14657793D02*
X6743991Y-14638746D01*
X6743991Y-14638746D02*
X6734468Y-14629222D01*
X6734468Y-14629222D02*
X6715420Y-14619698D01*
X6991610Y-14733984D02*
X6991610Y-14533984D01*
X7077325Y-14733984D02*
X7077325Y-14629222D01*
X7077325Y-14629222D02*
X7067801Y-14610174D01*
X7067801Y-14610174D02*
X7048753Y-14600650D01*
X7048753Y-14600650D02*
X7020182Y-14600650D01*
X7020182Y-14600650D02*
X7001134Y-14610174D01*
X7001134Y-14610174D02*
X6991610Y-14619698D01*
X7201134Y-14733984D02*
X7182087Y-14724460D01*
X7182087Y-14724460D02*
X7172563Y-14714936D01*
X7172563Y-14714936D02*
X7163039Y-14695888D01*
X7163039Y-14695888D02*
X7163039Y-14638746D01*
X7163039Y-14638746D02*
X7172563Y-14619698D01*
X7172563Y-14619698D02*
X7182087Y-14610174D01*
X7182087Y-14610174D02*
X7201134Y-14600650D01*
X7201134Y-14600650D02*
X7229706Y-14600650D01*
X7229706Y-14600650D02*
X7248753Y-14610174D01*
X7248753Y-14610174D02*
X7258277Y-14619698D01*
X7258277Y-14619698D02*
X7267801Y-14638746D01*
X7267801Y-14638746D02*
X7267801Y-14695888D01*
X7267801Y-14695888D02*
X7258277Y-14714936D01*
X7258277Y-14714936D02*
X7248753Y-14724460D01*
X7248753Y-14724460D02*
X7229706Y-14733984D01*
X7229706Y-14733984D02*
X7201134Y-14733984D01*
X7382087Y-14733984D02*
X7363039Y-14724460D01*
X7363039Y-14724460D02*
X7353515Y-14705412D01*
X7353515Y-14705412D02*
X7353515Y-14533984D01*
X7534468Y-14724460D02*
X7515420Y-14733984D01*
X7515420Y-14733984D02*
X7477325Y-14733984D01*
X7477325Y-14733984D02*
X7458277Y-14724460D01*
X7458277Y-14724460D02*
X7448753Y-14705412D01*
X7448753Y-14705412D02*
X7448753Y-14629222D01*
X7448753Y-14629222D02*
X7458277Y-14610174D01*
X7458277Y-14610174D02*
X7477325Y-14600650D01*
X7477325Y-14600650D02*
X7515420Y-14600650D01*
X7515420Y-14600650D02*
X7534468Y-14610174D01*
X7534468Y-14610174D02*
X7543991Y-14629222D01*
X7543991Y-14629222D02*
X7543991Y-14648269D01*
X7543991Y-14648269D02*
X7448753Y-14667317D01*
X7620182Y-14724460D02*
X7639230Y-14733984D01*
X7639230Y-14733984D02*
X7677325Y-14733984D01*
X7677325Y-14733984D02*
X7696372Y-14724460D01*
X7696372Y-14724460D02*
X7705896Y-14705412D01*
X7705896Y-14705412D02*
X7705896Y-14695888D01*
X7705896Y-14695888D02*
X7696372Y-14676841D01*
X7696372Y-14676841D02*
X7677325Y-14667317D01*
X7677325Y-14667317D02*
X7648753Y-14667317D01*
X7648753Y-14667317D02*
X7629706Y-14657793D01*
X7629706Y-14657793D02*
X7620182Y-14638746D01*
X7620182Y-14638746D02*
X7620182Y-14629222D01*
X7620182Y-14629222D02*
X7629706Y-14610174D01*
X7629706Y-14610174D02*
X7648753Y-14600650D01*
X7648753Y-14600650D02*
X7677325Y-14600650D01*
X7677325Y-14600650D02*
X7696372Y-14610174D01*
X7772563Y-14810174D02*
X7782087Y-14800650D01*
X7782087Y-14800650D02*
X7801134Y-14772079D01*
X7801134Y-14772079D02*
X7810658Y-14753031D01*
X7810658Y-14753031D02*
X7820182Y-14724460D01*
X7820182Y-14724460D02*
X7829706Y-14676841D01*
X7829706Y-14676841D02*
X7829706Y-14638746D01*
X7829706Y-14638746D02*
X7820182Y-14591127D01*
X7820182Y-14591127D02*
X7810658Y-14562555D01*
X7810658Y-14562555D02*
X7801134Y-14543508D01*
X7801134Y-14543508D02*
X7782087Y-14514936D01*
X7782087Y-14514936D02*
X7772563Y-14505412D01*
X8134468Y-14810174D02*
X8124944Y-14800650D01*
X8124944Y-14800650D02*
X8105896Y-14772079D01*
X8105896Y-14772079D02*
X8096372Y-14753031D01*
X8096372Y-14753031D02*
X8086849Y-14724460D01*
X8086849Y-14724460D02*
X8077325Y-14676841D01*
X8077325Y-14676841D02*
X8077325Y-14638746D01*
X8077325Y-14638746D02*
X8086849Y-14591127D01*
X8086849Y-14591127D02*
X8096372Y-14562555D01*
X8096372Y-14562555D02*
X8105896Y-14543508D01*
X8105896Y-14543508D02*
X8124944Y-14514936D01*
X8124944Y-14514936D02*
X8134468Y-14505412D01*
X8210658Y-14600650D02*
X8210658Y-14733984D01*
X8210658Y-14619698D02*
X8220182Y-14610174D01*
X8220182Y-14610174D02*
X8239230Y-14600650D01*
X8239230Y-14600650D02*
X8267801Y-14600650D01*
X8267801Y-14600650D02*
X8286849Y-14610174D01*
X8286849Y-14610174D02*
X8296372Y-14629222D01*
X8296372Y-14629222D02*
X8296372Y-14733984D01*
X8420182Y-14733984D02*
X8401134Y-14724460D01*
X8401134Y-14724460D02*
X8391611Y-14714936D01*
X8391611Y-14714936D02*
X8382087Y-14695888D01*
X8382087Y-14695888D02*
X8382087Y-14638746D01*
X8382087Y-14638746D02*
X8391611Y-14619698D01*
X8391611Y-14619698D02*
X8401134Y-14610174D01*
X8401134Y-14610174D02*
X8420182Y-14600650D01*
X8420182Y-14600650D02*
X8448754Y-14600650D01*
X8448754Y-14600650D02*
X8467801Y-14610174D01*
X8467801Y-14610174D02*
X8477325Y-14619698D01*
X8477325Y-14619698D02*
X8486849Y-14638746D01*
X8486849Y-14638746D02*
X8486849Y-14695888D01*
X8486849Y-14695888D02*
X8477325Y-14714936D01*
X8477325Y-14714936D02*
X8467801Y-14724460D01*
X8467801Y-14724460D02*
X8448754Y-14733984D01*
X8448754Y-14733984D02*
X8420182Y-14733984D01*
X8543992Y-14600650D02*
X8620182Y-14600650D01*
X8572563Y-14533984D02*
X8572563Y-14705412D01*
X8572563Y-14705412D02*
X8582087Y-14724460D01*
X8582087Y-14724460D02*
X8601134Y-14733984D01*
X8601134Y-14733984D02*
X8620182Y-14733984D01*
X8839230Y-14600650D02*
X8839230Y-14800650D01*
X8839230Y-14610174D02*
X8858277Y-14600650D01*
X8858277Y-14600650D02*
X8896373Y-14600650D01*
X8896373Y-14600650D02*
X8915420Y-14610174D01*
X8915420Y-14610174D02*
X8924944Y-14619698D01*
X8924944Y-14619698D02*
X8934468Y-14638746D01*
X8934468Y-14638746D02*
X8934468Y-14695888D01*
X8934468Y-14695888D02*
X8924944Y-14714936D01*
X8924944Y-14714936D02*
X8915420Y-14724460D01*
X8915420Y-14724460D02*
X8896373Y-14733984D01*
X8896373Y-14733984D02*
X8858277Y-14733984D01*
X8858277Y-14733984D02*
X8839230Y-14724460D01*
X9048754Y-14733984D02*
X9029706Y-14724460D01*
X9029706Y-14724460D02*
X9020182Y-14705412D01*
X9020182Y-14705412D02*
X9020182Y-14533984D01*
X9210658Y-14733984D02*
X9210658Y-14629222D01*
X9210658Y-14629222D02*
X9201135Y-14610174D01*
X9201135Y-14610174D02*
X9182087Y-14600650D01*
X9182087Y-14600650D02*
X9143992Y-14600650D01*
X9143992Y-14600650D02*
X9124944Y-14610174D01*
X9210658Y-14724460D02*
X9191611Y-14733984D01*
X9191611Y-14733984D02*
X9143992Y-14733984D01*
X9143992Y-14733984D02*
X9124944Y-14724460D01*
X9124944Y-14724460D02*
X9115420Y-14705412D01*
X9115420Y-14705412D02*
X9115420Y-14686365D01*
X9115420Y-14686365D02*
X9124944Y-14667317D01*
X9124944Y-14667317D02*
X9143992Y-14657793D01*
X9143992Y-14657793D02*
X9191611Y-14657793D01*
X9191611Y-14657793D02*
X9210658Y-14648269D01*
X9277325Y-14600650D02*
X9353515Y-14600650D01*
X9305896Y-14533984D02*
X9305896Y-14705412D01*
X9305896Y-14705412D02*
X9315420Y-14724460D01*
X9315420Y-14724460D02*
X9334468Y-14733984D01*
X9334468Y-14733984D02*
X9353515Y-14733984D01*
X9496373Y-14724460D02*
X9477325Y-14733984D01*
X9477325Y-14733984D02*
X9439230Y-14733984D01*
X9439230Y-14733984D02*
X9420182Y-14724460D01*
X9420182Y-14724460D02*
X9410658Y-14705412D01*
X9410658Y-14705412D02*
X9410658Y-14629222D01*
X9410658Y-14629222D02*
X9420182Y-14610174D01*
X9420182Y-14610174D02*
X9439230Y-14600650D01*
X9439230Y-14600650D02*
X9477325Y-14600650D01*
X9477325Y-14600650D02*
X9496373Y-14610174D01*
X9496373Y-14610174D02*
X9505896Y-14629222D01*
X9505896Y-14629222D02*
X9505896Y-14648269D01*
X9505896Y-14648269D02*
X9410658Y-14667317D01*
X9677325Y-14733984D02*
X9677325Y-14533984D01*
X9677325Y-14724460D02*
X9658277Y-14733984D01*
X9658277Y-14733984D02*
X9620182Y-14733984D01*
X9620182Y-14733984D02*
X9601135Y-14724460D01*
X9601135Y-14724460D02*
X9591611Y-14714936D01*
X9591611Y-14714936D02*
X9582087Y-14695888D01*
X9582087Y-14695888D02*
X9582087Y-14638746D01*
X9582087Y-14638746D02*
X9591611Y-14619698D01*
X9591611Y-14619698D02*
X9601135Y-14610174D01*
X9601135Y-14610174D02*
X9620182Y-14600650D01*
X9620182Y-14600650D02*
X9658277Y-14600650D01*
X9658277Y-14600650D02*
X9677325Y-14610174D01*
X9753516Y-14810174D02*
X9763039Y-14800650D01*
X9763039Y-14800650D02*
X9782087Y-14772079D01*
X9782087Y-14772079D02*
X9791611Y-14753031D01*
X9791611Y-14753031D02*
X9801135Y-14724460D01*
X9801135Y-14724460D02*
X9810658Y-14676841D01*
X9810658Y-14676841D02*
X9810658Y-14638746D01*
X9810658Y-14638746D02*
X9801135Y-14591127D01*
X9801135Y-14591127D02*
X9791611Y-14562555D01*
X9791611Y-14562555D02*
X9782087Y-14543508D01*
X9782087Y-14543508D02*
X9763039Y-14514936D01*
X9763039Y-14514936D02*
X9753516Y-14505412D01*
M02*
