G04 #@! TF.GenerationSoftware,KiCad,Pcbnew,7.0.10*
G04 #@! TF.CreationDate,2024-01-17T23:16:48-03:00*
G04 #@! TF.ProjectId,ligeirinho,6c696765-6972-4696-9e68-6f2e6b696361,rev?*
G04 #@! TF.SameCoordinates,Original*
G04 #@! TF.FileFunction,Soldermask,Bot*
G04 #@! TF.FilePolarity,Negative*
%FSLAX46Y46*%
G04 Gerber Fmt 4.6, Leading zero omitted, Abs format (unit mm)*
G04 Created by KiCad (PCBNEW 7.0.10) date 2024-01-17 23:16:48*
%MOMM*%
%LPD*%
G01*
G04 APERTURE LIST*
G04 Aperture macros list*
%AMRoundRect*
0 Rectangle with rounded corners*
0 $1 Rounding radius*
0 $2 $3 $4 $5 $6 $7 $8 $9 X,Y pos of 4 corners*
0 Add a 4 corners polygon primitive as box body*
4,1,4,$2,$3,$4,$5,$6,$7,$8,$9,$2,$3,0*
0 Add four circle primitives for the rounded corners*
1,1,$1+$1,$2,$3*
1,1,$1+$1,$4,$5*
1,1,$1+$1,$6,$7*
1,1,$1+$1,$8,$9*
0 Add four rect primitives between the rounded corners*
20,1,$1+$1,$2,$3,$4,$5,0*
20,1,$1+$1,$4,$5,$6,$7,0*
20,1,$1+$1,$6,$7,$8,$9,0*
20,1,$1+$1,$8,$9,$2,$3,0*%
G04 Aperture macros list end*
%ADD10C,1.200000*%
%ADD11RoundRect,0.250000X-0.725000X0.600000X-0.725000X-0.600000X0.725000X-0.600000X0.725000X0.600000X0*%
%ADD12O,1.950000X1.700000*%
%ADD13RoundRect,0.250000X0.600000X0.750000X-0.600000X0.750000X-0.600000X-0.750000X0.600000X-0.750000X0*%
%ADD14O,1.700000X2.000000*%
%ADD15R,1.400000X1.400000*%
%ADD16C,1.400000*%
%ADD17O,1.600000X1.600000*%
%ADD18C,1.600000*%
%ADD19O,1.700000X1.700000*%
%ADD20R,1.700000X1.700000*%
%ADD21O,1.200000X1.750000*%
%ADD22RoundRect,0.250000X-0.350000X-0.625000X0.350000X-0.625000X0.350000X0.625000X-0.350000X0.625000X0*%
%ADD23O,2.000000X1.905000*%
%ADD24R,2.000000X1.905000*%
%ADD25O,1.700000X1.950000*%
%ADD26RoundRect,0.250000X0.600000X0.725000X-0.600000X0.725000X-0.600000X-0.725000X0.600000X-0.725000X0*%
%ADD27R,1.600000X1.600000*%
%ADD28O,2.100000X1.900000*%
%ADD29R,2.100000X1.900000*%
%ADD30RoundRect,0.250000X-0.475000X0.337500X-0.475000X-0.337500X0.475000X-0.337500X0.475000X0.337500X0*%
%ADD31O,2.000000X1.700000*%
%ADD32RoundRect,0.250000X0.750000X-0.600000X0.750000X0.600000X-0.750000X0.600000X-0.750000X-0.600000X0*%
%ADD33RoundRect,0.250000X0.725000X-0.600000X0.725000X0.600000X-0.725000X0.600000X-0.725000X-0.600000X0*%
%ADD34RoundRect,0.250000X-0.600000X-0.750000X0.600000X-0.750000X0.600000X0.750000X-0.600000X0.750000X0*%
G04 APERTURE END LIST*
D10*
X67644000Y-124675000D03*
D11*
X69644000Y-126275000D03*
D12*
X69644000Y-128775000D03*
X69644000Y-131275000D03*
X69644000Y-133775000D03*
X69644000Y-136275000D03*
D13*
X80640000Y-115466000D03*
D14*
X78140000Y-115466000D03*
D15*
X74324000Y-124825000D03*
D16*
X74324000Y-126605000D03*
X74324000Y-128385000D03*
X74324000Y-130165000D03*
X74324000Y-131945000D03*
X74324000Y-133725000D03*
X74324000Y-135505000D03*
X74324000Y-137285000D03*
X86924000Y-137285000D03*
X86924000Y-135505000D03*
X86924000Y-133725000D03*
X86924000Y-131945000D03*
X86924000Y-130165000D03*
X86924000Y-128385000D03*
X86924000Y-126605000D03*
X86924000Y-124825000D03*
D10*
X104044000Y-124575000D03*
D11*
X106044000Y-126175000D03*
D12*
X106044000Y-128675000D03*
X106044000Y-131175000D03*
X106044000Y-133675000D03*
X106044000Y-136175000D03*
D13*
X117040000Y-115366000D03*
D14*
X114540000Y-115366000D03*
D15*
X110724000Y-124725000D03*
D16*
X110724000Y-126505000D03*
X110724000Y-128285000D03*
X110724000Y-130065000D03*
X110724000Y-131845000D03*
X110724000Y-133625000D03*
X110724000Y-135405000D03*
X110724000Y-137185000D03*
X123324000Y-137185000D03*
X123324000Y-135405000D03*
X123324000Y-133625000D03*
X123324000Y-131845000D03*
X123324000Y-130065000D03*
X123324000Y-128285000D03*
X123324000Y-126505000D03*
X123324000Y-124725000D03*
D15*
X39100000Y-124825000D03*
D16*
X39100000Y-126605000D03*
X39100000Y-128385000D03*
X39100000Y-130165000D03*
X39100000Y-131945000D03*
X39100000Y-133725000D03*
X39100000Y-135505000D03*
X39100000Y-137285000D03*
X51700000Y-137285000D03*
X51700000Y-135505000D03*
X51700000Y-133725000D03*
X51700000Y-131945000D03*
X51700000Y-130165000D03*
X51700000Y-128385000D03*
X51700000Y-126605000D03*
X51700000Y-124825000D03*
D13*
X45416000Y-115466000D03*
D14*
X42916000Y-115466000D03*
D10*
X32420000Y-124675000D03*
D11*
X34420000Y-126275000D03*
D12*
X34420000Y-128775000D03*
X34420000Y-131275000D03*
X34420000Y-133775000D03*
X34420000Y-136275000D03*
D17*
X40365000Y-65985000D03*
D18*
X40365000Y-55825000D03*
D19*
X104385000Y-73005000D03*
X101845000Y-73005000D03*
X99305000Y-73005000D03*
X96765000Y-73005000D03*
X94225000Y-73005000D03*
X91685000Y-73005000D03*
X89145000Y-73005000D03*
D20*
X86605000Y-73005000D03*
D19*
X33615000Y-80255000D03*
X33615000Y-82795000D03*
D20*
X33615000Y-85335000D03*
D21*
X49565000Y-92055000D03*
D22*
X47565000Y-92055000D03*
D19*
X86435000Y-43195000D03*
X88975000Y-43195000D03*
X91515000Y-43195000D03*
X94055000Y-43195000D03*
X96595000Y-43195000D03*
X99135000Y-43195000D03*
X101675000Y-43195000D03*
D20*
X104215000Y-43195000D03*
D23*
X65465000Y-85855000D03*
X65465000Y-88395000D03*
D24*
X65465000Y-90935000D03*
D25*
X68165000Y-44405000D03*
X70665000Y-44405000D03*
X73165000Y-44405000D03*
X75665000Y-44405000D03*
D26*
X78165000Y-44405000D03*
D10*
X79765000Y-42405000D03*
D18*
X58065000Y-82505000D03*
D27*
X58065000Y-85005000D03*
D18*
X72665000Y-92172621D03*
D27*
X72665000Y-89672621D03*
D25*
X50565000Y-44405000D03*
X53065000Y-44405000D03*
X55565000Y-44405000D03*
X58065000Y-44405000D03*
D26*
X60565000Y-44405000D03*
D10*
X62165000Y-42405000D03*
D17*
X47965000Y-65885000D03*
D18*
X47965000Y-55725000D03*
D19*
X73425000Y-50705000D03*
X70885000Y-50705000D03*
X68345000Y-50705000D03*
X65805000Y-50705000D03*
X63265000Y-50705000D03*
X60725000Y-50705000D03*
X58185000Y-50705000D03*
X55645000Y-50705000D03*
X53105000Y-50705000D03*
X50565000Y-50705000D03*
X48025000Y-50705000D03*
X45485000Y-50705000D03*
X42945000Y-50705000D03*
X40405000Y-50705000D03*
D20*
X37865000Y-50705000D03*
D19*
X73405000Y-76095000D03*
X70865000Y-76095000D03*
X68325000Y-76095000D03*
X65785000Y-76095000D03*
X63245000Y-76095000D03*
X60705000Y-76095000D03*
X58165000Y-76095000D03*
X55625000Y-76095000D03*
X53085000Y-76095000D03*
X50545000Y-76095000D03*
X48005000Y-76095000D03*
X45465000Y-76095000D03*
X42925000Y-76095000D03*
X40385000Y-76095000D03*
D20*
X37845000Y-76095000D03*
D19*
X104385000Y-85630000D03*
X101845000Y-85630000D03*
X99305000Y-85630000D03*
X96765000Y-85630000D03*
X94225000Y-85630000D03*
X91685000Y-85630000D03*
X89145000Y-85630000D03*
D20*
X86605000Y-85630000D03*
D28*
X44627500Y-84127500D03*
X52247500Y-84127500D03*
X44627500Y-86667500D03*
X52247500Y-81587500D03*
X44627500Y-81587500D03*
D29*
X52247500Y-86667500D03*
D25*
X33565000Y-44405000D03*
X36065000Y-44405000D03*
X38565000Y-44405000D03*
X41065000Y-44405000D03*
D26*
X43565000Y-44405000D03*
D10*
X45165000Y-42405000D03*
D30*
X81815000Y-46560000D03*
X81815000Y-44485000D03*
D31*
X93955000Y-65135000D03*
D32*
X93955000Y-67635000D03*
D30*
X47015000Y-46410000D03*
X47015000Y-44335000D03*
D12*
X94335000Y-48195000D03*
X94335000Y-50695000D03*
X94335000Y-53195000D03*
X94335000Y-55695000D03*
D33*
X94335000Y-58195000D03*
D30*
X64345000Y-46430000D03*
X64345000Y-44355000D03*
D14*
X103065000Y-92305000D03*
D34*
X100565000Y-92305000D03*
D10*
X98965000Y-90305000D03*
D14*
X88065000Y-91405000D03*
D13*
X90565000Y-91405000D03*
D10*
X92165000Y-93405000D03*
M02*
